<svg xmlns="http://www.w3.org/2000/svg" xmlns:xlink="http://www.w3.org/1999/xlink" width="24" height="24" viewBox="0 0 24 24">
    <defs>
        <path id="a" d="M14.02 12.307l9.438-9.667a1.125 1.125 0 0 0-.017-1.583 1.108 1.108 0 0 0-1.575.015l-9.42 9.653-9.811-9.668a1.11 1.11 0 0 0-1.575.015 1.125 1.125 0 0 0 .015 1.583l9.796 9.652-9.796 9.653a1.125 1.125 0 0 0-.015 1.582 1.108 1.108 0 0 0 1.575.015l9.81-9.667 9.421 9.652a1.108 1.108 0 0 0 1.577.015c.438-.433.445-1.14.016-1.582l-9.438-9.668z"/>
    </defs>
    <g fill="none" fill-rule="evenodd">
        <mask id="b" fill="#fff">
            <use xlink:href="#a"/>
        </mask>
        <g fill="#005CA9" mask="url(#b)">
            <path d="M0 0h24v24H0z"/>
        </g>
    </g>
</svg>
