<?xml version="1.0" encoding="utf-8"?>
<!-- Generator: Adobe Illustrator 23.0.1, SVG Export Plug-In . SVG Version: 6.00 Build 0)  -->
<svg version="1.1" id="Livello_1" xmlns="http://www.w3.org/2000/svg" xmlns:xlink="http://www.w3.org/1999/xlink" x="0px" y="0px"
	 viewBox="0 0 258.6 51.6" style="enable-background:new 0 0 258.6 51.6;" xml:space="preserve">
<style type="text/css">
	.st0{fill:#35C4B0;}
	.st1{fill:#FFFFFF;}
	.st2{fill:#FFFFFF;stroke:#FFFFFF;stroke-width:2;stroke-linecap:square;}
	.st3{fill:#35CBB6;stroke:#35CBB6;stroke-width:2;stroke-linecap:square;}
</style>
<g id="Group_4255" transform="translate(-156.256 -53)">
	<g id="Group_4230" transform="translate(-688.384 -510.455)">
		<path id="Path_1906" class="st0" d="M868.5,610.5l0-19.3l-7.6,4.8l0,10l-8.5-5l0.1-27.8l-7.7,4.8l0,18.6l0,0v0l0,8.9l0,0v0
			l16.4,9.6L868.5,610.5L868.5,610.5z"/>
		<path id="Path_1907" class="st1" d="M861,568l-0.2,19.3l7.6-4.8l0.1-10l8.5,5l-0.2,27.7l7.7-4.7l0.1-18.4l0,0v0l0.1-8.9l0,0v0
			l-16.3-9.7L861,568z"/>
	</g>
	<path id="Path_1908" class="st2" d="M225.4,79.9h8.5v8.9h2.6V69.3h-2.6v8.2h-8.5v-8.2h-2.6v19.5h2.6V79.9z M256.5,86.4H248v-6.4
		h6.4v-2.5H248v-3.2c0-1.7,1-2.6,3.1-2.6h5.4v-2.5h-5.1c-0.9,0-1.8,0.1-2.7,0.3c-0.8,0.2-1.5,0.5-2,1.1c-0.9,0.9-1.4,2.1-1.3,3.3
		v14.9h11.1V86.4z M270.9,86.4c-1.3,0.2-2.5-0.5-3-1.7c-0.3-0.8-0.4-1.7-0.4-2.5V69.3h-2.6v12.9c0,1,0.1,2.1,0.3,3.1
		c0.3,1.5,1.5,2.7,3,3.2c0.5,0.2,1.1,0.3,1.6,0.3c0.4,0,1,0,1.8,0h4.1v-2.5L270.9,86.4z M289.4,86.4c-1.3,0.2-2.5-0.5-3-1.7
		c-0.3-0.8-0.4-1.7-0.4-2.5V69.3h-2.6v12.9c0,1,0.1,2.1,0.3,3.1c0.3,1.5,1.5,2.7,3,3.2c0.5,0.2,1.1,0.3,1.6,0.3c0.4,0,1,0,1.8,0h4.1
		v-2.5L289.4,86.4z M317.2,79.1c0,1-0.2,2-0.5,3c-0.3,0.9-0.7,1.7-1.3,2.4c-0.5,0.7-1.2,1.2-2,1.6c-1.7,0.8-3.6,0.8-5.3,0
		c-0.8-0.4-1.5-0.9-2-1.6c-0.6-0.7-1-1.5-1.3-2.4c-0.3-1-0.5-2-0.5-3c0-1,0.2-2,0.5-3c0.3-0.9,0.7-1.7,1.3-2.4
		c0.5-0.7,1.2-1.3,2-1.7c1.7-0.8,3.6-0.8,5.3,0c0.8,0.4,1.5,1,2,1.7c0.6,0.7,1,1.6,1.3,2.4C317,77.1,317.2,78.1,317.2,79.1
		L317.2,79.1z M301.7,79.1c0,1.4,0.2,2.8,0.7,4.2c0.4,1.2,1,2.2,1.9,3.1c0.8,0.9,1.8,1.5,2.9,2c2.4,0.9,5.1,0.9,7.5,0
		c1.1-0.4,2.1-1.1,2.9-2c0.8-0.9,1.5-2,1.9-3.1c0.9-2.7,0.9-5.6,0-8.3c-0.4-1.2-1-2.3-1.9-3.2c-0.8-0.9-1.8-1.6-2.9-2
		c-2.4-0.9-5.1-0.9-7.5,0c-1.1,0.5-2.1,1.2-2.9,2c-0.8,0.9-1.5,2-1.9,3.2C301.9,76.3,301.7,77.7,301.7,79.1L301.7,79.1z"/>
	<path id="Path_1909" class="st3" d="M333.2,69.3c-1.4-0.1-2.8,0.3-3.9,1.2c-1,0.9-1.6,2.2-1.5,3.5c0,2.5,1.5,4.4,4.4,5.5
		c0.1,0,0.2,0.1,0.4,0.1c0.6,0.2,1.1,0.4,1.6,0.6c0.4,0.2,0.9,0.5,1.3,0.7c0.4,0.3,0.7,0.6,1,1c0.2,0.4,0.3,0.9,0.3,1.3
		c0,0.9-0.4,1.8-1.2,2.3c-0.9,0.6-2,0.8-3.1,0.8h-4.3v2.5h4.4c0.5,0,0.9,0,1.1,0c0.6,0,1.3-0.1,1.9-0.3c0.7-0.2,1.3-0.5,1.9-0.9
		c0.6-0.4,1.2-1,1.5-1.7c0.4-0.8,0.6-1.6,0.6-2.5c0-0.8-0.1-1.5-0.3-2.2c-0.2-0.6-0.5-1.1-1-1.6c-0.4-0.4-0.9-0.7-1.3-1
		c-0.5-0.3-1.1-0.5-1.6-0.7c-1.2-0.4-2.3-1-3.4-1.6c-0.7-0.4-1.2-1.2-1.2-2.1c0-1.5,0.9-2.3,2.8-2.3h4.9v-2.5L333.2,69.3z
		 M351.2,71.7v17.1h2.6V71.7h4.8v-2.5h-12.3v2.5H351.2z M368.6,81.7c0.5-0.6,1.1-1.1,1.8-1.3c0.8-0.3,1.7-0.4,2.6-0.4h2.5v-2.5h-2.5
		c-1.7-0.1-3.3,0.5-4.5,1.6v-2.4c-0.1-1.4,0.3-2.8,1.2-3.8c0.9-0.8,2-1.3,3.3-1.2h3.8v17.1h2.6V69.3h-6.4c-1.9-0.1-3.7,0.7-5,2.1
		c-1.3,1.4-2,3.2-1.9,5.1v12.3h2.5V81.7z M391,74.3c0-1.7,1-2.6,3.1-2.6h3.3v-2.5h-3c-0.9,0-1.8,0.1-2.7,0.3c-0.8,0.2-1.5,0.5-2,1.1
		c-0.9,0.9-1.4,2.1-1.3,3.3v14.9h2.6v-8.3h5.2V78H391L391,74.3z M407.5,74.3c0-1.7,1-2.6,3.1-2.6h3.3v-2.5h-3
		c-0.9,0-1.8,0.1-2.7,0.3c-0.8,0.2-1.5,0.5-2,1.1c-0.9,0.9-1.4,2.1-1.3,3.3v14.9h2.6v-8.3h5.2V78h-5.2L407.5,74.3z"/>
</g>
</svg>
