<?xml version="1.0" encoding="utf-8"?>
<!-- Generator: Adobe Illustrator 23.0.1, SVG Export Plug-In . SVG Version: 6.00 Build 0)  -->
<svg version="1.1" id="text_1_" xmlns="http://www.w3.org/2000/svg" xmlns:xlink="http://www.w3.org/1999/xlink" x="0px" y="0px"
	 viewBox="0 0 193.1 147.7" style="enable-background:new 0 0 193.1 147.7;" xml:space="preserve">
<style type="text/css">
	.st0{fill:#35C4B0;}
	.st1{fill:#FFFFFF;}
	.st2{fill:#FFFFFF;stroke:#FFFFFF;stroke-width:2;stroke-linecap:square;}
	.st3{fill:#35CBB6;stroke:#35CBB6;stroke-width:2;stroke-linecap:square;}
</style>
<g id="logo_1_" transform="translate(95.105 -497.112)">
	<path id="Path_1906" class="st0" d="M9.1,592.7l0.1-39.1l-15.4,9.8l0,20.4l-17.4-10.2l0.1-56.6l-15.7,9.7l-0.1,37.7l0,0v0l0,18.1
		l0,0v0L-6.1,602L9.1,592.7L9.1,592.7z"/>
	<path id="Path_1907" class="st1" d="M-6,506.3l-0.3,39.1l15.5-9.7l0.2-20.4l17.3,10.3L26.2,582l15.7-9.6l0.3-37.4l0,0v0l0.2-18.1
		l0,0v0L9.2,497.1L-6,506.3z"/>
</g>
<path id="Path_1908" class="st2" d="M3.6,137.6h8.5v8.9h2.6v-19.5h-2.6v8.2H3.6v-8.2H1v19.5h2.6V137.6z M34.7,144h-8.5v-6.4h6.4
	v-2.5h-6.4V132c0-1.7,1-2.6,3.1-2.6h5.4v-2.5h-5c-0.9,0-1.8,0.1-2.7,0.3c-0.8,0.2-1.5,0.5-2,1.1c-0.9,0.9-1.4,2.1-1.3,3.3v14.9h11.1
	V144z M49.1,144c-1.3,0.2-2.5-0.5-3-1.7c-0.3-0.8-0.4-1.7-0.4-2.5v-12.8H43v12.9c0,1,0.1,2.1,0.3,3.1c0.3,1.5,1.5,2.7,3,3.2
	c0.5,0.2,1.1,0.3,1.6,0.3c0.4,0,1,0,1.8,0h4.1V144L49.1,144z M67.6,144c-1.3,0.2-2.5-0.5-3-1.7c-0.3-0.8-0.4-1.7-0.4-2.5v-12.8h-2.6
	v12.9c0,1,0.1,2.1,0.3,3.1c0.3,1.5,1.5,2.7,3,3.2c0.5,0.2,1.1,0.3,1.6,0.3c0.4,0,1,0,1.8,0h4.1V144L67.6,144z M95.4,136.8
	c0,1-0.2,2-0.5,3c-0.3,0.9-0.7,1.7-1.3,2.4c-0.5,0.7-1.2,1.2-2,1.6c-1.7,0.8-3.6,0.8-5.3,0c-0.8-0.4-1.5-0.9-2-1.6
	c-0.6-0.7-1-1.5-1.3-2.4c-0.3-1-0.5-2-0.5-3c0-1,0.2-2,0.5-3c0.3-0.9,0.7-1.7,1.3-2.4c0.5-0.7,1.2-1.3,2-1.7c1.7-0.8,3.6-0.8,5.3,0
	c0.8,0.4,1.5,1,2,1.7c0.6,0.7,1,1.6,1.3,2.4C95.3,134.8,95.4,135.8,95.4,136.8L95.4,136.8z M79.9,136.8c0,1.4,0.2,2.8,0.7,4.2
	c0.4,1.2,1,2.2,1.9,3.1c0.8,0.9,1.8,1.5,2.9,2c2.4,0.9,5.1,0.9,7.5,0c1.1-0.4,2.1-1.1,2.9-2c0.8-0.9,1.5-2,1.9-3.1
	c0.9-2.7,0.9-5.6,0-8.3c-0.4-1.2-1-2.3-1.9-3.2c-0.8-0.9-1.8-1.6-2.9-2c-2.4-0.9-5.1-0.9-7.5,0c-1.1,0.5-2.1,1.2-2.9,2
	c-0.8,0.9-1.5,2-1.9,3.2C80.1,133.9,79.9,135.4,79.9,136.8L79.9,136.8z"/>
<path id="text" class="st3" d="M111.4,126.9c-1.4-0.1-2.8,0.3-3.9,1.2c-1,0.9-1.6,2.2-1.5,3.5c0,2.5,1.5,4.4,4.4,5.5
	c0.1,0,0.2,0.1,0.4,0.1c0.6,0.2,1.1,0.4,1.6,0.6c0.4,0.2,0.9,0.5,1.3,0.7c0.4,0.3,0.7,0.6,1,1c0.2,0.4,0.3,0.9,0.3,1.3
	c0,0.9-0.4,1.8-1.2,2.3c-0.9,0.6-2,0.8-3.1,0.8h-4.3v2.5h4.4c0.5,0,0.9,0,1.1,0c0.6,0,1.3-0.1,1.9-0.3c0.7-0.2,1.3-0.5,1.9-0.9
	c0.6-0.4,1.2-1,1.5-1.7c0.4-0.8,0.6-1.6,0.6-2.5c0-0.8-0.1-1.5-0.3-2.2c-0.2-0.6-0.5-1.1-1-1.6c-0.4-0.4-0.9-0.7-1.3-1
	c-0.5-0.3-1.1-0.5-1.6-0.7c-1.2-0.4-2.3-1-3.4-1.6c-0.7-0.4-1.2-1.2-1.2-2.1c0-1.5,0.9-2.3,2.8-2.3h4.9v-2.5L111.4,126.9z
	 M129.4,129.4v17.1h2.6v-17.1h4.8v-2.5h-12.3v2.5H129.4z M146.8,139.3c0.5-0.6,1.1-1.1,1.8-1.3c0.8-0.3,1.7-0.4,2.6-0.4h2.5v-2.5
	h-2.5c-1.7-0.1-3.3,0.5-4.5,1.6v-2.4c-0.1-1.4,0.3-2.8,1.2-3.8c0.9-0.8,2-1.3,3.3-1.2h3.8v17.1h2.6v-19.5h-6.4
	c-1.9-0.1-3.7,0.7-5,2.1c-1.3,1.4-2,3.2-1.9,5.1v12.3h2.5V139.3z M169.2,132c0-1.7,1-2.6,3.1-2.6h3.3v-2.5h-3
	c-0.9,0-1.8,0.1-2.7,0.3c-0.8,0.2-1.5,0.5-2,1.1c-0.9,0.9-1.4,2.1-1.3,3.3v14.9h2.6v-8.3h5.2v-2.5h-5.2L169.2,132z M185.7,132
	c0-1.7,1-2.6,3.1-2.6h3.3v-2.5h-3c-0.9,0-1.8,0.1-2.7,0.3c-0.8,0.2-1.5,0.5-2,1.1c-0.9,0.9-1.4,2.1-1.3,3.3v14.9h2.6v-8.3h5.2v-2.5
	h-5.2L185.7,132z"/>
</svg>
