<?xml version="1.0" encoding="utf-8"?>
<!-- Generator: Adobe Illustrator 23.0.1, SVG Export Plug-In . SVG Version: 6.00 Build 0)  -->
<svg version="1.1" id="Livello_1" xmlns="http://www.w3.org/2000/svg" xmlns:xlink="http://www.w3.org/1999/xlink" x="0px" y="0px"
	 viewBox="0 0 104.4 86.4" style="enable-background:new 0 0 104.4 86.4;" xml:space="preserve">
<style type="text/css">
	.st0{fill:#818B95;enable-background:new    ;}
</style>
<path id="folder" class="st0" d="M97.2,30.6v-18H46.8L38.7,0H4.9C2.2,0,0,2.2,0,4.9v79.7l0,0l0,0c0,1.3-0.1,1.8,1,1.8h80.6
	c2,0,3.8-1.3,4.4-3.3l18.4-50.8v-1.8L97.2,30.6z M14.4,18.8v4.7H9.8L14.4,18.8z M93.6,28.8H79.2v-5.4c0-1-0.8-1.8-1.8-1.8
	c-1,0-1.8,0.8-1.8,1.8c0,0,0,0,0,0v5.4h-9v-5.4c0-1-0.8-1.8-1.8-1.8c-1,0-1.8,0.8-1.8,1.8c0,0,0,0,0,0v5.4h-9v-5.4
	c0-1-0.8-1.8-1.8-1.8c-1,0-1.8,0.8-1.8,1.8c0,0,0,0,0,0v5.4h-9v-5.4c0-1-0.8-1.8-1.8-1.8c-1,0-1.8,0.8-1.8,1.8c0,0,0,0,0,0v5.4h-9
	v-5.4c0-1-0.8-1.8-1.8-1.8c-1,0-1.8,0.8-1.8,1.8v5.4h-4.1c-2,0-3.8,1.3-4.4,3.3L7.2,58.2V27H18V16.2h75.6V28.8z"/>
</svg>
