<?xml version="1.0" encoding="utf-8"?>
<!-- Generator: Adobe Illustrator 23.0.1, SVG Export Plug-In . SVG Version: 6.00 Build 0)  -->
<svg version="1.1" id="Livello_1" xmlns="http://www.w3.org/2000/svg" xmlns:xlink="http://www.w3.org/1999/xlink" x="0px" y="0px"
	 viewBox="0 0 97.3 97.3" style="enable-background:new 0 0 97.3 97.3;" xml:space="preserve">
<style type="text/css">
	.st0{fill:#8B949F;}
	.st1{fill:#76818C;}
	.st2{fill:none;stroke:#2D3D4E;stroke-width:5;stroke-linecap:round;stroke-miterlimit:10;}
</style>
<path class="st0" d="M48.7,96.8c-6.5,0-12.8-1.3-18.7-3.8c-5.7-2.4-10.9-5.9-15.3-10.3c-4.4-4.4-7.9-9.6-10.3-15.3
	c-2.5-5.9-3.8-12.2-3.8-18.7s1.3-12.8,3.8-18.7c2.4-5.7,5.9-10.9,10.3-15.3c4.4-4.4,9.6-7.9,15.3-10.3c5.9-2.5,12.2-3.8,18.7-3.8
	s12.8,1.3,18.7,3.8c5.7,2.4,10.9,5.9,15.3,10.3c4.4,4.4,7.9,9.6,10.3,15.3c2.5,5.9,3.8,12.2,3.8,18.7S95.5,61.5,93,67.4
	c-2.4,5.7-5.9,10.9-10.3,15.3c-4.4,4.4-9.6,7.9-15.3,10.3C61.5,95.5,55.2,96.8,48.7,96.8z"/>
<path class="st1" d="M48.7,1C22.3,1,1,22.3,1,48.7s21.3,47.7,47.7,47.7S96.3,75,96.3,48.7S75,1,48.7,1 M48.7,0
	c6.6,0,12.9,1.3,18.9,3.8c5.8,2.5,11,6,15.5,10.4c4.5,4.5,8,9.7,10.4,15.5c2.5,6,3.8,12.4,3.8,18.9S96,61.6,93.5,67.6
	c-2.5,5.8-6,11-10.4,15.5c-4.5,4.5-9.7,8-15.5,10.4c-6,2.5-12.4,3.8-18.9,3.8S35.7,96,29.7,93.5c-5.8-2.5-11-6-15.5-10.4
	c-4.5-4.5-8-9.7-10.4-15.5C1.3,61.6,0,55.2,0,48.7s1.3-12.9,3.8-18.9c2.5-5.8,6-11,10.4-15.5c4.5-4.5,9.7-8,15.5-10.4
	C35.7,1.3,42.1,0,48.7,0z"/>
<line id="line-2" class="st2" x1="64.1" y1="47.5" x2="33.2" y2="47.5"/>
<line id="line" class="st2" x1="48.7" y1="32" x2="48.7" y2="63"/>
</svg>
