<?xml version="1.0" encoding="utf-8"?>
<!-- Generator: Adobe Illustrator 23.0.1, SVG Export Plug-In . SVG Version: 6.00 Build 0)  -->
<svg version="1.1" id="Livello_1" xmlns="http://www.w3.org/2000/svg" xmlns:xlink="http://www.w3.org/1999/xlink" x="0px" y="0px"
	 viewBox="0 0 93.5 96.8" style="enable-background:new 0 0 93.5 96.8;" xml:space="preserve">
<style type="text/css">
	.st0{fill:#818B95;}
</style>
<path id="Path_1442" class="st0" d="M73.8,57.4c-10.9,0-19.7,8.8-19.7,19.7S63,96.8,73.8,96.8S93.5,88,93.5,77.1
	C93.5,66.2,84.7,57.4,73.8,57.4z M73.8,93.5c-9.1,0-16.4-7.3-16.4-16.4c0-9.1,7.3-16.4,16.4-16.4c9.1,0,16.4,7.3,16.4,16.4
	C90.2,86.2,82.9,93.5,73.8,93.5z"/>
<path id="Path_1443" class="st0" d="M83.7,75.5h-8.2v-8.2c0-0.9-0.8-1.6-1.7-1.6c-0.9,0-1.6,0.7-1.6,1.6v9.8c0,0.9,0.7,1.6,1.6,1.6
	c0,0,0,0,0,0h9.8c0.9,0,1.6-0.8,1.6-1.7C85.3,76.2,84.6,75.5,83.7,75.5L83.7,75.5z"/>
<path id="Path_1444" class="st0" d="M85.3,8.2c0-0.9-0.7-1.6-1.6-1.6h-8.2V1.6c0-0.9-0.7-1.6-1.6-1.6c0,0,0,0,0,0H62.3
	c-0.9,0-1.6,0.7-1.6,1.6c0,0,0,0,0,0v4.9H24.6V1.6C24.6,0.7,23.9,0,23,0H11.5c-0.9,0-1.6,0.7-1.6,1.6c0,0,0,0,0,0v4.9H1.6
	C0.7,6.6,0,7.3,0,8.2V23h85.3V8.2z M21.3,8.2v4.9h-8.2V3.3h8.2V8.2z M72.2,8.2v4.9H64V3.3h8.2V8.2z"/>
<path id="Path_1445" class="st0" d="M73.8,52.5c4,0,7.9,1,11.5,2.9V27.9c0-0.9-0.7-1.6-1.6-1.6c0,0,0,0,0,0h-82
	C0.7,26.3,0,27,0,27.9c0,0,0,0,0,0v64c0,0.9,0.7,1.6,1.6,1.6c0,0,0,0,0,0h53.9c-9.1-10.1-8.3-25.6,1.8-34.7
	C61.9,54.7,67.7,52.5,73.8,52.5z M60.7,36.1h13.1v13.1H60.7V36.1z M24.6,82H11.5V68.9h13.1L24.6,82z M24.6,65.6H11.5V52.5h13.1
	L24.6,65.6z M24.6,49.2H11.5V36.1h13.1L24.6,49.2z M41,82H27.9V68.9H41V82z M41,65.6H27.9V52.5H41V65.6z M41,49.2H27.9V36.1H41V49.2
	z M44.3,36.1h13.1v13.1H44.3V36.1z"/>
</svg>
