<?xml version="1.0" encoding="utf-8"?>
<!-- Generator: Adobe Illustrator 23.0.1, SVG Export Plug-In . SVG Version: 6.00 Build 0)  -->
<svg version="1.1" id="Livello_1" xmlns="http://www.w3.org/2000/svg" xmlns:xlink="http://www.w3.org/1999/xlink" x="0px" y="0px"
	 viewBox="0 0 81.1 93.9" style="enable-background:new 0 0 81.1 93.9;" xml:space="preserve">
<style type="text/css">
	.st0{fill:#818B95;}
	.st1{fill:#556371;}
	.st2{opacity:0.973;fill:#556371;enable-background:new    ;}
</style>
<path id="Path_1851" class="st0" d="M0.9,93V0.9h55.5L80.3,21v72H0.9z"/>
<path id="Path_1853" class="st1" d="M80.3,22.7L56.7,2.2v22.3L80.3,22.7z"/>
<path id="Path_1854" class="st2" d="M40.7,31.6c-11,0-19.9,8.9-19.9,19.9s8.9,19.9,19.9,19.9s19.9-8.9,19.9-19.9
	S51.7,31.6,40.7,31.6L40.7,31.6z M40.7,49.2c4.2,0,7.5,3.4,7.5,7.5c0,3.4-2.2,6.3-5.5,7.2v1.7c0,1.1-0.9,2-2,2s-2.1-0.9-2.1-2V64
	c-3.2-0.9-5.5-3.9-5.5-7.2c0-1.1,0.9-2.1,2-2.1s2.1,0.9,2.1,2.1l0,0c0,1.9,1.5,3.4,3.4,3.4s3.4-1.5,3.4-3.4s-1.5-3.4-3.4-3.4l0,0
	c-4.2,0-7.5-3.4-7.5-7.5c0-3.4,2.2-6.3,5.5-7.2v-1.2c0-1.1,0.9-2.1,2-2.1s2.1,0.9,2.1,2.1v1.2c3.2,0.9,5.5,3.9,5.5,7.2
	c0,1.1-0.9,2.1-2,2.1s-2.1-0.9-2.1-2.1l0,0c0-1.9-1.5-3.4-3.4-3.4s-3.4,1.5-3.4,3.4C37.3,47.7,38.8,49.2,40.7,49.2L40.7,49.2
	L40.7,49.2z"/>
</svg>
