<?xml version="1.0" encoding="utf-8"?>
<!-- Generator: Adobe Illustrator 23.0.1, SVG Export Plug-In . SVG Version: 6.00 Build 0)  -->
<svg version="1.1" id="Livello_1" xmlns="http://www.w3.org/2000/svg" xmlns:xlink="http://www.w3.org/1999/xlink" x="0px" y="0px"
	 viewBox="0 0 114.2 118.9" style="enable-background:new 0 0 114.2 118.9;" xml:space="preserve">
<style type="text/css">
	.st0{fill:#8B949F;}
</style>
<path id="Path_1450" class="st0" d="M16.1,24.8c1.3,1,3.2,0.7,4.2-0.6C35.8,3.9,64.8,0,85.1,15.4c3.3,2.5,6.3,5.5,8.8,8.8
	c1,1.4,2.8,1.7,4.2,0.7c1.4-1,1.7-2.8,0.7-4.2c0-0.1-0.1-0.1-0.1-0.2C81.2-2.4,48.4-6.8,25.5,10.7c-3.7,2.8-7.1,6.2-9.9,9.9
	C14.6,21.9,14.8,23.8,16.1,24.8z"/>
<path id="Path_1451" class="st0" d="M88.9,40.7c0,5.2,4.2,9.4,9.4,9.4s9.4-4.2,9.4-9.4c0-5.2-4.2-9.4-9.4-9.4l0,0
	C93.1,31.4,89,35.6,88.9,40.7z"/>
<path id="Path_1452" class="st0" d="M107.9,53.2l-2.4-0.7c-0.9-0.3-1.8-0.1-2.5,0.4l-4.7,3.5l-4.7-3.5c-0.7-0.5-1.6-0.7-2.5-0.4
	l-2.4,0.7c-3.8,1.3-6.3,4.8-6.3,8.8v14.1c0,0.5,0.2,1.1,0.5,1.5l4.7,7.2v19c0,1.5,1.3,2.8,2.8,2.8l0,0h15.8c1.5,0,2.8-1.3,2.8-2.8
	l0,0v-19l4.7-7.2c0.3-0.5,0.5-1,0.5-1.5V62C114.2,58,111.7,54.5,107.9,53.2z"/>
<path id="Path_1453" class="st0" d="M15.9,50.1c5.2,0,9.4-4.2,9.4-9.4c0-5.2-4.2-9.4-9.4-9.4s-9.4,4.2-9.4,9.4l0,0
	C6.6,45.9,10.7,50.1,15.9,50.1z"/>
<path id="Path_1454" class="st0" d="M25.5,53.2l-2.4-0.7c-0.9-0.3-1.8-0.1-2.5,0.4l-4.7,3.5l-4.7-3.5c-0.7-0.5-1.6-0.7-2.5-0.4
	l-2.4,0.7C2.5,54.5,0,58,0,62v14.1c0,0.5,0.2,1.1,0.5,1.5l4.7,7.2v19c0,1.5,1.3,2.8,2.8,2.8c0,0,0,0,0,0h15.8c1.5,0,2.8-1.3,2.8-2.8
	l0,0v-19l4.7-7.2c0.3-0.5,0.5-1,0.5-1.5V62C31.8,58,29.3,54.5,25.5,53.2z"/>
<path id="Path_1455" class="st0" d="M69.2,27.6c0-6.7-5.4-12.1-12.1-12.1c-6.7,0-12.1,5.4-12.1,12.1c0,6.7,5.4,12.1,12.1,12.1l0,0
	C63.8,39.6,69.2,34.2,69.2,27.6z"/>
<path id="Path_1456" class="st0" d="M70.4,45.5L70.4,45.5l-3.5-1.1c-0.5-0.2-1.1,0.1-1.3,0.7l-7.2,19.9c-0.2,0.7-1,1-1.7,0.8
	c-0.4-0.1-0.7-0.4-0.8-0.8l-7.2-19.9c-0.2-0.4-0.6-0.7-1-0.7c-0.1,0-3.8,1.1-3.8,1.1c-4.4,1.4-7.3,5.5-7.3,10.2v21
	c0,0.2,0.1,0.4,0.2,0.6l7.6,11.5v29.1c0,0.6,0.5,1.1,1.1,1.1h0h23.5c0.6,0,1.1-0.5,1.1-1.1v0V88.7l7.6-11.5c0.1-0.2,0.2-0.4,0.2-0.6
	V55.6C77.7,51,74.7,46.9,70.4,45.5z"/>
<path id="Path_1457" class="st0" d="M59.9,45.1c-0.3-0.3-0.7-0.5-1.2-0.5h-3.3c-0.4,0-0.9,0.2-1.2,0.5c-0.5,0.5-0.5,1.2-0.2,1.8
	l1.8,2.7l-0.8,7l1.6,4.3c0.1,0.3,0.4,0.4,0.6,0.3c0.1-0.1,0.2-0.2,0.3-0.3l1.6-4.3l-0.8-7l1.8-2.7C60.5,46.3,60.4,45.5,59.9,45.1z"
	/>
</svg>
