<?xml version="1.0" encoding="utf-8"?>
<!-- Generator: Adobe Illustrator 23.0.1, SVG Export Plug-In . SVG Version: 6.00 Build 0)  -->
<svg version="1.1" id="Livello_1" xmlns="http://www.w3.org/2000/svg" xmlns:xlink="http://www.w3.org/1999/xlink" x="0px" y="0px"
	 viewBox="0 0 103.7 86.4" style="enable-background:new 0 0 103.7 86.4;" xml:space="preserve">
<style type="text/css">
	.st0{fill:#818B95;}
</style>
<path id="Path_1788" class="st0" d="M95.1,13H73.5V8.6c0-4.8-3.9-8.6-8.6-8.6H38.9c-4.8,0-8.6,3.9-8.6,8.6V13H8.6
	C3.9,13,0,16.8,0,21.6v13c0,4.8,3.9,8.6,8.6,8.6h34.6v-2.2c0-1.2,1-2.2,2.2-2.2c0,0,0,0,0,0h13c1.2,0,2.2,1,2.2,2.2c0,0,0,0,0,0v2.2
	h34.6c4.8,0,8.6-3.9,8.6-8.6v-13C103.7,16.8,99.9,13,95.1,13z M64.8,13H38.9V8.6h25.9V13z"/>
<path id="Path_1789" class="st0" d="M102.5,45.6c-0.7-0.4-1.6-0.3-2.3,0.2c-1.5,1.1-3.3,1.8-5.2,1.8H60.5V54c0,1.2-1,2.2-2.2,2.2
	c0,0,0,0,0,0h-13c-1.2,0-2.2-1-2.2-2.2c0,0,0,0,0,0v-6.5H8.6c-1.9,0-3.7-0.6-5.2-1.8c-1-0.7-2.3-0.5-3,0.4C0.2,46.6,0,47,0,47.5
	v30.3c0,4.8,3.9,8.6,8.6,8.6h86.4c4.8,0,8.6-3.9,8.6-8.6V47.5C103.7,46.7,103.3,45.9,102.5,45.6z"/>
</svg>
