<?xml version="1.0" encoding="UTF-8" standalone="no"?>
<!-- Created with Inkscape (http://www.inkscape.org/) -->

<svg
   xmlns:dc="http://purl.org/dc/elements/1.1/"
   xmlns:cc="http://creativecommons.org/ns#"
   xmlns:rdf="http://www.w3.org/1999/02/22-rdf-syntax-ns#"
   xmlns:svg="http://www.w3.org/2000/svg"
   xmlns="http://www.w3.org/2000/svg"
   xmlns:sodipodi="http://sodipodi.sourceforge.net/DTD/sodipodi-0.dtd"
   xmlns:inkscape="http://www.inkscape.org/namespaces/inkscape"
   width="27.14625mm"
   height="27.14625mm"
   viewBox="0 0 27.14625 27.14625"
   version="1.1"
   id="svg3875"
   inkscape:version="0.92.1 r15371"
   sodipodi:docname="icon_upload_cv.svg">
  <defs
     id="defs3869" />
  <sodipodi:namedview
     id="base"
     pagecolor="#ffffff"
     bordercolor="#666666"
     borderopacity="1.0"
     inkscape:pageopacity="0.0"
     inkscape:pageshadow="2"
     inkscape:zoom="0.35"
     inkscape:cx="-2.9857065"
     inkscape:cy="202.72855"
     inkscape:document-units="mm"
     inkscape:current-layer="layer1"
     showgrid="false"
     inkscape:window-width="1366"
     inkscape:window-height="705"
     inkscape:window-x="-8"
     inkscape:window-y="-8"
     inkscape:window-maximized="1" />
  <metadata
     id="metadata3872">
    <rdf:RDF>
      <cc:Work
         rdf:about="">
        <dc:format>image/svg+xml</dc:format>
        <dc:type
           rdf:resource="http://purl.org/dc/dcmitype/StillImage" />
        <dc:title></dc:title>
      </cc:Work>
    </rdf:RDF>
  </metadata>
  <g
     inkscape:label="Calque 1"
     inkscape:groupmode="layer"
     id="layer1"
     transform="translate(-106.6233,-175.32568)">
    <circle
       id="Ellipse_41"
       data-name="Ellipse 41"
       class="cls-3"
       cx="120.19643"
       cy="188.8988"
       r="13.573125"
       style="fill:#dddfe7;stroke-width:0.26458332" />
    <path
       id="Path_1424"
       data-name="Path 1424"
       class="cls-4"
       d="m 124.78854,182.4234 h -5.07603 a 0.251355,0.251355 0 0 0 0,0.50271 h 5.07603 a 0.25108958,0.25108958 0 0 1 0.25082,0.25082 v 11.33793 a 0.25108958,0.25108958 0 0 1 -0.25082,0.25082 h -9.13183 a 0.25108958,0.25108958 0 0 1 -0.25003,-0.25082 v -6.71434 a 0.251355,0.251355 0 1 0 -0.50271,0 v 6.71434 a 0.75353333,0.75353333 0 0 0 0.75274,0.75273 h 9.13183 a 0.75353333,0.75353333 0 0 0 0.75168,-0.75273 v -11.33872 a 0.75353333,0.75353333 0 0 0 -0.75168,-0.75274 z"
       inkscape:connector-curvature="0"
       style="fill:#ffffff;stroke-width:0.26458332" />
    <path
       id="Path_1425"
       data-name="Path 1425"
       class="cls-4"
       d="m 120.22262,183.42696 a 3.3768771,3.3768771 0 0 0 -0.50985,0.0386 0.250825,0.250825 0 0 0 0.0759,0.49583 2.8696708,2.8696708 0 0 1 0.43392,-0.0328 2.8334229,2.8334229 0 0 1 2.16826,4.65905 2.5135417,2.5135417 0 0 0 -1.30969,-1.0959 1.22555,1.22555 0 0 0 0.37042,-0.87869 v -0.24447 a 1.229255,1.229255 0 1 0 -2.45851,0 v 0.24447 a 1.2252854,1.2252854 0 0 0 0.37042,0.87869 2.5135417,2.5135417 0 0 0 -1.31234,1.1004 2.82575,2.82575 0 0 1 -0.62494,-1.35599 0.25085004,0.25085004 0 0 0 -0.49477,0.0831 3.336925,3.336925 0 1 0 3.29115,-3.89229 z m -0.72654,2.94164 a 0.72760417,0.72760417 0 1 1 1.4552,0 v 0.24447 a 0.72760417,0.72760417 0 0 1 -1.4552,0 z m 0.7276,3.23003 a 2.8310417,2.8310417 0 0 1 -1.79917,-0.63923 2.0066,2.0066 0 0 1 3.59516,-0.004 2.8217812,2.8217812 0 0 1 -1.79705,0.64347 z"
       inkscape:connector-curvature="0"
       style="fill:#ffffff;stroke-width:0.26458332" />
    <path
       id="Path_1426"
       data-name="Path 1426"
       class="cls-4"
       d="m 122.53958,192.40771 h -3.56262 a 0.251355,0.251355 0 1 0 0,0.50271 h 3.56262 a 0.251355,0.251355 0 1 0 0,-0.50271 z"
       inkscape:connector-curvature="0"
       style="fill:#ffffff;stroke-width:0.26458332" />
    <path
       id="Path_1429"
       data-name="Path 1429"
       class="cls-4"
       d="m 122.53958,191.00304 h -3.56262 a 0.251355,0.251355 0 1 0 0,0.50271 h 3.56262 a 0.251355,0.251355 0 1 0 0,-0.50271 z"
       inkscape:connector-curvature="0"
       style="fill:#ffffff;stroke-width:0.26458332" />
    <path
       id="Path_1430"
       data-name="Path 1430"
       class="cls-4"
       d="m 117.85487,183.86935 a 0.25108958,0.25108958 0 0 0 -0.35481,0 l -0.81703,0.81703 -0.27914,-0.27914 a 0.25088856,0.25088856 0 0 0 -0.35481,0.35481 l 0.45668,0.45667 a 0.250825,0.250825 0 0 0 0.3548,0 l 0.99431,-0.9943 a 0.250825,0.250825 0 0 0 0,-0.35507 z"
       inkscape:connector-curvature="0"
       style="fill:#ffffff;stroke-width:0.26458332" />
    <path
       id="Path_1431"
       data-name="Path 1431"
       class="cls-4"
       d="m 116.9611,182.4234 a 2.0571354,2.0571354 0 1 0 2.05714,2.05713 2.0595167,2.0595167 0 0 0 -2.05714,-2.05713 z m 0,3.61262 a 1.5554854,1.5554854 0 1 1 1.55549,-1.55549 1.5570729,1.5570729 0 0 1 -1.55549,1.55549 z"
       inkscape:connector-curvature="0"
       style="fill:#ffffff;stroke-width:0.26458332" />
  </g>
</svg>
