<svg xmlns="http://www.w3.org/2000/svg" viewBox="0 0 137.693 137.694">
  <defs>
    <style>
      .cls-1, .cls-2 {
        fill: none;
      }

      .cls-2 {
        stroke: #fff;
        stroke-width: 3px;
      }

      .cls-3, .cls-4 {
        stroke: none;
      }

      .cls-4 {
        fill: #fff;
      }
    </style>
  </defs>
  <g id="icon_top" transform="translate(-89.881 -297.881)">
    <g id="Ellipse" class="cls-1" transform="translate(89.881 297.881)">
      <path class="cls-3" d="M68.847,0A68.847,68.847,0,1,1,0,68.847,68.847,68.847,0,0,1,68.847,0Z"/>
      <path class="cls-4" d="M 68.8468017578125 3.999984741210938 C 60.09078216552734 3.999984741210938 51.59877777099609 5.713973999023438 43.60671997070312 9.094329833984375 C 39.76513671875 10.71917724609375 36.05963134765625 12.73050689697266 32.59311676025391 15.07242584228516 C 29.15850830078125 17.392822265625 25.92863464355469 20.0577392578125 22.99317932128906 22.99317932128906 C 20.0577392578125 25.92863464355469 17.392822265625 29.15850830078125 15.07242584228516 32.59311676025391 C 12.73050689697266 36.05963134765625 10.71917724609375 39.76513671875 9.094329833984375 43.60671997070312 C 5.713973999023438 51.59877777099609 3.999984741210938 60.09078216552734 3.999984741210938 68.8468017578125 C 3.999984741210938 77.60282135009766 5.713973999023438 86.09481811523438 9.094329833984375 94.08688354492188 C 10.71917724609375 97.92845153808594 12.73050689697266 101.6339721679688 15.07242584228516 105.1004638671875 C 17.392822265625 108.5350723266602 20.0577392578125 111.7649688720703 22.99317932128906 114.7004089355469 C 25.92863464355469 117.6358642578125 29.15850830078125 120.30078125 32.59311676025391 122.6211547851562 C 36.05963134765625 124.9630737304688 39.76513671875 126.9744033813477 43.60671997070312 128.5992584228516 C 51.59877777099609 131.9796142578125 60.09078216552734 133.6935882568359 68.8468017578125 133.6935882568359 C 77.60282135009766 133.6935882568359 86.09481811523438 131.9796142578125 94.08688354492188 128.5992584228516 C 97.92845153808594 126.9744033813477 101.6339721679688 124.9630737304688 105.1004638671875 122.6211547851562 C 108.5350723266602 120.30078125 111.7649688720703 117.6358642578125 114.7004089355469 114.7004089355469 C 117.6358642578125 111.7649688720703 120.30078125 108.5350723266602 122.6211547851562 105.1004638671875 C 124.9630737304688 101.6339721679688 126.9744033813477 97.92845153808594 128.5992584228516 94.08688354492188 C 131.9796142578125 86.09481811523438 133.6935882568359 77.60282135009766 133.6935882568359 68.8468017578125 C 133.6935882568359 60.09078216552734 131.9796142578125 51.59877777099609 128.5992584228516 43.60671997070312 C 126.9744033813477 39.76513671875 124.9630737304688 36.05963134765625 122.6211547851562 32.59311676025391 C 120.30078125 29.15850830078125 117.6358642578125 25.92863464355469 114.7004089355469 22.99317932128906 C 111.7649688720703 20.0577392578125 108.5350723266602 17.392822265625 105.1004638671875 15.07242584228516 C 101.6339721679688 12.73050689697266 97.92845153808594 10.71917724609375 94.08688354492188 9.094329833984375 C 86.09481811523438 5.713973999023438 77.60282135009766 3.999984741210938 68.8468017578125 3.999984741210938 M 68.8468017578125 -1.52587890625e-05 C 106.8698425292969 -1.52587890625e-05 137.6935882568359 30.82376098632812 137.6935882568359 68.8468017578125 C 137.6935882568359 106.8698425292969 106.8698425292969 137.6935882568359 68.8468017578125 137.6935882568359 C 30.82376098632812 137.6935882568359 -1.52587890625e-05 106.8698425292969 -1.52587890625e-05 68.8468017578125 C -1.52587890625e-05 30.82376098632812 30.82376098632812 -1.52587890625e-05 68.8468017578125 -1.52587890625e-05 Z"/>
    </g>
    <path id="Path_1445" data-name="Path 1445" class="cls-2" d="M1187.471,730.674l22.471,22.181,38.586-38.539" transform="translate(-1059.567 -366.763)"/>
  </g>
</svg>
