<?xml version="1.0" encoding="utf-8"?>
<!-- Generator: Adobe Illustrator 22.1.0, SVG Export Plug-In . SVG Version: 6.00 Build 0)  -->
<svg version="1.1" xmlns="http://www.w3.org/2000/svg" xmlns:xlink="http://www.w3.org/1999/xlink" x="0px" y="0px"
	 viewBox="0 0 240.2 201.7" style="enable-background:new 0 0 240.2 201.7;" xml:space="preserve">
<style type="text/css">
	.st0{display:none;}
	.st1{display:inline;fill:#969696;}
	.st2{fill:#FFFFFF;}
</style>
<g id="fond" class="st0">
	<rect x="-16.8" y="-35.8" class="st1" width="280.5" height="269"/>
</g>
<g id="Calque_1">
	<path class="st2" d="M9.1,110.9c10.4-15.6,19.8-29.8,29.9-45c10,15,19.5,29.4,29.9,44.9c-8,0-14.7,0-21.8,0
		c1.4,15,6.4,27.6,15.2,38.6c27.5,34.4,74.3,36.2,104,12.9c0.8-0.6,1.6-1.2,2.4-1.8c4.4-3.3,8.6-3.2,11.5,0.2c3,3.5,2.4,7.6-2,11.3
		c-17.2,14.4-37.2,21.5-59.5,20.6c-45.7-1.9-79-32.2-86.3-77.9c-0.5-2.9-1.5-4-4.4-3.9C22.3,111,16.6,110.9,9.1,110.9z"/>
	<path class="st2" d="M173.5,95.6c8,0,14.6,0,22.6,0c-2.3-7.9-3.7-15-6.4-21.6c-18.8-45.2-76.7-59.8-115-29.2
		c-2.3,1.9-6.2,3.5-8.8,2.9c-6.4-1.4-7.3-8.4-1.9-13.2c9.8-8.6,21.3-14.2,33.8-17.7C141.1,4.4,189,29,204.7,71.5
		c2.2,6,3.7,12.4,4.8,18.8c0.7,4.2,2.3,5.5,6.4,5.2c5.2-0.4,10.5-0.1,17.3-0.1c-10.3,15.5-19.8,29.9-29.9,45
		C193.4,125.6,183.9,111.2,173.5,95.6z"/>
</g>
</svg>
