<svg xmlns="http://www.w3.org/2000/svg" width="44.413" height="53.631" viewBox="0 0 44.413 53.631">
  <g id="icon_cv" transform="translate(0)">
    <g id="Group_1643" data-name="Group 1643" transform="translate(0 17.493)">
      <g id="Group_1642" data-name="Group 1642">
        <path id="Path_1423" data-name="Path 1423" d="M45.788,167.307a1.047,1.047,0,1,0,.307.741A1.055,1.055,0,0,0,45.788,167.307Z" transform="translate(-44 -167)" fill="#fff"/>
      </g>
    </g>
    <g id="Group_1645" data-name="Group 1645" transform="translate(0)">
      <g id="Group_1644" data-name="Group 1644">
        <path id="Path_1424" data-name="Path 1424" d="M85.271,0H64.077a1.047,1.047,0,1,0,0,2.095H85.271a1.049,1.049,0,0,1,1.048,1.047V50.488a1.049,1.049,0,0,1-1.048,1.047H47.142a1.049,1.049,0,0,1-1.047-1.047V22.451a1.047,1.047,0,0,0-2.095,0V50.488a3.146,3.146,0,0,0,3.142,3.142H85.271a3.146,3.146,0,0,0,3.142-3.142V3.142A3.146,3.146,0,0,0,85.271,0Z" transform="translate(-44)" fill="#fff"/>
      </g>
    </g>
    <g id="Group_1647" data-name="Group 1647" transform="translate(8.453 4.19)">
      <g id="Group_1646" data-name="Group 1646">
        <path id="Path_1425" data-name="Path 1425" d="M138.45,40a14.1,14.1,0,0,0-2.129.162,1.047,1.047,0,0,0,.318,2.071,11.984,11.984,0,0,1,1.811-.138A11.83,11.83,0,0,1,147.5,61.548a10.495,10.495,0,0,0-5.468-4.576,5.117,5.117,0,0,0,1.548-3.668V52.282a5.133,5.133,0,1,0-10.265,0V53.3a5.116,5.116,0,0,0,1.548,3.668,10.5,10.5,0,0,0-5.479,4.595,11.8,11.8,0,0,1-2.609-5.662,1.047,1.047,0,0,0-2.066.347A13.932,13.932,0,1,0,138.45,40Zm-3.038,12.282a3.038,3.038,0,1,1,6.075,0V53.3a3.038,3.038,0,1,1-6.075,0Zm3.038,13.486a11.823,11.823,0,0,1-7.51-2.669,8.378,8.378,0,0,1,15.011-.018A11.782,11.782,0,0,1,138.45,65.768Z" transform="translate(-124.696 -40)" fill="#fff"/>
      </g>
    </g>
    <g id="Group_1649" data-name="Group 1649" transform="translate(15.959 41.69)">
      <g id="Group_1648" data-name="Group 1648">
        <path id="Path_1426" data-name="Path 1426" d="M212.279,398H197.4a1.047,1.047,0,1,0,0,2.095h14.874a1.047,1.047,0,0,0,0-2.095Z" transform="translate(-196.357 -398.002)" fill="#fff"/>
      </g>
    </g>
    <g id="Group_1651" data-name="Group 1651" transform="translate(11.485 35.824)">
      <g id="Group_1650" data-name="Group 1650">
        <path id="Path_1427" data-name="Path 1427" d="M155.428,342.307a1.047,1.047,0,1,0,.307.74A1.055,1.055,0,0,0,155.428,342.307Z" transform="translate(-153.64 -342)" fill="#fff"/>
      </g>
    </g>
    <g id="Group_1653" data-name="Group 1653" transform="translate(11.485 41.69)">
      <g id="Group_1652" data-name="Group 1652">
        <path id="Path_1428" data-name="Path 1428" d="M155.428,398.307a1.047,1.047,0,1,0,.307.741A1.053,1.053,0,0,0,155.428,398.307Z" transform="translate(-153.64 -398)" fill="#fff"/>
      </g>
    </g>
    <g id="Group_1655" data-name="Group 1655" transform="translate(15.959 35.824)">
      <g id="Group_1654" data-name="Group 1654">
        <path id="Path_1429" data-name="Path 1429" d="M212.279,342H197.4a1.047,1.047,0,1,0,0,2.095h14.874a1.047,1.047,0,0,0,0-2.095Z" transform="translate(-196.357 -342.002)" fill="#fff"/>
      </g>
    </g>
    <g id="Group_1657" data-name="Group 1657" transform="translate(4.474 5.73)">
      <g id="Group_1656" data-name="Group 1656">
        <path id="Path_1430" data-name="Path 1430" d="M94.563,55.008a1.048,1.048,0,0,0-1.481,0L89.67,58.419,88.5,57.253a1.048,1.048,0,0,0-1.481,1.481l1.906,1.906a1.048,1.048,0,0,0,1.481,0l4.152-4.152A1.048,1.048,0,0,0,94.563,55.008Z" transform="translate(-86.716 -54.701)" fill="#fff"/>
      </g>
    </g>
    <g id="Group_1659" data-name="Group 1659" transform="translate(0)">
      <g id="Group_1658" data-name="Group 1658">
        <path id="Path_1431" data-name="Path 1431" d="M52.589,0a8.589,8.589,0,1,0,8.589,8.589A8.6,8.6,0,0,0,52.589,0Zm0,15.084a6.494,6.494,0,1,1,6.494-6.494A6.5,6.5,0,0,1,52.589,15.084Z" transform="translate(-44)" fill="#fff"/>
      </g>
    </g>
  </g>
</svg>
