<svg xmlns="http://www.w3.org/2000/svg" width="66.146" height="66.146" viewBox="0 0 66.146 66.146">
  <g id="info" transform="translate(0.5 0.5)">
    <g id="Group_1450" data-name="Group 1450" transform="translate(0 0)">
      <g id="Group_1449" data-name="Group 1449">
        <path id="Path_1386" data-name="Path 1386" d="M55.606,9.54A32.573,32.573,0,0,0,9.54,55.606,32.573,32.573,0,0,0,55.606,9.54Zm-23.033,53.1A30.068,30.068,0,1,1,62.641,32.573,30.1,30.1,0,0,1,32.573,62.641Z" transform="translate(0 0)" fill="#36CCB5" stroke="#44b6d3" stroke-width="1"/>
      </g>
    </g>
    <g id="Group_1452" data-name="Group 1452" transform="translate(6.264 6.264)">
      <g id="Group_1451" data-name="Group 1451">
        <path id="Path_1387" data-name="Path 1387" d="M75.54,49.231A26.309,26.309,0,1,0,101.849,75.54,26.339,26.339,0,0,0,75.54,49.231Zm0,50.113a23.8,23.8,0,1,1,23.8-23.8A23.83,23.83,0,0,1,75.54,99.344Z" transform="translate(-49.231 -49.231)" fill="#36CCB5" stroke="#43b6d2" stroke-width="1"/>
      </g>
    </g>
    <g id="Group_1454" data-name="Group 1454" transform="translate(26.309 13.155)">
      <g id="Group_1453" data-name="Group 1453">
        <path id="Path_1388" data-name="Path 1388" d="M211.78,103.385a5.011,5.011,0,1,0,5.011,5.011A5.017,5.017,0,0,0,211.78,103.385Zm0,7.517a2.506,2.506,0,1,1,2.506-2.506A2.508,2.508,0,0,1,211.78,110.9Z" transform="translate(-206.769 -103.385)" fill="#36CCB5"/>
      </g>
    </g>
    <g id="Group_1456" data-name="Group 1456" transform="translate(36.332 34.452)">
      <g id="Group_1455" data-name="Group 1455">
        <path id="Path_1389" data-name="Path 1389" d="M287.677,271.136a1.252,1.252,0,1,0,.367.886A1.262,1.262,0,0,0,287.677,271.136Z" transform="translate(-285.539 -270.769)" fill="#36CCB5"/>
      </g>
    </g>
    <g id="Group_1458" data-name="Group 1458" transform="translate(22.551 24.43)">
      <g id="Group_1457" data-name="Group 1457">
        <path id="Path_1390" data-name="Path 1390" d="M193.518,212.051v-5.017a1.253,1.253,0,1,0-2.506,0V213.3a1.253,1.253,0,0,0,1.253,1.253h1.044a1.463,1.463,0,0,1,1.462,1.462,1.045,1.045,0,0,1-1.044,1.044H186.67a1.923,1.923,0,0,1-1.921-1.921V198.264a1.253,1.253,0,0,0-1.253-1.253h-2.3a1.463,1.463,0,0,1-1.462-1.462,1.045,1.045,0,0,1,1.044-1.044h8.31a1.923,1.923,0,0,1,1.921,1.921v3.09a1.253,1.253,0,0,0,2.506,0v-3.09A4.432,4.432,0,0,0,189.092,192h-8.31a3.554,3.554,0,0,0-3.55,3.55,3.972,3.972,0,0,0,3.967,3.967h1.044v15.618a4.432,4.432,0,0,0,4.427,4.427h7.058a3.554,3.554,0,0,0,3.55-3.55A3.973,3.973,0,0,0,193.518,212.051Z" transform="translate(-177.232 -192)" fill="#36CCB5"/>
      </g>
    </g>
  </g>
</svg>
