<svg xmlns="http://www.w3.org/2000/svg" width="76.114" height="55.775" viewBox="0 0 76.114 55.775">
  <g id="Group_4310" data-name="Group 4310" transform="translate(-552.179 -913)">
    <path id="messages-icon" d="M22.281.5C34.24.5,44.063,8.615,44.063,18.651a16.7,16.7,0,0,1-5.552,12.172l1.708,6.62-8.542-2.349a26.281,26.281,0,0,1-9.4,1.708C10.323,36.8.5,28.687.5,18.651S10.109.5,22.281.5Z" transform="translate(583.23 930.333)" fill="none" stroke="#36CCB5" stroke-linecap="round" stroke-linejoin="round" stroke-miterlimit="10" stroke-width="2"/>
    <path id="messages-icon-2" data-name="messages-icon" d="M26.153.5C12.069.5.5,10.057.5,21.878A19.667,19.667,0,0,0,7.039,36.213l-2.012,7.8,10.06-2.767a30.953,30.953,0,0,0,11.066,2.012c14.084,0,25.653-9.557,25.653-21.378S40.489.5,26.153.5Z" transform="translate(552.678 913.5)" fill="none" stroke="#36CCB5" stroke-linecap="round" stroke-linejoin="round" stroke-miterlimit="10" stroke-width="2"/>
  </g>
</svg>
