<svg xmlns="http://www.w3.org/2000/svg" width="65" height="66.117" viewBox="0 0 65 66.117">
  <g id="route" transform="translate(-0.507 0)">
    <path id="Path_1343" data-name="Path 1343" d="M23.113,29.382A12.476,12.476,0,0,0,13.715,25a12.472,12.472,0,0,0-9.4,4.382,16.129,16.129,0,0,0,0,20.826l9.4,10.615,9.4-10.615A16.128,16.128,0,0,0,23.113,29.382ZM21.462,48.747,13.716,57.5,5.969,48.747a13.863,13.863,0,0,1,0-17.9,10.3,10.3,0,0,1,7.746-3.64,10.3,10.3,0,0,1,7.746,3.64A13.864,13.864,0,0,1,21.462,48.747Z" transform="translate(0 2.549)" fill="#fff"/>
    <path id="Path_1344" data-name="Path 1344" d="M49.672,27.006,56.8,18.977a12.109,12.109,0,0,0,0-15.665,9.318,9.318,0,0,0-14.247,0,12.109,12.109,0,0,0,0,15.665ZM44.2,4.775a7.115,7.115,0,0,1,10.95,0,9.847,9.847,0,0,1,0,12.739l-5.475,6.172L44.2,17.513A9.847,9.847,0,0,1,44.2,4.775Z" transform="translate(3.993)" fill="#fff"/>
    <path id="Path_1345" data-name="Path 1345" d="M52.815,54.52a1.1,1.1,0,0,0-1.317.833,3.823,3.823,0,0,1-.731,1.534A1.1,1.1,0,1,0,52.5,58.249a6.072,6.072,0,0,0,1.148-2.411A1.1,1.1,0,0,0,52.815,54.52Z" transform="translate(5.1 5.556)" fill="#fff"/>
    <path id="Path_1346" data-name="Path 1346" d="M32.261,31.03a3.876,3.876,0,0,1-1.38-.253,1.1,1.1,0,0,0-.786,2.06,6.084,6.084,0,0,0,2.163.4h.393a1.1,1.1,0,1,0,0-2.2Z" transform="translate(2.944 3.131)" fill="#fff"/>
    <path id="Path_1347" data-name="Path 1347" d="M29.723,24.946a1.1,1.1,0,0,0,.582-.166,3.8,3.8,0,0,1,1.6-.554,1.1,1.1,0,1,0-.241-2.192,5.976,5.976,0,0,0-2.528.875,1.1,1.1,0,0,0,.585,2.038Z" transform="translate(2.866 2.246)" fill="#fff"/>
    <path id="Path_1348" data-name="Path 1348" d="M18.37,58h-2.2a1.1,1.1,0,1,0,0,2.2h2.2a1.1,1.1,0,1,0,0-2.2Z" transform="translate(1.484 5.913)" fill="#fff"/>
    <path id="Path_1349" data-name="Path 1349" d="M36.117,40c-.095,0-.188,0-.282.007a1.1,1.1,0,0,0,.044,2.2h.046l2.159,0a1.1,1.1,0,0,0,0-2.2Z" transform="translate(3.494 4.078)" fill="#fff"/>
    <path id="Path_1350" data-name="Path 1350" d="M35.595,24.2h2.2a1.1,1.1,0,0,0,0-2.2h-2.2a1.1,1.1,0,0,0,0,2.2Z" transform="translate(3.465 2.243)" fill="#fff"/>
    <path id="Path_1351" data-name="Path 1351" d="M47.88,40a1.1,1.1,0,1,0,0,2.2h2.2a1.1,1.1,0,0,0,0-2.2Z" transform="translate(4.718 4.078)" fill="#fff"/>
    <path id="Path_1352" data-name="Path 1352" d="M51.759,32.1a1.1,1.1,0,0,0-1.1-1.1h-2.2a1.1,1.1,0,0,0,0,2.2h2.2A1.1,1.1,0,0,0,51.759,32.1Z" transform="translate(4.776 3.161)" fill="#fff"/>
    <path id="Path_1353" data-name="Path 1353" d="M41.88,42.2h2.2a1.1,1.1,0,0,0,0-2.2h-2.2a1.1,1.1,0,1,0,0,2.2Z" transform="translate(4.106 4.078)" fill="#fff"/>
    <path id="Path_1354" data-name="Path 1354" d="M43.8,24.2a1.1,1.1,0,0,0,0-2.2h-2.2a1.1,1.1,0,0,0,0,2.2Z" transform="translate(4.077 2.243)" fill="#fff"/>
    <path id="Path_1355" data-name="Path 1355" d="M36.453,31a1.1,1.1,0,0,0,0,2.2h2.2a1.1,1.1,0,0,0,0-2.2Z" transform="translate(3.553 3.161)" fill="#fff"/>
    <path id="Path_1356" data-name="Path 1356" d="M45.759,32.1a1.1,1.1,0,0,0-1.1-1.1h-2.2a1.1,1.1,0,0,0,0,2.2h2.2A1.1,1.1,0,0,0,45.759,32.1Z" transform="translate(4.164 3.161)" fill="#fff"/>
    <path id="Path_1357" data-name="Path 1357" d="M59.642,35.718a1.1,1.1,0,0,0-2.176.349,3.631,3.631,0,0,1,.046.608,3.859,3.859,0,0,1-.156,1.089,1.1,1.1,0,0,0,.748,1.368,1.118,1.118,0,0,0,.31.044,1.1,1.1,0,0,0,1.058-.792,6.071,6.071,0,0,0,.245-1.7A5.859,5.859,0,0,0,59.642,35.718Z" transform="translate(5.791 3.547)" fill="#fff"/>
    <path id="Path_1358" data-name="Path 1358" d="M42.37,58h-2.2a1.1,1.1,0,1,0,0,2.2h2.2a1.1,1.1,0,1,0,0-2.2Z" transform="translate(3.931 5.913)" fill="#fff"/>
    <path id="Path_1359" data-name="Path 1359" d="M36.37,58h-2.2a1.1,1.1,0,0,0,0,2.2h2.2a1.1,1.1,0,1,0,0-2.2Z" transform="translate(3.319 5.913)" fill="#fff"/>
    <path id="Path_1360" data-name="Path 1360" d="M47.473,50.1a1.1,1.1,0,0,0-1.1-1.1h-2.2a1.1,1.1,0,0,0,0,2.2h2.2A1.1,1.1,0,0,0,47.473,50.1Z" transform="translate(4.339 4.996)" fill="#fff"/>
    <path id="Path_1361" data-name="Path 1361" d="M41.473,50.1a1.1,1.1,0,0,0-1.1-1.1h-2.2a1.1,1.1,0,0,0,0,2.2h2.2A1.1,1.1,0,0,0,41.473,50.1Z" transform="translate(3.727 4.996)" fill="#fff"/>
    <path id="Path_1362" data-name="Path 1362" d="M48.292,58H46.165a1.1,1.1,0,1,0,0,2.2h2.172l.032-1.1v1.1a1.069,1.069,0,0,0,1.063-1.1A1.134,1.134,0,0,0,48.292,58Z" transform="translate(4.543 5.913)" fill="#fff"/>
    <path id="Path_1363" data-name="Path 1363" d="M51.79,53.05a1.1,1.1,0,0,0,.865-1.783,6.109,6.109,0,0,0-2.071-1.684,1.1,1.1,0,1,0-.982,1.974,3.866,3.866,0,0,1,1.319,1.073A1.1,1.1,0,0,0,51.79,53.05Z" transform="translate(4.943 5.044)" fill="#fff"/>
    <path id="Path_1364" data-name="Path 1364" d="M55.607,39.737a3.826,3.826,0,0,1-1.49.3H53.88a1.1,1.1,0,1,0,0,2.2h.237a6.017,6.017,0,0,0,2.342-.471,1.1,1.1,0,0,0-.852-2.032Z" transform="translate(5.329 4.043)" fill="#fff"/>
    <path id="Path_1365" data-name="Path 1365" d="M28.186,30.255a1.1,1.1,0,0,0,.7-1.392,3.85,3.85,0,0,1-.192-1.2,4.321,4.321,0,0,1,.031-.495,1.1,1.1,0,0,0-2.186-.275,6.416,6.416,0,0,0-.048.765,6.066,6.066,0,0,0,.3,1.893,1.1,1.1,0,0,0,1.047.758A1.07,1.07,0,0,0,28.186,30.255Z" transform="translate(2.649 2.644)" fill="#fff"/>
    <path id="Path_1366" data-name="Path 1366" d="M24.37,58h-2.2a1.1,1.1,0,1,0,0,2.2h2.2a1.1,1.1,0,1,0,0-2.2Z" transform="translate(2.096 5.913)" fill="#fff"/>
    <path id="Path_1367" data-name="Path 1367" d="M34.385,50.92a1.1,1.1,0,0,0,.46-2.1,3.9,3.9,0,0,1-1.353-1.031A1.1,1.1,0,1,0,31.8,49.2a6.1,6.1,0,0,0,2.123,1.617A1.109,1.109,0,0,0,34.385,50.92Z" transform="translate(3.165 4.832)" fill="#fff"/>
    <path id="Path_1368" data-name="Path 1368" d="M57.092,31.812a5.993,5.993,0,0,0-2.553-.8,1.1,1.1,0,0,0-.172,2.2,3.794,3.794,0,0,1,1.62.5,1.1,1.1,0,1,0,1.105-1.906Z" transform="translate(5.388 3.162)" fill="#fff"/>
    <path id="Path_1369" data-name="Path 1369" d="M30.37,58h-2.2a1.1,1.1,0,1,0,0,2.2h2.2a1.1,1.1,0,1,0,0-2.2Z" transform="translate(2.708 5.913)" fill="#fff"/>
    <path id="Path_1370" data-name="Path 1370" d="M32.757,45.145a3.828,3.828,0,0,1,.682-1.557,1.1,1.1,0,1,0-1.775-1.306,6.039,6.039,0,0,0-1.072,2.449,1.1,1.1,0,0,0,.875,1.29,1.1,1.1,0,0,0,1.29-.876Z" transform="translate(3.065 4.265)" fill="#fff"/>
    <path id="Path_1371" data-name="Path 1371" d="M49.554,16.122a6.061,6.061,0,1,0-6.061-6.061A6.069,6.069,0,0,0,49.554,16.122Zm0-9.918A3.857,3.857,0,1,1,45.7,10.061,3.861,3.861,0,0,1,49.554,6.2Z" transform="translate(4.383 0.408)" fill="#fff"/>
    <path id="Path_1372" data-name="Path 1372" d="M13.1,31a6.612,6.612,0,1,0,6.612,6.612A6.618,6.618,0,0,0,13.1,31Zm0,11.02a4.408,4.408,0,1,1,4.408-4.408A4.412,4.412,0,0,1,13.1,42.02Z" transform="translate(0.61 3.161)" fill="#fff"/>
  </g>
</svg>
