<svg id="Group_1991" data-name="Group 1991" xmlns="http://www.w3.org/2000/svg" width="39.795" height="39.795" viewBox="0 0 39.795 39.795">
  <g id="Icon" transform="translate(0)">
    <g id="Icon.BG" fill="#fff">
      <path d="M 19.8974609375 39.294921875 C 17.27860069274902 39.294921875 14.73834133148193 38.78211975097656 12.34725093841553 37.77078247070312 C 10.03747081756592 36.79383087158203 7.9629807472229 35.3951301574707 6.181390762329102 33.61354064941406 C 4.399800777435303 31.83195114135742 3.001101016998291 29.75745010375977 2.02414083480835 27.44768142700195 C 1.012800931930542 25.05658149719238 0.5000009536743164 22.51632118225098 0.5000009536743164 19.8974609375 C 0.5000009536743164 17.27860069274902 1.012800931930542 14.73834133148193 2.02414083480835 12.34725093841553 C 3.001101016998291 10.03747081756592 4.399800777435303 7.9629807472229 6.181390762329102 6.181390762329102 C 7.9629807472229 4.399800777435303 10.03747081756592 3.001101016998291 12.34725093841553 2.02414083480835 C 14.73834133148193 1.012800931930542 17.27860069274902 0.5000009536743164 19.8974609375 0.5000009536743164 C 22.51632118225098 0.5000009536743164 25.05658149719238 1.012800931930542 27.44768142700195 2.02414083480835 C 29.75745010375977 3.001101016998291 31.83195114135742 4.399800777435303 33.61354064941406 6.181390762329102 C 35.3951301574707 7.9629807472229 36.79383087158203 10.03747081756592 37.77078247070312 12.34725093841553 C 38.78211975097656 14.73834133148193 39.294921875 17.27860069274902 39.294921875 19.8974609375 C 39.294921875 22.51632118225098 38.78211975097656 25.05658149719238 37.77078247070312 27.44768142700195 C 36.79383087158203 29.75745010375977 35.3951301574707 31.83195114135742 33.61354064941406 33.61354064941406 C 31.83195114135742 35.3951301574707 29.75745010375977 36.79383087158203 27.44768142700195 37.77078247070312 C 25.05658149719238 38.78211975097656 22.51632118225098 39.294921875 19.8974609375 39.294921875 Z" stroke="none"/>
      <path d="M 19.8974609375 1 C 17.34588050842285 1 14.87115097045898 1.49951171875 12.54202079772949 2.484649658203125 C 10.29185104370117 3.436389923095703 8.270771026611328 4.799110412597656 6.534942626953125 6.534942626953125 C 4.799110412597656 8.270771026611328 3.436389923095703 10.29185104370117 2.484649658203125 12.54202079772949 C 1.49951171875 14.87115097045898 1 17.34588050842285 1 19.8974609375 C 1 22.44904136657715 1.49951171875 24.92377090454102 2.484649658203125 27.25290107727051 C 3.436389923095703 29.50307083129883 4.799110412597656 31.52415084838867 6.534942626953125 33.25997924804688 C 8.270771026611328 34.99581146240234 10.29185104370117 36.3585319519043 12.54202079772949 37.31027221679688 C 14.87115097045898 38.29541015625 17.34588050842285 38.794921875 19.8974609375 38.794921875 C 22.44904136657715 38.794921875 24.92377090454102 38.29541015625 27.25290107727051 37.31027221679688 C 29.50307083129883 36.3585319519043 31.52415084838867 34.99581146240234 33.25997924804688 33.25997924804688 C 34.99581146240234 31.52415084838867 36.3585319519043 29.50307083129883 37.31027221679688 27.25290107727051 C 38.29541015625 24.92377090454102 38.794921875 22.44904136657715 38.794921875 19.8974609375 C 38.794921875 17.34588050842285 38.29541015625 14.87115097045898 37.31027221679688 12.54202079772949 C 36.3585319519043 10.29185104370117 34.99581146240234 8.270771026611328 33.25997924804688 6.534942626953125 C 31.52415084838867 4.799110412597656 29.50307083129883 3.436389923095703 27.25290107727051 2.484649658203125 C 24.92377090454102 1.49951171875 22.44904136657715 1 19.8974609375 1 M 19.8974609375 0 C 30.88652038574219 0 39.794921875 8.908401489257812 39.794921875 19.8974609375 C 39.794921875 30.88652038574219 30.88652038574219 39.794921875 19.8974609375 39.794921875 C 8.908401489257812 39.794921875 0 30.88652038574219 0 19.8974609375 C 0 8.908401489257812 8.908401489257812 0 19.8974609375 0 Z" stroke="none" fill="#36ccb5"/>
    </g>
  </g>
  <g id="Group_3474" data-name="Group 3474" transform="translate(8.827 11.528)">
    <g id="Group_3473" data-name="Group 3473" transform="translate(0 0)">
      <path id="Path_1746" data-name="Path 1746" d="M23.306,5.429a.6.6,0,0,0-.461-.218H20.6a7.646,7.646,0,0,0-2.1-3.431c-2.84-1.866-10.363-1.866-13.2,0a7.646,7.646,0,0,0-2.1,3.431H.968a.583.583,0,0,0-.455.218.552.552,0,0,0-.124.49L.72,7.531A.593.593,0,0,0,1.3,8h.667a3.977,3.977,0,0,0-.957,2.6,3.876,3.876,0,0,0,1.234,2.929.081.081,0,0,1,.024.018v2.256a.885.885,0,0,0,.886.886H5.226a.885.885,0,0,0,.886-.886v-.9h11.6v.9a.885.885,0,0,0,.886.886h2.073a.885.885,0,0,0,.886-.886V13.6A4.051,4.051,0,0,0,21.806,8h.709a.593.593,0,0,0,.579-.472l.331-1.612A.579.579,0,0,0,23.306,5.429ZM6.277,3.256c2.262-1.488,8.993-1.488,11.254,0a7.356,7.356,0,0,1,1.523,2.882H4.759A7.29,7.29,0,0,1,6.277,3.256ZM3.631,10.831a1.742,1.742,0,1,1,1.742,1.742A1.741,1.741,0,0,1,3.631,10.831Zm14.833,1.742a1.742,1.742,0,1,1,1.742-1.742A1.741,1.741,0,0,1,18.464,12.573Z" transform="translate(-0.375 -0.38)" fill="none" stroke="#36ccb5" stroke-miterlimit="10" stroke-width="0.75"/>
    </g>
  </g>
</svg>
