<svg id="Group_2339" data-name="Group 2339" xmlns="http://www.w3.org/2000/svg" width="39.511" height="39.511" viewBox="0 0 39.511 39.511">
  <g id="Icon" transform="translate(0)">
    <g id="Icon.BG" fill="#fff" stroke="#36ccb5" stroke-width="1">
      <circle cx="19.755" cy="19.755" r="19.755" stroke="none"/>
      <circle cx="19.755" cy="19.755" r="19.255" fill="none"/>
    </g>
  </g>
  <g id="China" transform="translate(12.477 11.437)">
    <path id="Path_249" data-name="Path 249" d="M8.278,0A7.234,7.234,0,0,0,1,7.278a6.989,6.989,0,0,0,2.183,5.2c.1.1,4.263,3.847,4.367,3.951a1.091,1.091,0,0,0,1.352,0c.1-.1,4.367-3.847,4.367-3.951a6.989,6.989,0,0,0,2.183-5.2A7.083,7.083,0,0,0,8.278,0Zm0,9.358a2.08,2.08,0,1,1,2.08-2.08A2.086,2.086,0,0,1,8.278,9.358Z" transform="translate(-1)" fill="#36ccb5"/>
  </g>
</svg>
