<svg xmlns="http://www.w3.org/2000/svg" width="49.217" height="49.217" viewBox="0 0 49.217 49.217">
  <g id="Group_3999" data-name="Group 3999" transform="translate(-1515 -453)">
    <g id="Icon.BG" transform="translate(1515 453)" fill="#fff">
      <path d="M 24.60831642150879 48.71663665771484 C 21.35349655151367 48.71663665771484 18.19629669189453 48.07928466796875 15.22442626953125 46.82228469848633 C 12.35368633270264 45.60806655883789 9.775386810302734 43.86969757080078 7.561156272888184 41.65547561645508 C 5.346936225891113 39.44124603271484 3.608566522598267 36.86294555664062 2.394346475601196 33.99220657348633 C 1.137346386909485 31.02033615112305 0.4999964237213135 27.86313629150391 0.4999964237213135 24.60831642150879 C 0.4999964237213135 21.35349655151367 1.137346386909485 18.19629669189453 2.394346475601196 15.22442626953125 C 3.608566522598267 12.35368633270264 5.346936225891113 9.775386810302734 7.561156272888184 7.561156272888184 C 9.775386810302734 5.346936225891113 12.35368633270264 3.608566522598267 15.22442626953125 2.394346475601196 C 18.19629669189453 1.137346386909485 21.35349655151367 0.4999964237213135 24.60831642150879 0.4999964237213135 C 27.86313629150391 0.4999964237213135 31.02033615112305 1.137346386909485 33.99220657348633 2.394346475601196 C 36.86294555664062 3.608566522598267 39.44124603271484 5.346936225891113 41.65547561645508 7.561156272888184 C 43.86969757080078 9.775386810302734 45.60806655883789 12.35368633270264 46.82228469848633 15.22442626953125 C 48.07928466796875 18.19629669189453 48.71663665771484 21.35349655151367 48.71663665771484 24.60831642150879 C 48.71663665771484 27.86313629150391 48.07928466796875 31.02033615112305 46.82228469848633 33.99220657348633 C 45.60806655883789 36.86294555664062 43.86969757080078 39.44124603271484 41.65547561645508 41.65547561645508 C 39.44124603271484 43.86969757080078 36.86294555664062 45.60806655883789 33.99220657348633 46.82228469848633 C 31.02033615112305 48.07928466796875 27.86313629150391 48.71663665771484 24.60831642150879 48.71663665771484 Z" stroke="none"/>
      <path d="M 24.60831642150879 0.9999961853027344 C 21.4207763671875 0.9999961853027344 18.3291072845459 1.624057769775391 15.41919708251953 2.854846954345703 C 12.60805511474609 4.043857574462891 10.08318710327148 5.746246337890625 7.914714813232422 7.914714813232422 C 5.746246337890625 10.08318710327148 4.043857574462891 12.60805511474609 2.854846954345703 15.41919708251953 C 1.624057769775391 18.3291072845459 0.9999961853027344 21.4207763671875 0.9999961853027344 24.60831642150879 C 0.9999961853027344 27.79585647583008 1.624057769775391 30.88752555847168 2.854846954345703 33.79742431640625 C 4.043857574462891 36.60857772827148 5.746246337890625 39.13344573974609 7.914714813232422 41.30191802978516 C 10.08318710327148 43.47038650512695 12.60805511474609 45.17277526855469 15.41919708251953 46.36178588867188 C 18.3291072845459 47.59257507324219 21.4207763671875 48.21663665771484 24.60831642150879 48.21663665771484 C 27.79585647583008 48.21663665771484 30.88751602172852 47.59257507324219 33.79742431640625 46.36178588867188 C 36.60856628417969 45.17277526855469 39.13344573974609 43.47038650512695 41.30191802978516 41.30191802978516 C 43.47038650512695 39.13344573974609 45.17277526855469 36.60856628417969 46.36178588867188 33.79742431640625 C 47.59257507324219 30.88751602172852 48.21663665771484 27.79585647583008 48.21663665771484 24.60831642150879 C 48.21663665771484 21.4207763671875 47.59257507324219 18.3291072845459 46.36178588867188 15.41919708251953 C 45.17277526855469 12.60805511474609 43.47038650512695 10.08318710327148 41.30191802978516 7.914714813232422 C 39.13344573974609 5.746246337890625 36.60857772827148 4.043857574462891 33.79742431640625 2.854846954345703 C 30.88752555847168 1.624057769775391 27.79585647583008 0.9999961853027344 24.60831642150879 0.9999961853027344 M 24.60831642150879 -3.814697265625e-06 C 38.19910430908203 -3.814697265625e-06 49.21663665771484 11.01751708984375 49.21663665771484 24.60831642150879 C 49.21663665771484 38.19910430908203 38.19910430908203 49.21663665771484 24.60831642150879 49.21663665771484 C 11.01751708984375 49.21663665771484 -3.814697265625e-06 38.19910430908203 -3.814697265625e-06 24.60831642150879 C -3.814697265625e-06 11.01751708984375 11.01751708984375 -3.814697265625e-06 24.60831642150879 -3.814697265625e-06 Z" stroke="none" fill="#36ccb5"/>
    </g>
    <g id="calendar" transform="translate(1526.922 463.931)">
      <path id="Path_1466" data-name="Path 1466" d="M26.6,1.789H23.47V.447A.447.447,0,0,0,23.023,0H19.892a.447.447,0,0,0-.447.447V1.789H9.6V.447A.447.447,0,0,0,9.157,0H6.026a.447.447,0,0,0-.447.447V1.789H2.447A.447.447,0,0,0,2,2.236V26.39a.447.447,0,0,0,.447.447H26.6a.447.447,0,0,0,.447-.447V2.236A.447.447,0,0,0,26.6,1.789ZM20.339.895h2.236V3.578H20.339V.895ZM6.473.895H8.709V3.578H6.473V.895ZM2.895,2.684H5.578V4.026a.447.447,0,0,0,.447.447H9.157A.447.447,0,0,0,9.6,4.026V2.684h9.84V4.026a.447.447,0,0,0,.447.447h3.131a.447.447,0,0,0,.447-.447V2.684h2.684V6.709H2.895Zm0,23.259V7.6H26.154V25.943Z" transform="translate(-2)" fill="#36ccb5"/>
      <path id="Path_1467" data-name="Path 1467" d="M23.077,23H11V35.972H28V23h-4.92Zm-3.131.895h3.131v3.131H19.946Zm3.131,7.157H19.946V27.92h3.131ZM15.92,27.92h3.131v3.131H15.92Zm0-4.026h3.131v3.131H15.92Zm-4.026,0h3.131v3.131H11.895Zm0,4.026h3.131v3.131H11.895Zm3.131,7.157H11.895V31.946h3.131Zm4.026,0H15.92V31.946h3.131Zm4.026,0H19.946V31.946h3.131Zm4.026,0H23.972V31.946H27.1Zm0-4.026H23.972V27.92H27.1Zm0-7.157v3.131H23.972V23.895Z" transform="translate(-6.974 -12.712)" fill="#36ccb5"/>
    </g>
  </g>
</svg>
