<svg id="icon" xmlns="http://www.w3.org/2000/svg" width="50.106" height="50.107" viewBox="0 0 50.106 50.107">
  <g id="Icon.BG" fill="#fff">
    <path d="M 25.05328559875488 49.60657501220703 C 21.73839569091797 49.60657501220703 18.52292633056641 48.95746612548828 15.49619579315186 47.67726516723633 C 12.57246589660645 46.44062423706055 9.946585655212402 44.6701774597168 7.691495418548584 42.41508483886719 C 5.436405658721924 40.15999603271484 3.665945529937744 37.53410720825195 2.429315567016602 34.61038589477539 C 1.149115562438965 31.58364486694336 0.5000056028366089 28.3681755065918 0.5000056028366089 25.05328559875488 C 0.5000056028366089 21.73839569091797 1.149115562438965 18.52292633056641 2.429315567016602 15.49619579315186 C 3.665945529937744 12.57246589660645 5.436405658721924 9.946585655212402 7.691495418548584 7.691495418548584 C 9.946585655212402 5.436405658721924 12.57246589660645 3.665945529937744 15.49619579315186 2.429315567016602 C 18.52292633056641 1.149115562438965 21.73839569091797 0.5000056028366089 25.05328559875488 0.5000056028366089 C 28.3681755065918 0.5000056028366089 31.58364486694336 1.149115562438965 34.61038589477539 2.429315567016602 C 37.53410720825195 3.665945529937744 40.15999603271484 5.436405658721924 42.41508483886719 7.691495418548584 C 44.6701774597168 9.946585655212402 46.44062423706055 12.57246589660645 47.67726516723633 15.49619579315186 C 48.95746612548828 18.52292633056641 49.60657501220703 21.73839569091797 49.60657501220703 25.05328559875488 C 49.60657501220703 28.3681755065918 48.95746612548828 31.58364486694336 47.67726516723633 34.61038589477539 C 46.44062423706055 37.53410720825195 44.6701774597168 40.15999603271484 42.41508483886719 42.41508483886719 C 40.15999603271484 44.6701774597168 37.53410720825195 46.44062423706055 34.61038589477539 47.67726516723633 C 31.58364486694336 48.95746612548828 28.3681755065918 49.60657501220703 25.05328559875488 49.60657501220703 Z" stroke="none"/>
    <path d="M 25.05328559875488 0.9999961853027344 C 21.8056755065918 0.9999961853027344 18.65573501586914 1.635826110839844 15.69096374511719 2.889816284179688 C 12.82683563232422 4.101234436035156 10.25437545776367 5.835704803466797 8.0450439453125 8.0450439453125 C 5.835704803466797 10.25437545776367 4.101234436035156 12.82683563232422 2.889816284179688 15.69096374511719 C 1.635826110839844 18.65573501586914 0.9999961853027344 21.8056755065918 0.9999961853027344 25.05328559875488 C 0.9999961853027344 28.30089569091797 1.635826110839844 31.45083618164062 2.889816284179688 34.41560363769531 C 4.101234436035156 37.27973556518555 5.835704803466797 39.85219573974609 8.0450439453125 42.0615234375 C 10.25437545776367 44.27085494995117 12.82683563232422 46.00532531738281 15.69096374511719 47.21675491333008 C 18.65573501586914 48.47073364257812 21.8056755065918 49.1065673828125 25.05328559875488 49.1065673828125 C 28.30089569091797 49.1065673828125 31.45083618164062 48.47073364257812 34.41560363769531 47.21675491333008 C 37.27973556518555 46.00532531738281 39.85219573974609 44.27085494995117 42.0615234375 42.0615234375 C 44.27085494995117 39.85219573974609 46.00532531738281 37.27973556518555 47.21675491333008 34.41560363769531 C 48.47073364257812 31.45083618164062 49.1065673828125 28.30089569091797 49.1065673828125 25.05328559875488 C 49.1065673828125 21.8056755065918 48.47073364257812 18.65573501586914 47.21675491333008 15.69096374511719 C 46.00532531738281 12.82683563232422 44.27085494995117 10.25437545776367 42.0615234375 8.0450439453125 C 39.85219573974609 5.835704803466797 37.27973556518555 4.101234436035156 34.41560363769531 2.889816284179688 C 31.45083618164062 1.635826110839844 28.30089569091797 0.9999961853027344 25.05328559875488 0.9999961853027344 M 25.05328559875488 -3.814697265625e-06 C 38.88983535766602 -3.814697265625e-06 50.1065673828125 11.21673583984375 50.1065673828125 25.05328559875488 C 50.1065673828125 38.88983535766602 38.88983535766602 50.1065673828125 25.05328559875488 50.1065673828125 C 11.21673583984375 50.1065673828125 -3.814697265625e-06 38.88983535766602 -3.814697265625e-06 25.05328559875488 C -3.814697265625e-06 11.21673583984375 11.21673583984375 -3.814697265625e-06 25.05328559875488 -3.814697265625e-06 Z" stroke="none" fill="#36ccb5"/>
  </g>
  <g id="Document-Icon" transform="translate(12.725 10.332)">
    <path id="Shape" d="M22.966,30.862H7.569a2.331,2.331,0,0,1-2.321-2.335V27.433H2.413A2.42,2.42,0,0,1,0,25.011V2.422A2.42,2.42,0,0,1,2.413,0H18.579a2.42,2.42,0,0,1,2.413,2.422V4.431l.015,0,.015,0a.281.281,0,0,1,.08-.015h1.863a2.33,2.33,0,0,1,2.32,2.335V28.527A2.33,2.33,0,0,1,22.966,30.862ZM6.2,27.433v1.094a1.363,1.363,0,0,0,1.367,1.356h15.4a1.362,1.362,0,0,0,1.366-1.356V6.744a1.362,1.362,0,0,0-1.366-1.356H21.1a.294.294,0,0,1-.08-.014l-.03-.008V25.011a2.42,2.42,0,0,1-2.413,2.422ZM2.413.98A1.452,1.452,0,0,0,.954,2.422V25.011a1.452,1.452,0,0,0,1.459,1.442H18.579a1.452,1.452,0,0,0,1.459-1.442V2.422A1.452,1.452,0,0,0,18.579.98Z" transform="translate(0 0)" fill="#36ccb5"/>
    <path id="Shape-2" data-name="Shape" d="M10.973,0H.477A.483.483,0,0,0,0,.49.483.483,0,0,0,.477.98h10.5a.483.483,0,0,0,.477-.49A.483.483,0,0,0,10.973,0Z" transform="translate(4.771 6.368)" fill="#36ccb5"/>
    <path id="Shape-3" data-name="Shape" d="M10.973,0H.477A.483.483,0,0,0,0,.49.483.483,0,0,0,.477.98h10.5a.483.483,0,0,0,.477-.49A.483.483,0,0,0,10.973,0Z" transform="translate(4.771 10.287)" fill="#36ccb5"/>
    <path id="Shape-4" data-name="Shape" d="M10.973,0H.477A.483.483,0,0,0,0,.49.483.483,0,0,0,.477.98h10.5a.483.483,0,0,0,.477-.49A.483.483,0,0,0,10.973,0Z" transform="translate(4.771 14.206)" fill="#36ccb5"/>
    <path id="Shape-5" data-name="Shape" d="M6.2,0H.477A.483.483,0,0,0,0,.49.483.483,0,0,0,.477.98H6.2A.483.483,0,0,0,6.679.49.483.483,0,0,0,6.2,0Z" transform="translate(4.771 18.125)" fill="#36ccb5"/>
  </g>
</svg>
