<svg xmlns="http://www.w3.org/2000/svg" width="50.349" height="50.349" viewBox="0 0 50.349 50.349">
  <g id="Group_1991" data-name="Group 1991" transform="translate(0 0)">
    <g id="Icon">
      <g id="Icon.BG" fill="#fff">
        <path d="M 25.17451286315918 49.84902191162109 C 21.84325218200684 49.84902191162109 18.61190223693848 49.19670104980469 15.57023239135742 47.91018295288086 C 12.63207244873047 46.66744232177734 9.993223190307617 44.88825225830078 7.72700309753418 42.62202453613281 C 5.46077299118042 40.35580444335938 3.681582927703857 37.71695327758789 2.4388427734375 34.77879333496094 C 1.152322888374329 31.73712348937988 0.5000028610229492 28.50577354431152 0.5000028610229492 25.17451286315918 C 0.5000028610229492 21.84325218200684 1.152322888374329 18.61190223693848 2.4388427734375 15.57023239135742 C 3.681582927703857 12.63207244873047 5.46077299118042 9.993223190307617 7.72700309753418 7.72700309753418 C 9.993223190307617 5.46077299118042 12.63207244873047 3.681582927703857 15.57023239135742 2.4388427734375 C 18.61190223693848 1.152322888374329 21.84325218200684 0.5000028610229492 25.17451286315918 0.5000028610229492 C 28.50577354431152 0.5000028610229492 31.73712348937988 1.152322888374329 34.77879333496094 2.4388427734375 C 37.71695327758789 3.681582927703857 40.35580444335938 5.46077299118042 42.62202453613281 7.72700309753418 C 44.88825225830078 9.993223190307617 46.66744232177734 12.63207244873047 47.91018295288086 15.57023239135742 C 49.19670104980469 18.61190223693848 49.84902191162109 21.84325218200684 49.84902191162109 25.17451286315918 C 49.84902191162109 28.50577354431152 49.19670104980469 31.73712348937988 47.91018295288086 34.77879333496094 C 46.66744232177734 37.71695327758789 44.88825225830078 40.35580444335938 42.62202453613281 42.62202453613281 C 40.35580444335938 44.88825225830078 37.71695327758789 46.66744232177734 34.77879333496094 47.91018295288086 C 31.73712348937988 49.19670104980469 28.50577354431152 49.84902191162109 25.17451286315918 49.84902191162109 Z" stroke="none"/>
        <path d="M 25.17451286315918 1.000003814697266 C 21.91053199768066 1.000003814697266 18.74472236633301 1.639034271240234 15.7650146484375 2.899341583251953 C 12.88644409179688 4.116874694824219 10.30102157592773 5.860084533691406 8.080551147460938 8.080551147460938 C 5.860084533691406 10.30102157592773 4.116874694824219 12.88644409179688 2.899341583251953 15.7650146484375 C 1.639034271240234 18.74472236633301 1.000003814697266 21.91053199768066 1.000003814697266 25.17451286315918 C 1.000003814697266 28.4384937286377 1.639034271240234 31.60430335998535 2.899341583251953 34.58401489257812 C 4.116874694824219 37.46258163452148 5.860084533691406 40.04800415039062 8.080551147460938 42.26847076416016 C 10.30102157592773 44.48894500732422 12.88644409179688 46.23215484619141 15.7650146484375 47.44968414306641 C 18.74472236633301 48.70999145507812 21.91053199768066 49.34902191162109 25.17451286315918 49.34902191162109 C 28.4384937286377 49.34902191162109 31.60430335998535 48.70999145507812 34.58401489257812 47.44968414306641 C 37.46258163452148 46.23215484619141 40.04800415039062 44.48894500732422 42.26847076416016 42.26847076416016 C 44.48894500732422 40.04800415039062 46.23215484619141 37.46258163452148 47.44968414306641 34.58401489257812 C 48.70999145507812 31.60430335998535 49.34902191162109 28.4384937286377 49.34902191162109 25.17451286315918 C 49.34902191162109 21.91053199768066 48.70999145507812 18.74472236633301 47.44968414306641 15.7650146484375 C 46.23215484619141 12.88644409179688 44.48894500732422 10.30102157592773 42.26847076416016 8.080551147460938 C 40.04800415039062 5.860084533691406 37.46258163452148 4.116874694824219 34.58401489257812 2.899341583251953 C 31.60430335998535 1.639034271240234 28.4384937286377 1.000003814697266 25.17451286315918 1.000003814697266 M 25.17451286315918 3.814697265625e-06 C 39.07801055908203 3.814697265625e-06 50.34902191162109 11.27101135253906 50.34902191162109 25.17451286315918 C 50.34902191162109 39.07801055908203 39.07801055908203 50.34902191162109 25.17451286315918 50.34902191162109 C 11.27101135253906 50.34902191162109 3.814697265625e-06 39.07801055908203 3.814697265625e-06 25.17451286315918 C 3.814697265625e-06 11.27101135253906 11.27101135253906 3.814697265625e-06 25.17451286315918 3.814697265625e-06 Z" stroke="none" fill="#56d9fe"/>
      </g>
      <g id="group" transform="translate(9.319 16.544)">
        <g id="Group_2189" data-name="Group 2189" transform="translate(0 7.73)">
          <g id="Group_2188" data-name="Group 2188">
            <path id="Path_1470" data-name="Path 1470" d="M43.463,268.65H39.286a5.393,5.393,0,0,0-2.463.588,4.944,4.944,0,0,0-1.621,1.321,5.509,5.509,0,0,0-.864-.068h-4.18a5.5,5.5,0,0,0-.864.068,4.94,4.94,0,0,0-1.621-1.321,5.393,5.393,0,0,0-2.463-.588H21.035a4.823,4.823,0,0,0-5.03,4.561v2.571a.517.517,0,0,0,.54.486h8.569v1.351a.517.517,0,0,0,.54.49H38.828a.517.517,0,0,0,.54-.49v-1.351h8.569a.517.517,0,0,0,.54-.49v-2.568A4.822,4.822,0,0,0,43.463,268.65ZM25.17,274.613v.676H17.085v-2.078a3.789,3.789,0,0,1,3.949-3.581h4.176a4.228,4.228,0,0,1,1.93.459,3.961,3.961,0,0,1,1.047.774A4.648,4.648,0,0,0,25.17,274.613Zm13.107.439v2.081H26.209v-2.848l.022-.081.037-.122L26.3,274a3.955,3.955,0,0,1,3.755-2.473l.108-.054h4.18a3.853,3.853,0,0,1,3.916,3.125.757.757,0,0,0,.022.223Zm9.135.24H39.364v-1.419l-.026-.084v-.166l-.052-.132a4.829,4.829,0,0,0-2.742-2.6,3.8,3.8,0,0,1,.808-.8,4.229,4.229,0,0,1,1.93-.459h4.18a3.789,3.789,0,0,1,3.949,3.581Z" transform="translate(-16.005 -268.65)" fill="#54d8ff"/>
          </g>
        </g>
        <g id="Group_2193" data-name="Group 2193" transform="translate(3.309 0.003)">
          <g id="Group_2192" data-name="Group 2192">
            <path id="Path_1471" data-name="Path 1471" d="M58.026,178.183a3.994,3.994,0,0,0-2.69-1.014,3.466,3.466,0,1,0,3.8,3.452A3.294,3.294,0,0,0,58.026,178.183Zm-.764,4.179a2.925,2.925,0,0,1-3.852,0,2.31,2.31,0,0,1,0-3.493,2.925,2.925,0,0,1,3.852,0,2.31,2.31,0,0,1,0,3.493Z" transform="translate(-51.529 -177.17)" fill="#54d8ff"/>
          </g>
        </g>
        <g id="Group_2199" data-name="Group 2199" transform="translate(21.567)">
          <g id="Group_2198" data-name="Group 2198">
            <path id="Path_1473" data-name="Path 1473" d="M251.369,177.13a3.64,3.64,0,0,0-3.807,3.446,3.294,3.294,0,0,0,1.111,2.439,4,4,0,0,0,2.69,1.014,3.466,3.466,0,1,0,.007-6.9Zm1.923,5.194a2.925,2.925,0,0,1-3.852,0,2.31,2.31,0,0,1,0-3.493,2.925,2.925,0,0,1,3.852,0A2.31,2.31,0,0,1,253.292,182.324Z" transform="translate(-247.562 -177.13)" fill="#54d8ff"/>
          </g>
        </g>
        <g id="Group_2203" data-name="Group 2203" transform="translate(12.445 1.841)">
          <g id="Group_2202" data-name="Group 2202">
            <path id="Path_1474" data-name="Path 1474" d="M156.107,199.935a4.082,4.082,0,0,0-5.374.008,3.224,3.224,0,0,0,.009,4.873,4.082,4.082,0,0,0,5.374-.008A3.224,3.224,0,0,0,156.107,199.935Zm-2.685,4.917a2.481,2.481,0,1,1,0-4.939,2.872,2.872,0,0,1,1.925.724,2.352,2.352,0,0,1,.8,1.747A2.606,2.606,0,0,1,153.422,204.852Z" transform="translate(-149.625 -198.93)" fill="#54d8ff"/>
          </g>
        </g>
      </g>
    </g>
  </g>
</svg>
