<svg xmlns="http://www.w3.org/2000/svg" width="39.74" height="39.74" viewBox="0 0 39.74 39.74">
  <g id="Group_3478" data-name="Group 3478" transform="translate(-974.144 -340.144)">
    <g id="Group_2571" data-name="Group 2571" transform="translate(974.144 340.144)">
      <g id="Icon" transform="translate(0 0)">
        <g id="Icon.BG" fill="#fff">
          <path d="M 19.8701171875 39.24023818969727 C 17.25494766235352 39.24023818969727 14.7182674407959 38.72816848754883 12.33054733276367 37.71823883056641 C 10.02402687072754 36.74266815185547 7.952456951141357 35.3459358215332 6.17337703704834 33.56685638427734 C 4.394297122955322 31.78777694702148 2.997567176818848 29.71620750427246 2.021997213363647 27.40968704223633 C 1.012067198753357 25.0219669342041 0.4999971985816956 22.48528671264648 0.4999971985816956 19.8701171875 C 0.4999971985816956 17.25494766235352 1.012067198753357 14.7182674407959 2.021997213363647 12.33054733276367 C 2.997567176818848 10.02402687072754 4.394297122955322 7.952456951141357 6.17337703704834 6.17337703704834 C 7.952456951141357 4.394297122955322 10.02402687072754 2.997567176818848 12.33054733276367 2.021997213363647 C 14.7182674407959 1.012067198753357 17.25494766235352 0.4999971985816956 19.8701171875 0.4999971985816956 C 22.48528671264648 0.4999971985816956 25.0219669342041 1.012067198753357 27.40968704223633 2.021997213363647 C 29.71620750427246 2.997567176818848 31.78777694702148 4.394297122955322 33.56685638427734 6.17337703704834 C 35.3459358215332 7.952456951141357 36.74266815185547 10.02402687072754 37.71823883056641 12.33054733276367 C 38.72816848754883 14.7182674407959 39.24023818969727 17.25494766235352 39.24023818969727 19.8701171875 C 39.24023818969727 22.48528671264648 38.72816848754883 25.0219669342041 37.71823883056641 27.40968704223633 C 36.74266815185547 29.71620750427246 35.3459358215332 31.78777694702148 33.56685638427734 33.56685638427734 C 31.78777694702148 35.3459358215332 29.71620750427246 36.74266815185547 27.40968704223633 37.71823883056641 C 25.0219669342041 38.72816848754883 22.48528671264648 39.24023818969727 19.8701171875 39.24023818969727 Z" stroke="none"/>
          <path d="M 19.8701171875 0.9999961853027344 C 17.32222747802734 0.9999961853027344 14.85108757019043 1.498775482177734 12.52532768249512 2.482498168945312 C 10.27840805053711 3.432868957519531 8.260246276855469 4.793605804443359 6.526927947998047 6.526927947998047 C 4.793605804443359 8.260246276855469 3.432868957519531 10.27840805053711 2.482498168945312 12.52532768249512 C 1.498775482177734 14.85108757019043 0.9999961853027344 17.32222747802734 0.9999961853027344 19.8701171875 C 0.9999961853027344 22.41800689697266 1.498775482177734 24.88914680480957 2.482498168945312 27.21490859985352 C 3.432868957519531 29.46182632446289 4.793605804443359 31.47998809814453 6.526927947998047 33.21330642700195 C 8.260246276855469 34.94662857055664 10.27840805053711 36.30736541748047 12.52532768249512 37.25773620605469 C 14.85108757019043 38.24145889282227 17.32222747802734 38.74023818969727 19.8701171875 38.74023818969727 C 22.41800689697266 38.74023818969727 24.88914680480957 38.24145889282227 27.21490859985352 37.25773620605469 C 29.46182632446289 36.30736541748047 31.47998809814453 34.94662857055664 33.21330642700195 33.21330642700195 C 34.94662857055664 31.47998809814453 36.30736541748047 29.46182632446289 37.25773620605469 27.21490859985352 C 38.24145889282227 24.88914680480957 38.74023818969727 22.41800689697266 38.74023818969727 19.8701171875 C 38.74023818969727 17.32222747802734 38.24145889282227 14.85108757019043 37.25773620605469 12.52532768249512 C 36.30736541748047 10.27840805053711 34.94662857055664 8.260246276855469 33.21330642700195 6.526927947998047 C 31.47998809814453 4.793605804443359 29.46182632446289 3.432868957519531 27.21490859985352 2.482498168945312 C 24.88914680480957 1.498775482177734 22.41800689697266 0.9999961853027344 19.8701171875 0.9999961853027344 M 19.8701171875 -3.814697265625e-06 C 30.84407806396484 -3.814697265625e-06 39.74023818969727 8.896156311035156 39.74023818969727 19.8701171875 C 39.74023818969727 30.84407806396484 30.84407806396484 39.74023818969727 19.8701171875 39.74023818969727 C 8.896156311035156 39.74023818969727 -3.814697265625e-06 30.84407806396484 -3.814697265625e-06 19.8701171875 C -3.814697265625e-06 8.896156311035156 8.896156311035156 -3.814697265625e-06 19.8701171875 -3.814697265625e-06 Z" stroke="none" fill="#59d9fe"/>
        </g>
      </g>
    </g>
    <g id="Group_2584" data-name="Group 2584" transform="translate(984.494 350.605)">
      <g id="Group_2583" data-name="Group 2583">
        <g id="Group_2582" data-name="Group 2582">
          <path id="Path_1500" data-name="Path 1500" d="M14.349,6.377a1.726,1.726,0,0,0-.164-.3h.964a1.7,1.7,0,0,0,0-3.407H12.182A1.7,1.7,0,0,0,10.778,0H1.7a1.7,1.7,0,0,0,0,3.407H4.67a1.7,1.7,0,0,0,0,1.926H3.7A1.7,1.7,0,0,0,2.645,8.371a1.7,1.7,0,0,0,0,2.667,1.7,1.7,0,0,0,0,2.667A1.7,1.7,0,0,0,3.7,16.741H8.069a6.3,6.3,0,1,0,6.28-10.364Zm.8-2.969a.963.963,0,0,1,0,1.926H6.074a.963.963,0,1,1,0-1.926ZM1.7,2.667A.963.963,0,1,1,1.7.741h9.074a.963.963,0,1,1,0,1.926Zm2,3.407h9.074a.966.966,0,0,1,.42.1q-.263-.022-.531-.023A6.276,6.276,0,0,0,8.212,8H3.7a.963.963,0,0,1,0-1.926Zm0,2.667H7.578a6.277,6.277,0,0,0-.952,1.926H3.7a.963.963,0,1,1,0-1.926Zm0,2.667H6.456a6.3,6.3,0,0,0-.023,1.926H3.7a.963.963,0,1,1,0-1.926ZM3.7,16a.963.963,0,0,1,0-1.926H6.585A6.274,6.274,0,0,0,7.473,16Zm8.963,2a5.556,5.556,0,1,1,5.556-5.556A5.562,5.562,0,0,1,12.667,18Z" fill="#59d9fe"/>
        </g>
        <path id="Path_1501" data-name="Path 1501" d="M3.218,0H2.633V2.633H0v.585H2.633v2.34h.585V3.218H5.851V2.633H3.218Z" transform="translate(9.854 9.925)" fill="#59d9fe"/>
      </g>
    </g>
  </g>
</svg>
