<svg id="Icon" xmlns="http://www.w3.org/2000/svg" width="50.488" height="50.488" viewBox="0 0 50.488 50.488">
  <g id="Ellipse" fill="#fff" stroke="#4ad991" stroke-width="1">
    <circle cx="25.244" cy="25.244" r="25.244" stroke="none"/>
    <circle cx="25.244" cy="25.244" r="24.744" fill="none"/>
  </g>
  <path id="user-icon" d="M15.944,21.257V18.6H13.287V15.943h2.657V13.286H18.6v2.657h2.657V18.6H18.6v2.657ZM0,21.257V19.929a6.579,6.579,0,0,1,6.644-6.643h3.986v2.657H6.644A3.87,3.87,0,0,0,2.924,18.6h7.706v2.657ZM3.987,6.643V5.314a5.315,5.315,0,0,1,10.629,0V6.643a5.315,5.315,0,1,1-10.629,0ZM6.644,5.314V6.643a2.657,2.657,0,0,0,5.314,0V5.314a2.657,2.657,0,0,0-5.314,0Z" transform="translate(14.615 14.615)" fill="#4ad991"/>
</svg>
