<svg id="Group_1991" data-name="Group 1991" xmlns="http://www.w3.org/2000/svg" width="40.495" height="40.495" viewBox="0 0 40.495 40.495">
  <g id="Icon" transform="translate(0)">
    <g id="Icon.BG" fill="#fff" stroke="#59d9fe" stroke-width="1">
      <circle cx="20.248" cy="20.248" r="20.248" stroke="none"/>
      <circle cx="20.248" cy="20.248" r="19.748" fill="none"/>
    </g>
  </g>
  <g id="Group_2276" data-name="Group 2276" transform="translate(15.177 12.553)">
    <path id="Path_1484" data-name="Path 1484" d="M77.094,43.232c1.783,0,3.283.947,3.283,2.075a.755.755,0,0,0,1.511,0c0-1.823-1.722-3.283-4.038-3.545v-.906a.755.755,0,0,0-1.511,0v.906c-2.316.262-4.038,1.722-4.038,3.545,0,2.014,2.1,3.585,4.8,3.585,1.783,0,3.283.947,3.283,2.075s-1.5,2.075-3.283,2.075-3.283-.947-3.283-2.075a.755.755,0,1,0-1.511,0c0,1.823,1.722,3.283,4.038,3.545v.906a.755.755,0,1,0,1.511,0v-.906c2.316-.262,4.038-1.722,4.038-3.545,0-2.014-2.1-3.585-4.8-3.585-1.783,0-3.283-.947-3.283-2.075S75.311,43.232,77.094,43.232Z" transform="translate(-72.3 -40.1)" fill="#59d9fe"/>
  </g>
</svg>
