<?xml version="1.0" encoding="utf-8"?>
<!-- Generator: Adobe Illustrator 23.0.2, SVG Export Plug-In . SVG Version: 6.00 Build 0)  -->
<svg version="1.1" id="Group_4159" xmlns="http://www.w3.org/2000/svg" xmlns:xlink="http://www.w3.org/1999/xlink" x="0px" y="0px"
	 viewBox="0 0 34.3 34.3" style="enable-background:new 0 0 34.3 34.3;" xml:space="preserve">
<style type="text/css">
	.st0{fill:#FFFFFF;}
	.st1{fill:#AFB5BD;}
	.st2{fill:#D6DADD;}
</style>
<path id="Path_1892" class="st0" d="M17.1,0.4c9.2,0,16.7,7.5,16.7,16.7s-7.5,16.7-16.7,16.7S0.4,26.4,0.4,17.1
	C0.4,7.9,7.9,0.4,17.1,0.4C17.1,0.4,17.1,0.4,17.1,0.4z"/>
<path id="Path_1891" class="st1" d="M0,17.1L0,17.1c0,9.5,7.7,17.2,17.1,17.2c4.6,0,8.9-1.8,12.1-5c3.2-3.2,5-7.6,5-12.1l0,0
	C34.3,7.7,26.6,0,17.1,0C12.6,0,8.2,1.8,5,5C1.8,8.2,0,12.6,0,17.1z M28.5,5.8c3,3,4.7,7.1,4.7,11.4l0,0c0,8.9-7.2,16.1-16.1,16.1
	c-4.3,0-8.4-1.7-11.4-4.7c-3-3-4.7-7.1-4.7-11.4l0,0c0-8.9,7.2-16.1,16.1-16.1C21.4,1.1,25.5,2.8,28.5,5.8z"/>
<path id="Path_1789" class="st2" d="M25.2,14.8h-4.3V8.4h-6.5v6.5h-4.3l7.5,7.5L25.2,14.8z M10.1,24.5v2.2h15.1v-2.2H10.1z"/>
</svg>
