<?xml version="1.0" encoding="utf-8"?>
<!-- Generator: Adobe Illustrator 23.0.1, SVG Export Plug-In . SVG Version: 6.00 Build 0)  -->
<svg version="1.1" id="Livello_1" xmlns="http://www.w3.org/2000/svg" xmlns:xlink="http://www.w3.org/1999/xlink" x="0px" y="0px"
	 viewBox="0 0 102.5 91.3" style="enable-background:new 0 0 102.5 91.3;" xml:space="preserve">
<style type="text/css">
	.st0{fill:#818B95;}
</style>
<path id="Path_1858" class="st0" d="M63.5,43.9c1.7,0,3-1.4,3-3c0,0,0-0.1,0-0.1l-0.3-12l7.3-9.5c1-1.3,0.8-3.2-0.6-4.3
	c-0.3-0.2-0.6-0.4-1-0.5l-11.5-3.4l-6.8-9.9c-0.9-1.4-2.8-1.7-4.2-0.8c-0.3,0.2-0.6,0.5-0.8,0.8L42,11.2l-11.5,3.4
	c-1.6,0.5-2.5,2.2-2.1,3.8c0.1,0.4,0.3,0.7,0.5,1l7.3,9.5l-0.3,12c0,1.7,1.3,3.1,2.9,3.1c0.4,0,0.8,0,1.1-0.2l11.3-4l11.3,4
	C62.8,43.9,63.2,43.9,63.5,43.9z"/>
<path id="Path_1859" class="st0" d="M43.7,61.9l-11.5-3.4l-6.8-9.9c-0.9-1.4-2.8-1.7-4.2-0.8c-0.3,0.2-0.6,0.5-0.8,0.8l-6.8,9.9
	L2.2,61.9c-1.6,0.5-2.5,2.2-2.1,3.8c0.1,0.4,0.3,0.7,0.5,1l7.3,9.5l-0.3,12c0,1.7,1.3,3.1,2.9,3.1c0.4,0,0.7,0,1.1-0.2l11.3-4
	l11.3,4c1.6,0.6,3.3-0.3,3.9-1.8c0.1-0.4,0.2-0.7,0.2-1.1l-0.3-12l7.3-9.5c1-1.3,0.8-3.2-0.6-4.3C44.4,62.2,44.1,62,43.7,61.9
	L43.7,61.9z"/>
<path id="Path_1860" class="st0" d="M102.3,63.9c-0.3-1-1.1-1.7-2-2l-11.5-3.4L82,48.6c-0.9-1.4-2.8-1.7-4.2-0.8
	c-0.3,0.2-0.6,0.5-0.8,0.8l-6.8,9.9l-11.5,3.4c-1.6,0.5-2.5,2.2-2.1,3.8c0.1,0.4,0.3,0.7,0.5,1l7.3,9.5l-0.3,12
	c0,1.7,1.3,3.1,2.9,3.1c0.4,0,0.7,0,1.1-0.2l11.3-4l11.3,4c1.6,0.6,3.3-0.3,3.9-1.8c0.1-0.4,0.2-0.7,0.2-1.1l-0.3-12l7.3-9.5
	C102.4,65.9,102.6,64.8,102.3,63.9z"/>
</svg>
