<?xml version="1.0" encoding="utf-8"?>
<!-- Generator: Adobe Illustrator 23.0.2, SVG Export Plug-In . SVG Version: 6.00 Build 0)  -->
<svg version="1.1" id="Layer_1" xmlns="http://www.w3.org/2000/svg" xmlns:xlink="http://www.w3.org/1999/xlink" x="0px" y="0px"
	 viewBox="0 0 31.5 22.1" style="enable-background:new 0 0 31.5 22.1;" xml:space="preserve">
<style type="text/css">
	.st0{fill:#FFFFFF;}
</style>
<path id="download-arrow" class="st0" d="M10.3,21.8c0.5,0.4,1.2,0.4,1.6,0c0.4-0.4,0.4-1.1,0-1.5l-8-8h26.6c0.6,0,1.1-0.5,1.1-1.1
	c0,0,0,0,0,0c0-0.6-0.5-1.1-1.1-1.1c0,0,0,0,0,0H3.8l8-8c0.4-0.4,0.4-1.1,0-1.6c-0.4-0.4-1.1-0.4-1.6,0l-10,10
	c-0.4,0.4-0.4,1.1,0,1.6L10.3,21.8z"/>
</svg>
