<?xml version="1.0" encoding="utf-8"?>
<!-- Generator: Adobe Illustrator 23.0.2, SVG Export Plug-In . SVG Version: 6.00 Build 0)  -->
<svg version="1.1" id="location" xmlns="http://www.w3.org/2000/svg" xmlns:xlink="http://www.w3.org/1999/xlink" x="0px" y="0px"
	 viewBox="0 0 35.4 47" style="enable-background:new 0 0 35.4 47;" xml:space="preserve">
<path id="Path_1879" d="M17.7,0C7.9,0,0,7.9,0,17.7c0,9.5,16.4,28.2,17.1,29c0.3,0.3,0.8,0.3,1.1,0.1c0,0,0,0,0.1-0.1
	c0.7-0.8,17.1-19.5,17.1-29C35.4,7.9,27.5,0,17.7,0z M17.7,45.1C14.8,41.6,1.5,25.7,1.5,17.7C1.6,8.8,8.9,1.6,17.8,1.7
	c8.8,0.1,16,7.2,16.1,16.1C33.9,25.7,20.7,41.6,17.7,45.1z"/>
<path id="Path_1880" d="M17.7,5.4C11.3,5.4,6.2,10.6,6.2,17c0,6.4,5.2,11.6,11.6,11.6S29.3,23.3,29.3,17S24.1,5.4,17.7,5.4L17.7,5.4
	z M17.7,27c-5.5,0-10-4.5-10-10c0-5.5,4.5-10,10-10c5.5,0,10,4.5,10,10C27.7,22.5,23.3,27,17.7,27C17.7,27,17.7,27,17.7,27L17.7,27z
	"/>
<path id="Path_1882" d="M20,16.2h1.5v1.5H20L20,16.2z"/>
<path id="Path_1883" d="M13.9,16.2h1.5v1.5h-1.5V16.2z"/>
</svg>
