<?xml version="1.0" encoding="utf-8"?>
<!-- Generator: Adobe Illustrator 23.0.2, SVG Export Plug-In . SVG Version: 6.00 Build 0)  -->
<svg version="1.1" id="Layer_1" xmlns="http://www.w3.org/2000/svg" xmlns:xlink="http://www.w3.org/1999/xlink" x="0px" y="0px"
	 viewBox="0 0 82.9 82.9" style="enable-background:new 0 0 82.9 82.9;" xml:space="preserve">
<style type="text/css">
	.st0{fill:#67CBB7;}
	.st1{fill:#FFFFFF;}
</style>
<path class="st0" d="M41.5,81.4c-5.4,0-10.6-1.1-15.6-3.1c-4.8-2-9-4.9-12.7-8.6C9.5,66.1,6.7,61.8,4.6,57
	c-2.1-4.9-3.1-10.2-3.1-15.6c0-5.4,1.1-10.6,3.1-15.6c2-4.8,4.9-9,8.6-12.7c3.7-3.7,7.9-6.6,12.7-8.6c4.9-2.1,10.2-3.1,15.6-3.1
	c5.4,0,10.6,1.1,15.6,3.1c4.8,2,9,4.9,12.7,8.6c3.7,3.7,6.6,7.9,8.6,12.7c2.1,4.9,3.1,10.2,3.1,15.6c0,5.4-1.1,10.6-3.1,15.6
	c-2,4.8-4.9,9-8.6,12.7c-3.7,3.7-7.9,6.6-12.7,8.6C52.1,80.4,46.9,81.4,41.5,81.4z M37.2,49.5c0.3,0.3,0.7,0.4,1.1,0.4H67
	c0.9,0,1.6-0.7,1.6-1.6l0-0.1l0-0.1l1.7-14l-15.1,8.7c0,0-0.1,0.1-0.1,0.1c0,0,0,0-0.1,0l0,0l0,0l0,0c-0.2,0.1-0.4,0.2-0.7,0.3l0,0
	l0,0c0,0-0.1,0-0.1,0c-0.2,0.1-0.5,0.1-0.7,0.1c-0.2,0-0.5,0-0.7-0.1c0,0-0.1,0-0.1,0l0,0l0,0c-0.2-0.1-0.4-0.1-0.7-0.3l0,0l0,0l0,0
	c0,0,0,0-0.1,0c-0.1,0-0.1-0.1-0.2-0.1l-13.3-9l-0.6,5.1l-0.1,0.8l-1.1,8.7c0,0.1,0,0.1,0,0.2c0,0,0,0.1,0,0.1l0,0l0,0
	c0,0,0,0.1,0.1,0.2c0,0,0,0,0,0.1c0,0.1,0.1,0.2,0.1,0.2c0,0,0,0,0,0C37,49.3,37.1,49.4,37.2,49.5L37.2,49.5z M20,49h9.6
	c0-0.2,0-0.5,0-0.7v-0.2v0H20V49z M15.7,41.2h14.8l0.1-1H15.7V41.2z M44.7,30.2l8.8,6l10.5-6H44.7z M11.8,32.1h19.7l0.1-0.7
	c0-0.1,0-0.2,0-0.3H11.8V32.1z"/>
<path class="st1" d="M41.5,3C20.2,3,3,20.2,3,41.5c0,21.2,17.2,38.5,38.5,38.5s38.5-17.2,38.5-38.5C79.9,20.2,62.7,3,41.5,3
	 M53.5,38l-13.6-9.3c0.1,0,0.3,0,0.4,0H69c0.2,0,0.4,0,0.6,0.1L53.5,38 M32.9,33.6H10.3v-4h23.2c-0.2,0.6-0.3,1.3-0.4,1.9L32.9,33.6
	 M53.5,41.8c0.1,0,0.3,0,0.4-0.1c0,0,0,0,0,0c0.1,0,0.2-0.1,0.4-0.1c0,0,0,0,0.1,0c0,0,0,0,0.1,0L72,31.4c0,0.1,0,0.3,0,0.4l-2,16.5
	c0,1.7-1.4,3.1-3.1,3.1H38.3c-0.9,0-1.6-0.3-2.2-0.9c0,0,0,0,0,0c-0.1-0.1-0.3-0.3-0.4-0.5c0,0,0,0,0,0c-0.1-0.2-0.2-0.3-0.3-0.5
	c0,0,0,0,0,0c-0.1-0.2-0.1-0.3-0.2-0.5c0,0,0-0.1,0-0.1c0-0.2-0.1-0.4-0.1-0.6l1.1-8.8l0.1-0.8l0.8-6.9c0-0.2,0-0.4,0.1-0.6
	c0,0,0,0,0-0.1c0,0,0,0,0,0c0.1-0.4,0.3-0.8,0.5-1.2v1.5l14.8,10c0,0,0,0,0.1,0c0,0,0,0,0.1,0c0.1,0.1,0.2,0.1,0.4,0.1c0,0,0,0,0,0
	C53.2,41.8,53.3,41.8,53.5,41.8L53.5,41.8C53.5,41.8,53.5,41.8,53.5,41.8 M31.8,42.7H14.2v-4h18.1L31.8,42.7 M31.5,50.5h-13v-4h12.8
	l-0.2,1.3l0,0.2v0.2C31.2,49.1,31.3,49.8,31.5,50.5 M41.5,0c5.6,0,11,1.1,16.1,3.3c4.9,2.1,9.4,5.1,13.2,8.9
	c3.8,3.8,6.8,8.2,8.9,13.2c2.2,5.1,3.3,10.5,3.3,16.1c0,5.6-1.1,11-3.3,16.1c-2.1,4.9-5.1,9.4-8.9,13.2c-3.8,3.8-8.2,6.8-13.2,8.9
	c-5.1,2.2-10.5,3.3-16.1,3.3s-11-1.1-16.1-3.3c-4.9-2.1-9.4-5.1-13.2-8.9C8.3,67,5.3,62.5,3.3,57.6C1.1,52.5,0,47.1,0,41.5
	c0-5.6,1.1-11,3.3-16.1c2.1-4.9,5.1-9.4,8.9-13.2c3.8-3.8,8.2-6.8,13.2-8.9C30.4,1.1,35.9,0,41.5,0z M58.4,31.7h-8.8l4,2.8
	L58.4,31.7z M50.8,44l-11.2-7.6l-0.3,2.7l-0.1,0.8l-1,8.5c0,0,0,0,0,0c0,0,0,0,0,0c0,0,0,0,0,0l0,0c0,0,0.1,0,0.1,0H67
	c0.1,0,0.1-0.1,0.1-0.1l0-0.2l0-0.2l1.3-11l-12.5,7.2c-0.1,0-0.1,0.1-0.2,0.1c0,0,0,0-0.1,0l0,0l0,0c-0.3,0.2-0.6,0.3-1,0.4l0,0l0,0
	c-0.1,0-0.1,0-0.2,0c-0.3,0.1-0.7,0.1-1,0.1h0c-0.3,0-0.7,0-1-0.1c0,0-0.1,0-0.1,0l0,0l0,0c-0.3-0.1-0.7-0.2-1-0.4l0,0l0,0
	c0,0,0,0-0.1,0C51.1,44.2,51,44.1,50.8,44L50.8,44z"/>
</svg>
