<?xml version="1.0" encoding="utf-8"?>
<!-- Generator: Adobe Illustrator 23.0.2, SVG Export Plug-In . SVG Version: 6.00 Build 0)  -->
<svg version="1.1" id="name" xmlns="http://www.w3.org/2000/svg" xmlns:xlink="http://www.w3.org/1999/xlink" x="0px" y="0px"
	 viewBox="0 0 37.4 50" style="enable-background:new 0 0 37.4 50;" xml:space="preserve">
<path id="Path_1884" d="M18.7,26.5c3.1,0,5.7-2.5,5.7-5.7s-2.5-5.7-5.7-5.7S13,17.7,13,20.8S15.6,26.5,18.7,26.5L18.7,26.5z
	 M18.7,17.4c1.9,0,3.5,1.6,3.5,3.5s-1.6,3.5-3.5,3.5s-3.5-1.6-3.5-3.5c0,0,0,0,0,0C15.2,18.9,16.8,17.4,18.7,17.4z"/>
<path id="Path_1885" d="M18.7,28.6c-2.3,0-4.6,0.9-6.2,2.6c-1.7,1.7-2.6,4.1-2.6,6.5c0,0.6,0.5,1.1,1.1,1.1c0,0,0,0,0,0h15.3
	c0.6,0,1.1-0.5,1.1-1.1l0,0c0-2.4-0.9-4.7-2.6-6.5C23.3,29.6,21.1,28.6,18.7,28.6z M12.3,36.6c0.2-1.4,0.8-2.8,1.8-3.8
	c2.5-2.5,6.6-2.6,9.2-0.1c0,0,0,0,0.1,0.1c1,1,1.7,2.4,1.8,3.8H12.3z"/>
<path id="Path_1886" d="M31.9,0H5.5C2.5,0,0,2.5,0,5.5v39c0,3,2.5,5.5,5.5,5.5h26.4c3,0,5.5-2.5,5.5-5.5v-39C37.4,2.5,35,0,31.9,0z
	 M35.2,44.5c0,1.8-1.5,3.3-3.3,3.3H5.5c-1.8,0-3.3-1.5-3.3-3.3v-39c0-1.8,1.5-3.3,3.3-3.3h26.4c1.8,0,3.3,1.5,3.3,3.3V44.5z"/>
<path id="Path_1887" d="M14.1,7.4h8.8c0.6,0,1.1-0.5,1.1-1.1c0-0.6-0.5-1.1-1.1-1.1h-8.8c-0.6,0-1.1,0.5-1.1,1.1
	C13,6.9,13.5,7.4,14.1,7.4L14.1,7.4z"/>
</svg>
