<?xml version="1.0" encoding="utf-8"?>
<!-- Generator: Adobe Illustrator 23.0.2, SVG Export Plug-In . SVG Version: 6.00 Build 0)  -->
<svg version="1.1" id="Layer_1" xmlns="http://www.w3.org/2000/svg" xmlns:xlink="http://www.w3.org/1999/xlink" x="0px" y="0px"
	 viewBox="0 0 24.2 25" style="enable-background:new 0 0 24.2 25;" xml:space="preserve">
<style type="text/css">
	.st0{fill:#B7BCC2;stroke:#B7BCC2;}
</style>
<g id="Profil" transform="translate(0.5 1.085)">
	<g id="Group_2995" transform="translate(0 -0.585)">
		<path id="Path_1713" class="st0" d="M11.6,12.8c-3.5,0-6.4-2.9-6.4-6.4C5.2,2.9,8.1,0,11.6,0C15.1,0,18,2.9,18,6.4
			C18,10,15.1,12.8,11.6,12.8z M11.6,1c-3,0-5.5,2.4-5.5,5.5s2.4,5.5,5.5,5.5c3,0,5.5-2.4,5.5-5.5c0,0,0,0,0,0
			C17.1,3.4,14.6,1,11.6,1z"/>
		<path id="Path_1714" class="st0" d="M22.7,24c-0.3,0-0.5-0.2-0.5-0.5c0.1-5.9-4.6-10.7-10.5-10.8C5.9,12.6,1,17.3,1,23.2
			c0,0.1,0,0.2,0,0.3C1,23.7,0.7,24,0.5,24S0,23.7,0,23.5c0-6.4,5.2-11.6,11.6-11.6c6.4,0,11.6,5.2,11.6,11.6
			C23.2,23.7,23,24,22.7,24z"/>
	</g>
</g>
</svg>
