<?xml version="1.0" encoding="utf-8"?>
<!-- Generator: Adobe Illustrator 23.0.2, SVG Export Plug-In . SVG Version: 6.00 Build 0)  -->
<svg version="1.1" id="Layer_1" xmlns="http://www.w3.org/2000/svg" xmlns:xlink="http://www.w3.org/1999/xlink" x="0px" y="0px"
	 viewBox="0 0 79.9 79.9" style="enable-background:new 0 0 79.9 79.9;" xml:space="preserve">
<style type="text/css">
	.st0{fill:#67CBB7;}
	.st1{fill:#67CBB7;stroke:#FFFFFF;stroke-width:3;}
</style>
<ellipse id="Ellipse_389" class="st0" cx="40" cy="59.5" rx="3" ry="3"/>
<path id="Path_1876" class="st0" d="M48.4,19H31.6c-0.9,0-1.7,0.7-1.7,1.6v31.7c0,0.9,0.8,1.6,1.7,1.6h16.8c0.9,0,1.7-0.7,1.7-1.6
	V20.6C50,19.7,49.3,19,48.4,19z"/>
<path id="Path_1877" class="st1" d="M40,1.5C18.7,1.5,1.5,18.7,1.5,40c0,21.2,17.2,38.5,38.5,38.5S78.4,61.2,78.4,40l0,0
	C78.4,18.7,61.2,1.5,40,1.5z M54.9,59c0,2.9-2.4,5.3-5.3,5.3H30.3c-2.9,0-5.3-2.4-5.3-5.3c0,0,0,0,0,0V20.8c0-2.9,2.4-5.3,5.3-5.3
	h19.3c2.9,0,5.3,2.4,5.3,5.3L54.9,59z"/>
</svg>
