<?xml version="1.0" encoding="utf-8"?>
<!-- Generator: Adobe Illustrator 23.0.2, SVG Export Plug-In . SVG Version: 6.00 Build 0)  -->
<svg version="1.1" id="Layer_1" xmlns="http://www.w3.org/2000/svg" xmlns:xlink="http://www.w3.org/1999/xlink" x="0px" y="0px"
	 viewBox="0 0 79.9 79.9" style="enable-background:new 0 0 79.9 79.9;" xml:space="preserve">
<style type="text/css">
	.st0{fill:#67CBB7;stroke:#FFFFFF;stroke-width:3;}
</style>
<path id="Path_1878" class="st0" d="M40,1.5C18.7,1.5,1.5,18.7,1.5,40S18.7,78.4,40,78.4c21.2,0,38.5-17.2,38.5-38.5
	C78.4,18.7,61.2,1.5,40,1.5C40,1.5,40,1.5,40,1.5z M40.1,58.1H23.4c0-12,10.6-12,12.9-15.2l0.3-1.4c-3.3-1.7-5.6-5.7-5.6-10.4
	c0-6.2,4-11.2,9-11.2s9,5,9,11.2c0,4.7-2.3,8.7-5.5,10.4l0.3,1.6c2.6,3,12.8,3.2,12.8,15L40.1,58.1z"/>
</svg>
