<?xml version="1.0" encoding="utf-8"?>
<!-- Generator: Adobe Illustrator 23.0.2, SVG Export Plug-In . SVG Version: 6.00 Build 0)  -->
<svg version="1.1" id="Layer_1" xmlns="http://www.w3.org/2000/svg" xmlns:xlink="http://www.w3.org/1999/xlink" x="0px" y="0px"
	 viewBox="0 0 30.4 38" style="enable-background:new 0 0 30.4 38;" xml:space="preserve">
<style type="text/css">
	.st0{fill:#818B95;}
</style>
<g id="file_1_" transform="translate(-6)">
	<path id="Path_1894" class="st0" d="M30.7,15.8H14.9c-0.3,0-0.6,0.3-0.6,0.6c0,0.3,0.3,0.6,0.6,0.6h15.8c0.3,0,0.6-0.3,0.6-0.6
		C31.3,16.1,31,15.8,30.7,15.8z"/>
	<path id="Path_1895" class="st0" d="M14.9,12h6.3c0.3,0,0.6-0.3,0.6-0.6c0-0.3-0.3-0.6-0.6-0.6h-6.3c-0.3,0-0.6,0.3-0.6,0.6
		C14.2,11.8,14.5,12,14.9,12z"/>
	<path id="Path_1896" class="st0" d="M30.7,20.9H14.9c-0.3,0-0.6,0.3-0.6,0.6s0.3,0.6,0.6,0.6h15.8c0.3,0,0.6-0.3,0.6-0.6
		S31,20.9,30.7,20.9z"/>
	<path id="Path_1897" class="st0" d="M30.7,26H14.9c-0.3,0-0.6,0.3-0.6,0.6s0.3,0.6,0.6,0.6h15.8c0.3,0,0.6-0.3,0.6-0.6
		S31,26,30.7,26z"/>
	<path id="Path_1898" class="st0" d="M30.7,31H14.9c-0.3,0-0.6,0.3-0.6,0.6c0,0.3,0.3,0.6,0.6,0.6h15.8c0.3,0,0.6-0.3,0.6-0.6
		C31.3,31.3,31,31,30.7,31z"/>
	<path id="Path_1899" class="st0" d="M33.2,9.2V0H6v34.8h3.2V38h27.2V12.4L33.2,9.2z M27.5,5.3l5.7,5.7l1,1h-6.7V5.3z M7.3,33.6V1.3
		H32V8l-4.8-4.8h-18v30.4H7.3z M10.4,36.7V4.4h15.8v8.9h8.9v23.4L10.4,36.7z"/>
</g>
</svg>
