<svg xmlns="http://www.w3.org/2000/svg" width="127.717" height="97.099" viewBox="0 0 127.717 97.099">
  <g id="photo-camera" transform="translate(1 1)">
    <path id="Path_1457" data-name="Path 1457" d="M117.86,79.85A7.892,7.892,0,0,0,110,71.925h-7.857a7.892,7.892,0,0,0-7.857,7.925H90.359L84.673,68.38A7.852,7.852,0,0,0,77.645,64H48.072a7.851,7.851,0,0,0-7.029,4.381L35.358,79.85H7.857A7.892,7.892,0,0,0,0,87.775v63.4A7.892,7.892,0,0,0,7.857,159.1h110a7.892,7.892,0,0,0,7.857-7.925v-63.4A7.892,7.892,0,0,0,117.86,79.85Zm-55,67.362a27.738,27.738,0,1,1,27.5-27.737A27.619,27.619,0,0,1,62.858,147.212Z" transform="translate(0 -64)" fill="none" stroke="#fff" stroke-width="2"/>
    <ellipse id="Ellipse_404" data-name="Ellipse 404" cx="15.715" cy="15.85" rx="15.715" ry="15.85" transform="translate(47.144 39.625)" fill="none" stroke="#fff" stroke-width="2"/>
  </g>
</svg>
