<?xml version="1.0" encoding="utf-8"?>
<!-- Generator: Adobe Illustrator 23.0.2, SVG Export Plug-In . SVG Version: 6.00 Build 0)  -->
<svg version="1.1" id="event_2_" xmlns="http://www.w3.org/2000/svg" xmlns:xlink="http://www.w3.org/1999/xlink" x="0px" y="0px"
	 viewBox="0 0 68.8 68.8" style="enable-background:new 0 0 68.8 68.8;" xml:space="preserve">
<style type="text/css">
	.st0{fill:#FFFFFF;}
</style>
<path id="Path_1790" class="st0" d="M63.1,0H5.7C2.6,0,0,2.6,0,5.7v57.3c0,3.2,2.6,5.7,5.7,5.7h57.3c3.2,0,5.7-2.6,5.7-5.7V5.7
	C68.8,2.6,66.2,0,63.1,0z M2.3,5.7c0-1.9,1.5-3.4,3.4-3.4c0,0,0,0,0,0h57.3c1.9,0,3.4,1.5,3.4,3.4c0,0,0,0,0,0v10.3H2.3V5.7z
	 M66.5,63.1c0,1.9-1.5,3.4-3.4,3.4h0H5.7c-1.9,0-3.4-1.5-3.4-3.4c0,0,0,0,0,0V18.4h64.2V63.1z"/>
<path id="Path_1791" class="st0" d="M59.6,8H9.2C8.5,8,8,8.5,8,9.2c0,0.6,0.5,1.1,1.1,1.1c0,0,0,0,0,0h50.5c0.6,0,1.1-0.5,1.1-1.1
	C60.8,8.5,60.3,8,59.6,8C59.6,8,59.6,8,59.6,8z"/>
<path id="Path_1792" class="st0" d="M9.2,49.3c-0.6,0-1.1,0.5-1.1,1.1s0.5,1.1,1.1,1.1h11.5v9.1c0,0.6,0.5,1.1,1.1,1.1
	c0.6,0,1.1-0.5,1.1-1.1v-9.1h22.9v9.2c0,0.6,0.5,1.1,1.1,1.1c0.6,0,1.1-0.5,1.1-1.1c0,0,0,0,0,0v-9.2h11.5c0.6,0,1.1-0.5,1.1-1.1
	s-0.5-1.1-1.1-1.1H48.2V35.6h11.5c0.6,0,1.1-0.5,1.1-1.1s-0.5-1.1-1.1-1.1H48.2v-9.2c0-0.6-0.5-1.1-1.1-1.1c-0.6,0-1.1,0.5-1.1,1.1
	v9.2H22.9v-9.2c0-0.6-0.5-1.1-1.1-1.1c-0.6,0-1.1,0.5-1.1,1.1v9.2H9.2c-0.6,0-1.1,0.5-1.1,1.1s0.5,1.1,1.1,1.1h11.5v13.8H9.2z
	 M22.9,35.6h22.9v13.8H22.9V35.6z"/>
</svg>
