<?xml version="1.0" encoding="utf-8"?>
<!-- Generator: Adobe Illustrator 23.0.2, SVG Export Plug-In . SVG Version: 6.00 Build 0)  -->
<svg version="1.1" id="Layer_1" xmlns="http://www.w3.org/2000/svg" xmlns:xlink="http://www.w3.org/1999/xlink" x="0px" y="0px"
	 viewBox="0 0 62.1 63.3" style="enable-background:new 0 0 62.1 63.3;" xml:space="preserve">
<style type="text/css">
	.st0{fill:#FFFFFF;}
</style>
<g id="icon" transform="translate(-4.809 0)">
	<path id="Path_1585" class="st0" d="M45.6,54.9H33.7c-0.5,0-0.9,0.4-0.9,0.9s0.4,0.9,0.9,0.9h11.9c0.5,0,0.9-0.4,0.9-0.9
		S46.2,54.9,45.6,54.9L45.6,54.9z"/>
	<path id="Path_1584" class="st0" d="M29.7,54.9h-4c-0.5,0-0.9,0.4-0.9,0.9s0.4,0.9,0.9,0.9h4c0.5,0,0.9-0.4,0.9-0.9
		S30.2,54.9,29.7,54.9C29.7,54.9,29.7,54.9,29.7,54.9z"/>
	<path id="Path_1583" class="st0" d="M45.6,49.9h-3c-0.5,0-0.9,0.4-0.9,1c0,0.5,0.4,0.9,0.9,0.9h3c0.5,0,0.9-0.4,1-0.9
		C46.6,50.4,46.2,49.9,45.6,49.9C45.7,49.9,45.7,49.9,45.6,49.9z"/>
	<path id="Path_1582" class="st0" d="M38.7,49.9H25.7c-0.5,0-0.9,0.4-1,0.9c0,0.5,0.4,0.9,0.9,1c0,0,0,0,0.1,0h12.9
		c0.5,0,0.9-0.4,1-0.9C39.7,50.4,39.3,49.9,38.7,49.9C38.7,49.9,38.7,49.9,38.7,49.9L38.7,49.9z"/>
	<path id="Path_1581" class="st0" d="M45.6,44.9h-8c-0.5,0-0.9,0.4-0.9,0.9s0.4,0.9,0.9,0.9h8c0.5,0,0.9-0.4,0.9-0.9
		S46.2,44.9,45.6,44.9z"/>
	<path id="Path_1580" class="st0" d="M33.7,44.9h-8c-0.5,0-0.9,0.4-0.9,0.9s0.4,0.9,0.9,0.9h8c0.5,0,0.9-0.4,0.9-0.9
		S34.2,44.9,33.7,44.9z"/>
	<path id="Path_1579" class="st0" d="M46,36.8c2.5-2.6,3.9-6,3.9-9.6c0-0.5-0.4-0.9-0.9-0.9c0,0,0,0,0,0h-12v-12
		c0-0.5-0.4-0.9-0.9-0.9c0,0,0,0,0,0c-7.7,0-13.9,6.2-13.9,13.9S28.3,41,36,41c3.1,0,6.1-1,8.6-3L46,36.8z M43.6,36.5
		c-5.1,4.2-12.7,3.4-16.9-1.7c-4.2-5.1-3.4-12.7,1.7-16.9c1.9-1.6,4.2-2.5,6.7-2.7v12c0,0.5,0.4,0.9,0.9,0.9c0,0,0,0,0,0h12
		c-0.2,2.6-1.3,5.1-3,7.1L43.6,36.5z"/>
	<path id="Path_1577" class="st0" d="M66.7,4.3C66.6,4.1,66.3,4,66.1,4L52.3,2.8l-0.2-2C52,0.3,51.5-0.1,51,0L38.2,1.6
		c-0.1,0-0.1,0-0.2,0L20.5,0.1c-0.5,0-1,0.3-1,0.8L19.2,4L5.6,5.7c-0.5,0.1-0.9,0.5-0.8,1L11.8,62c0,0.2,0,0.5,0.1,0.7
		c0.1,0.3,0.5,0.6,0.9,0.6h45.8c0.5,0,0.9-0.4,0.9-0.9c0,0,0,0,0,0v-1.2l1.8,0.2c0.5,0,1-0.3,1-0.8L66.9,5C67,4.7,66.9,4.5,66.7,4.3
		z M11.8,47.1l-5-39.7l5-0.6L11.8,47.1z M21.3,2l8.2,0.7l-8.3,1L21.3,2z M50.3,2l0.5,3.8H20.2L50.3,2z M60.4,59.4l-1-0.1V32.1
		c0-0.5-0.4-0.9-0.9-1c-0.5,0-0.9,0.4-1,0.9c0,0,0,0,0,0.1v29.4H13.6V7.6h43.9v20.1c0,0.5,0.4,0.9,0.9,1c0.5,0,0.9-0.4,1-0.9
		c0,0,0,0,0-0.1v-21c0-0.5-0.4-0.9-0.9-0.9c0,0,0,0,0,0h-5.8l-0.1-1.1L65,5.8L60.4,59.4z"/>
</g>
</svg>
