<?xml version="1.0" encoding="utf-8"?>
<!-- Generator: Adobe Illustrator 23.0.2, SVG Export Plug-In . SVG Version: 6.00 Build 0)  -->
<svg version="1.1" id="Layer_1" xmlns="http://www.w3.org/2000/svg" xmlns:xlink="http://www.w3.org/1999/xlink" x="0px" y="0px"
	 viewBox="0 0 87 92.4" style="enable-background:new 0 0 87 92.4;" xml:space="preserve">
<style type="text/css">
	.st0{fill:#FFFFFF;}
</style>
<g id="candidates-ranking-graphic" transform="translate(0 -0.001)">
	<g id="Group_2295">
		<circle id="Ellipse_404" class="st0" cx="13.1" cy="6.7" r="6.7"/>
		<path id="Path_1571" class="st0" d="M5.4,29.1c0.2-1,0.5-2,0.9-3v3h14v-3c0.3,1,0.6,2,0.9,3h5.4c-1.6-7.4-5.7-13.4-11.7-15.3
			l-1.7,1.7l-1.6-1.7c0,0,0,0,0,0C10.7,13.9,1.9,17.8,0,29.1L5.4,29.1L5.4,29.1z M12.8,17.8l0.1-0.8l0.2-1.3h0l1.6,10.8l-1.6,2.2h0
			l-1.6-2.2L12.8,17.8z"/>
		<path id="Path_1572" class="st0" d="M22.9,18.3c3.7,3.7,5.2,10.8,5.2,10.8H87V18.3H22.9z M84.7,26.8H51.8v-6.2h32.9
			C84.7,20.5,84.7,26.8,84.7,26.8z"/>
		<circle id="Ellipse_405" class="st0" cx="13.1" cy="38.2" r="6.7"/>
		<path id="Path_1573" class="st0" d="M14.8,45.2l-1.7,1.7l-1.6-1.7c0,0,0,0,0,0C10.7,45.4,1.9,49.3,0,60.6h5.4c0.2-1,0.5-2,0.9-3v3
			h14v-3c0.3,1,0.6,2,0.9,3h5.4C24.9,53.2,20.8,47.2,14.8,45.2z M13.1,60.2L13.1,60.2L11.5,58l1.6-10.9h0L14.8,58L13.1,60.2z"/>
		<path id="Path_1574" class="st0" d="M28.1,60.6H87V49.8h-64C26.6,53.5,28.1,60.6,28.1,60.6z M63.1,52h21.6v6.2H63.1V52z"/>
		<circle id="Ellipse_406" class="st0" cx="13.1" cy="70" r="6.7"/>
		<path id="Path_1575" class="st0" d="M14.8,77l-1.7,1.7L11.5,77c0,0,0,0,0,0C10.7,77.2,1.9,81.1,0,92.4h5.4c0.2-1,0.5-2,0.9-3v3h14
			v-3c0.3,1,0.6,2,0.9,3h5.4C24.9,85,20.8,79,14.8,77z M13.1,92L13.1,92l-1.7-2.2L13.1,79h0l1.6,10.9L13.1,92z"/>
		<path id="Path_1576" class="st0" d="M28.1,92.4H87V81.5h-64C26.6,85.3,28.1,92.4,28.1,92.4z M37.7,83.8h46.9v6.2H37.7L37.7,83.8z"
			/>
	</g>
</g>
</svg>
