<?xml version="1.0" encoding="utf-8"?>
<!-- Generator: Adobe Illustrator 23.0.2, SVG Export Plug-In . SVG Version: 6.00 Build 0)  -->
<svg version="1.1" id="Livello_1" xmlns="http://www.w3.org/2000/svg" xmlns:xlink="http://www.w3.org/1999/xlink" x="0px" y="0px"
	 viewBox="0 0 62.6 68.8" style="enable-background:new 0 0 62.6 68.8;" xml:space="preserve">
<style type="text/css">
	.st0{fill:#FFFFFF;}
</style>
<path id="Path_1830" class="st0" d="M44.7,27.5v-16H17.2v16H44.7z M19.5,13.8h22.9v11.5H19.5V13.8z"/>
<rect id="Rectangle_1585" x="22.9" y="16" class="st0" width="16" height="2.3"/>
<rect id="Rectangle_1586" x="22.9" y="20.6" class="st0" width="16" height="2.3"/>
<path id="Path_1829" class="st0" d="M11.5,2.3h39v29.8h2.3V0H0v68.8h29.8v-2.3H11.5V2.3z M2.3,66.5V2.3h6.9v64.2H2.3z"/>
<ellipse id="Ellipse_387" class="st0" cx="48.1" cy="42.7" rx="8.4" ry="8.4"/>
<path id="Path_1837" class="st0" d="M51.4,53.1h-0.1H45c-6.4,0.1-11.5,5.4-11.4,11.8c0,0,0,0.1,0,0.1v1.8c0,0.9,0.3,1.9,1.3,1.9
	h26.3c1,0,1.3-1,1.3-1.9V65C62.8,58.6,57.7,53.3,51.4,53.1C51.4,53.1,51.4,53.1,51.4,53.1z"/>
</svg>
