<?xml version="1.0" encoding="utf-8"?>
<!-- Generator: Adobe Illustrator 23.0.2, SVG Export Plug-In . SVG Version: 6.00 Build 0)  -->
<svg version="1.1" id="Layer_1" xmlns="http://www.w3.org/2000/svg" xmlns:xlink="http://www.w3.org/1999/xlink" x="0px" y="0px"
	 viewBox="0 0 55.6 62" style="enable-background:new 0 0 55.6 62;" xml:space="preserve">
<style type="text/css">
	.st0{fill:#FFFFFF;}
</style>
<g id="icon" transform="translate(-282 -407.25)">
	<path id="Path_1591" class="st0" d="M318.2,429.4h-25.2c-0.6,0-1,0.4-1,1s0.4,1,1,1c0,0,0,0,0.1,0h25.2c0.6,0,1-0.5,1-1
		C319.2,429.8,318.8,429.4,318.2,429.4z"/>
	<path id="Path_1592" class="st0" d="M293.1,423.4h10.1c0.6,0,1-0.4,1-1c0-0.6-0.4-1-1-1c0,0,0,0-0.1,0h-10.1c-0.6,0-1,0.4-1,1
		S292.5,423.3,293.1,423.4C293,423.4,293.1,423.4,293.1,423.4z"/>
	<path id="Path_1593" class="st0" d="M319.2,438.5c0-0.6-0.5-1-1-1h-25.2c-0.6,0-1,0.4-1,1s0.4,1,1,1c0,0,0,0,0.1,0h25.2
		C318.8,439.5,319.2,439,319.2,438.5z"/>
	<path id="Path_1594" class="st0" d="M311.2,446.5c0-0.6-0.5-1-1-1h-17.1c-0.6,0-1,0.5-1,1c0,0.5,0.4,1,1,1h17.1
		C310.7,447.5,311.2,447.1,311.2,446.5z"/>
	<path id="Path_1595" class="st0" d="M293.1,453.6c-0.6,0-1,0.4-1,1s0.4,1,1,1c0,0,0,0,0.1,0h14.1c0.6,0,1-0.4,1-1s-0.4-1-1-1
		c0,0,0,0-0.1,0H293.1z"/>
	<path id="Path_1596" class="st0" d="M284,409.3h29.2v14.1h14.1v17.1h2v-18.5l-14.7-14.7H282v60.4h31.2v-2H284V409.3z M315.2,410.7
		l10.7,10.7h-10.7V410.7z"/>
	<path id="Path_1303" class="st0" d="M323.9,450.9L323.9,450.9c-1.6-0.9-3.7-0.4-4.6,1.2c-0.9,1.6-0.4,3.7,1.2,4.6l0,0
		c1.6,0.9,3.7,0.4,4.6-1.2C326,453.9,325.5,451.9,323.9,450.9z M322.7,455.8c-1.1,0.3-2.2-0.4-2.5-1.5c-0.1-0.5-0.1-1.1,0.2-1.5
		c0.6-1,1.8-1.3,2.8-0.7l0,0c1,0.6,1.3,1.8,0.7,2.8C323.7,455.3,323.2,455.7,322.7,455.8z"/>
	<path id="Path_1302" class="st0" d="M332.9,457.4c0-0.2-0.2-0.3-0.3-0.4l-2.1-1.2c-0.4-0.2-0.5-0.7-0.3-1.1
		c0.1-0.2,0.3-0.3,0.5-0.4l2.3-0.6c0.4-0.1,0.6-0.5,0.5-0.8l-1-3.7c-0.1-0.4-0.5-0.6-0.8-0.5c0,0,0,0,0,0l-2.3,0.6
		c-0.4,0.1-0.9-0.1-1-0.6c-0.1-0.2,0-0.4,0.1-0.6l1.2-2.1c0.2-0.3,0.1-0.7-0.2-0.9c0,0,0,0,0,0l-3.3-1.9c-0.3-0.2-0.7-0.1-0.9,0.2
		l-1.2,2.1c-0.2,0.4-0.7,0.5-1.1,0.3c-0.2-0.1-0.3-0.3-0.4-0.5l-0.6-2.3c-0.1-0.4-0.5-0.6-0.8-0.5c0,0,0,0,0,0l-3.7,1
		c-0.4,0.1-0.6,0.5-0.5,0.8l0.6,2.3c0.1,0.4-0.1,0.9-0.6,1c-0.2,0.1-0.4,0-0.6-0.1l0,0l-2.1-1.2c-0.3-0.2-0.7-0.1-0.9,0.2
		c0,0,0,0,0,0l-1.9,3.3c-0.2,0.3-0.1,0.7,0.2,0.9c0,0,0,0,0,0l2.1,1.2c0.4,0.2,0.5,0.7,0.3,1.1c-0.1,0.2-0.3,0.3-0.5,0.4l-2.3,0.6
		c-0.4,0.1-0.6,0.5-0.5,0.8l1,3.7c0.1,0.4,0.5,0.6,0.8,0.5l2.3-0.6c0.4-0.1,0.9,0.1,1,0.6c0.1,0.2,0,0.4-0.1,0.6l-1.2,2.1
		c-0.2,0.3-0.1,0.7,0.2,0.9c0,0,0,0,0,0l3.3,1.9l0,0c0.3,0.2,0.7,0.1,0.9-0.2l1.2-2.1c0.2-0.4,0.7-0.5,1.1-0.3
		c0.2,0.1,0.3,0.3,0.4,0.5l0.6,2.3c0.1,0.4,0.5,0.6,0.8,0.5l3.7-1c0.4-0.1,0.6-0.5,0.5-0.8c0,0,0,0,0,0l-0.6-2.3
		c-0.1-0.4,0.1-0.9,0.6-1c0.2-0.1,0.4,0,0.6,0.1l0,0l2.1,1.2l0,0c0.3,0.2,0.7,0.1,0.9-0.2l1.9-3.3
		C332.9,457.7,333,457.5,332.9,457.4z M330.1,459.9l-1.5-0.9l0,0c-1-0.6-2.3-0.2-2.9,0.8c-0.3,0.5-0.4,1.1-0.2,1.6l0.4,1.7l-2.4,0.6
		l-0.4-1.7c-0.3-1.1-1.5-1.8-2.6-1.5c-0.5,0.1-1,0.5-1.3,1l-0.9,1.5l-2.2-1.3l0.9-1.5c0.6-1,0.3-2.3-0.8-2.9
		c-0.5-0.3-1.1-0.4-1.6-0.2l-1.7,0.4l-0.6-2.4l1.7-0.4c1.1-0.3,1.8-1.5,1.5-2.6c-0.1-0.5-0.5-1-1-1.3l-1.5-0.9l1.3-2.2l1.5,0.9l0,0
		c1,0.6,2.3,0.2,2.9-0.8c0.3-0.5,0.4-1.1,0.2-1.6l-0.4-1.7l2.4-0.6l0.4,1.7c0.3,1.1,1.5,1.8,2.6,1.5c0.5-0.1,1-0.5,1.3-1l0.9-1.5
		l2.2,1.3l-0.9,1.5c-0.6,1-0.2,2.3,0.8,2.9c0.5,0.3,1.1,0.4,1.6,0.2l1.7-0.4l0.6,2.4l-1.7,0.4c-1.1,0.3-1.8,1.5-1.5,2.6
		c0.1,0.5,0.5,1,1,1.3l1.5,0.9L330.1,459.9z"/>
</g>
</svg>
