<?xml version="1.0" encoding="utf-8"?>
<!-- Generator: Adobe Illustrator 23.0.2, SVG Export Plug-In . SVG Version: 6.00 Build 0)  -->
<svg version="1.1" id="Layer_1" xmlns="http://www.w3.org/2000/svg" xmlns:xlink="http://www.w3.org/1999/xlink" x="0px" y="0px"
	 viewBox="0 0 68.6 70.4" style="enable-background:new 0 0 68.6 70.4;" xml:space="preserve">
<style type="text/css">
	.st0{fill:none;stroke:#FFFFFF;stroke-width:2;stroke-miterlimit:10;}
	.st1{fill:#FFFFFF;}
</style>
<g id="picto" transform="translate(-0.029 0.003)">
	<path id="Path_1711" class="st0" d="M46.7,67.8c-7.2-3.5-10.2-12.2-6.7-19.4c3.5-7.2,12.2-10.2,19.4-6.7
		c7.2,3.5,10.2,12.2,6.7,19.4c0,0,0,0,0,0C62.6,68.4,53.9,71.4,46.7,67.8z"/>
	<path id="Path_1712" class="st1" d="M53,50.1c1.7,0,3.2,0.9,3.2,1.9c0,0.4,0.3,0.7,0.7,0.7c0.4,0,0.7-0.3,0.7-0.7
		c0-1.7-1.7-3.1-3.9-3.3l0-0.9c0-0.4-0.3-0.7-0.7-0.7c-0.4,0-0.7,0.3-0.7,0.7l0,0l0,0.9c-2.2,0.3-3.8,1.7-3.8,3.5
		c0,1.9,2.1,3.4,4.7,3.4c1.7,0,3.2,0.9,3.2,1.9c0,1.1-1.4,2-3.1,2S50,58.6,50,57.5c0-0.4-0.3-0.7-0.7-0.7c-0.4,0-0.7,0.3-0.7,0.7
		c0,1.7,1.7,3.1,3.9,3.3l0,0.9c0,0.4,0.3,0.7,0.7,0.7c0.4,0,0.7-0.3,0.7-0.7l0-0.9c2.2-0.3,3.8-1.7,3.8-3.5c0-1.9-2.1-3.4-4.7-3.4
		c-1.7,0-3.2-0.9-3.2-1.9C49.9,51,51.3,50.1,53,50.1z"/>
	<path id="Path_1709" class="st1" d="M47.1,5.8C61.3,12.7,68,29.3,62.6,44.1c0.6,0.8,1.4,1.5,2,2.3c7.1-17.1-1.1-36.8-18.2-43.9
		S9.7,3.6,2.6,20.7s1.1,36.8,18.2,43.9c7.3,3,15.4,3.4,22.9,1c-0.6-0.8-1.1-1.6-1.7-2.4C25.7,67.9,8.6,58.4,3.9,42S8.8,8.6,25.1,3.9
		C32.5,1.8,40.3,2.5,47.1,5.8z"/>
	<path id="Path_1710" class="st1" d="M35.1,12.5c-0.6,0-1,0.5-1,1L34,37.3l-15.5-0.1c-0.6,0-1,0.5-1,1.1c0,0.5,0.5,1,1,1L35,39.4
		c0.6,0,1-0.5,1-1l0.1-24.8C36.2,13,35.7,12.5,35.1,12.5z"/>
</g>
</svg>
