<?xml version="1.0" encoding="utf-8"?>
<!-- Generator: Adobe Illustrator 23.0.2, SVG Export Plug-In . SVG Version: 6.00 Build 0)  -->
<svg version="1.1" id="Layer_1" xmlns="http://www.w3.org/2000/svg" xmlns:xlink="http://www.w3.org/1999/xlink" x="0px" y="0px"
	 viewBox="0 0 22.6 22.6" style="enable-background:new 0 0 22.6 22.6;" xml:space="preserve">
<style type="text/css">
	.st0{fill:#36CCB5;}
</style>
<g id="icon" transform="translate(1 1)">
	<g id="Path_1219" transform="translate(-0.016)">
		<path class="st0" d="M10.3,0C4.6,0,0,4.6,0,10.3s4.6,10.3,10.3,10.3S20.6,16,20.6,10.3S16,0,10.3,0 M10.3-1c3,0,5.8,1.2,8,3.3
			c2.1,2.1,3.3,5,3.3,8s-1.2,5.8-3.3,8c-2.1,2.1-5,3.3-8,3.3c-3,0-5.8-1.2-8-3.3c-2.1-2.1-3.3-5-3.3-8s1.2-5.8,3.3-8
			C4.5,0.2,7.3-1,10.3-1z"/>
	</g>
	<g id="Path_1220" transform="translate(-109.23 -104.255)">
		<path class="st0" d="M120,109.2c-0.3-0.3-0.7-0.3-1,0l-4.6,4.1c-0.3,0.3-0.3,0.7,0,1c0.3,0.3,0.7,0.3,1,0l4.1-3.7l4.1,3.7
			c0.3,0.3,0.7,0.3,1,0c0.3-0.3,0.3-0.7,0-1c0,0,0,0,0,0L120,109.2z"/>
	</g>
	<g id="Path_1221" transform="translate(-109.23 -213.286)">
		<path class="st0" d="M120,223.2c-0.3-0.3-0.7-0.3-1,0l-4.6,4.1c-0.3,0.3-0.3,0.7,0,1c0.3,0.3,0.7,0.3,1,0l4.1-3.6l4.1,3.6
			c0.3,0.3,0.7,0.3,1,0c0.3-0.3,0.3-0.7,0-1L120,223.2z"/>
		<path class="st0" d="M119.5,223c-0.2,0-0.4,0.1-0.5,0.2l-4.6,4.1c-0.3,0.3-0.3,0.7,0,1c0.1,0.1,0.3,0.2,0.5,0.2
			c0.2,0,0.4-0.1,0.5-0.2l4.1-3.6l4.1,3.6c0.1,0.1,0.3,0.2,0.5,0.2c0.2,0,0.4-0.1,0.5-0.2c0.3-0.3,0.3-0.7,0-1l-4.6-4.1
			C119.9,223,119.7,223,119.5,223C119.5,223,119.5,223,119.5,223C119.5,223,119.5,223,119.5,223"/>
	</g>
</g>
</svg>
