<svg id="Calque_1" data-name="Calque 1" xmlns="http://www.w3.org/2000/svg" viewBox="0 0 257 257"><defs><style>.cls-1{fill:#fff;}</style></defs><title>icon stylo</title><path class="cls-1" d="M256.33,256.17H2.28V2.08H256.33ZM226.66,7.76,95.3,120.39l45.24,45.23L253.19,34.24ZM133.51,171.91,89,127.45,49.2,185.09l26.64,26.64ZM5.12,254.18c1.19-.7,2.37-1.41,3.57-2.08,10.37-5.81,21.21-9.85,33.38-9.24a3.63,3.63,0,0,0,2.52-1.43c7.51-9.63,14.94-19.32,22.39-29a13.43,13.43,0,0,0,.77-1.19l-.78.57-17.66-18.7c-9.35,7-18.58,14-27.75,21a3.68,3.68,0,0,0-1,2.31C18.75,230.35,14.63,243.3,5.12,254.18ZM255.68,26.27C256,11,244.62,2.41,232.29,2.91Z"/><path d="M226.66,7.76l26.53,26.48L140.54,165.62,95.3,120.39Z"/><path d="M133.51,171.91,75.84,211.73,49.2,185.09,89,127.45Z"/><path d="M5.12,254.18c9.51-10.88,13.63-23.83,15.43-37.76a3.68,3.68,0,0,1,1-2.31c9.17-7,18.4-14,27.75-21L67,211.81l.78-.57a13.43,13.43,0,0,1-.77,1.19c-7.45,9.68-14.88,19.37-22.39,29a3.63,3.63,0,0,1-2.52,1.43c-12.17-.61-23,3.43-33.38,9.24C7.49,252.77,6.31,253.48,5.12,254.18Zm35.07-26.1a5.6,5.6,0,1,0-5.77,5.56A5.66,5.66,0,0,0,40.19,228.08Z"/><path d="M255.68,26.27,232.29,2.91C244.62,2.41,256,11,255.68,26.27Z"/><path class="cls-1" d="M40.19,228.08a5.71,5.71,0,0,1-5.77,5.56,5.59,5.59,0,1,1,5.77-5.56Z"/></svg>