<?xml version="1.0" encoding="utf-8"?>
<!-- Generator: Adobe Illustrator 23.0.2, SVG Export Plug-In . SVG Version: 6.00 Build 0)  -->
<svg version="1.1" id="Layer_1" xmlns="http://www.w3.org/2000/svg" xmlns:xlink="http://www.w3.org/1999/xlink" x="0px" y="0px"
	 viewBox="0 0 89.6 95.1" style="enable-background:new 0 0 89.6 95.1;" xml:space="preserve">
<style type="text/css">
	.st0{fill:#FFFFFF;}
</style>
<g id="candidates-ranking-graphic" transform="translate(0 0)">
	<g id="Group_2295">
		<circle id="Ellipse_404" class="st0" cx="13.5" cy="6.9" r="6.9"/>
		<path id="Path_1571" class="st0" d="M5.5,29.9c0.2-1,0.5-2.1,0.9-3.1v3.1h14.4v-3.1c0.4,1,0.7,2.1,0.9,3.1h5.5
			c-1.6-7.6-5.9-13.8-12.1-15.8l-1.7,1.7l-1.7-1.8c0,0,0,0,0,0C11,14.3,2,18.3,0,29.9L5.5,29.9L5.5,29.9z M13.2,18.4l0.1-0.8
			l0.2-1.4h0l1.7,11.2l-1.7,2.3h0l-1.7-2.3L13.2,18.4z"/>
		<path id="Path_1572" class="st0" d="M23.6,18.8c3.8,3.8,5.3,11.1,5.3,11.1h60.6V18.8H23.6z M87.2,27.6H31.4L29,21.2h58.3V27.6
			L87.2,27.6z"/>
		<circle id="Ellipse_405" class="st0" cx="13.5" cy="39.4" r="6.9"/>
		<path id="Path_1573" class="st0" d="M15.3,46.6l-1.7,1.7l-1.7-1.8c0,0,0,0,0,0C11,46.8,2,50.8,0,62.4h5.5c0.2-1,0.5-2.1,0.9-3.1
			v3.1h14.4v-3.1c0.4,1,0.7,2.1,0.9,3.1h5.5C25.7,54.8,21.4,48.6,15.3,46.6z M13.5,62.1L13.5,62.1l-1.7-2.3l1.7-11.2h0l1.7,11.2
			L13.5,62.1z"/>
		<path id="Path_1574" class="st0" d="M29,62.4h60.6V51.2h-66C27.4,55.1,29,62.4,29,62.4z M29,53.6h58.3V60H32.1L29,53.6z"/>
		<circle id="Ellipse_406" class="st0" cx="13.5" cy="72.1" r="6.9"/>
		<path id="Path_1575" class="st0" d="M15.3,79.3l-1.7,1.7l-1.7-1.8c0,0,0,0,0,0C11,79.5,2,83.5,0,95.1h5.5c0.2-1,0.5-2.1,0.9-3.1
			v3.1h14.4V92c0.4,1,0.7,2.1,0.9,3.1h5.5C25.7,87.5,21.4,81.3,15.3,79.3z M13.5,94.8L13.5,94.8l-1.7-2.3l1.7-11.2h0l1.7,11.2
			L13.5,94.8z"/>
		<path id="Path_1576" class="st0" d="M29,95.1h60.6V84h-66C27.4,87.8,29,95.1,29,95.1z M27.9,86.3h59.3v6.4H31.1L27.9,86.3z"/>
	</g>
</g>
</svg>
