<?xml version="1.0" encoding="utf-8"?>
<!-- Generator: Adobe Illustrator 23.0.2, SVG Export Plug-In . SVG Version: 6.00 Build 0)  -->
<svg version="1.1" id="icon" xmlns="http://www.w3.org/2000/svg" xmlns:xlink="http://www.w3.org/1999/xlink" x="0px" y="0px"
	 viewBox="0 0 81.7 53.3" style="enable-background:new 0 0 81.7 53.3;" xml:space="preserve">
<style type="text/css">
	.st0{fill:#FFFFFF;}
</style>
<g id="Group_1356" transform="translate(0 0)">
	<g id="Group_1355">
		<path id="Path_1304" class="st0" d="M55.1,10.4L34.4,3.3c-2-0.7-4.1-0.5-6,0.4l-1,0.5c-1.4,0.7-3.1,0.8-4.5,0.3L21,3.8
			c-0.1-0.1-0.2-0.1-0.2-0.1L10.2,0C10,0,9.7,0,9.4,0.1C9.2,0.2,9,0.4,8.9,0.7L0.1,26.6c-0.2,0.5,0.1,1.1,0.6,1.3c0,0,0,0,0,0
			l10.6,3.6c0.1,0,0.2,0.1,0.3,0.1c0.2,0,0.3,0,0.4-0.1c0.2-0.1,0.4-0.3,0.5-0.6L21.1,6l1.1,0.4c2,0.7,4.2,0.6,6.1-0.4l1-0.5
			c1.4-0.7,3-0.8,4.5-0.3l19.9,6.9c-0.1,1.2-0.7,2.3-1.7,3.1c-1,0.7-2.4,0.7-4.2,0.1l-8.7-3c-0.3-0.1-0.6-0.1-0.8,0.1
			c-0.2,0.1-0.4,0.4-0.5,0.6c0,0.1-1.3,4.8-5.3,6.9c-2.5,1.4-5.7,1.4-9.4,0.2c-0.5-0.2-1.1,0.1-1.3,0.6c-0.2,0.5,0.1,1.1,0.6,1.3
			c1.8,0.6,3.7,1,5.5,1c1.9,0,3.8-0.4,5.4-1.3c2.8-1.6,4.9-4.2,6-7.2l7.7,2.6c2.4,0.8,4.4,0.7,6-0.3c2.5-1.7,2.6-5.2,2.6-5.4
			C55.8,11,55.5,10.6,55.1,10.4z M11,29.3l-8.7-3l8.2-24L19,5.2l0.2,0.1l0,0L11,29.3z"/>
	</g>
</g>
<g id="Group_1358" transform="translate(16.243 0.167)">
	<g id="Group_1357" transform="translate(0 0)">
		<path id="Path_1305" class="st0" d="M65.4,25.1L53.3,0.6c-0.1-0.2-0.3-0.4-0.6-0.5C52.5,0,52.2,0,52,0.1L41.9,5
			c-0.5,0.2-0.7,0.8-0.5,1.3l11.7,23.9l-3.9,3.6c-3.3,3.1-7.1,5.6-11.2,7.6l-19.3,9.4c-0.5,0.3-1.1,0.3-1.7,0.1
			c-0.6-0.2-1-0.6-1.3-1.1c-0.3-0.5-0.3-1.1-0.1-1.7c0.2-0.6,0.6-1,1.1-1.3l10.8-5.3c0.5-0.2,0.7-0.8,0.5-1.3
			c-0.2-0.5-0.8-0.7-1.3-0.5L16.2,45l-5.3,2.6c-1.1,0.5-2.5,0.1-3-1c-0.5-1.1-0.1-2.5,1-3L24.4,36c0.5-0.2,0.7-0.8,0.5-1.3
			c-0.2-0.5-0.8-0.7-1.3-0.5l-11.4,5.6l-4,2l-1.9,0.9c-1.1,0.5-2.5,0.1-3-1c-0.5-1.1-0.1-2.5,1-3l0,0l1.9-0.9l13.8-6.8
			c0.5-0.2,0.7-0.8,0.5-1.3c-0.2-0.5-0.8-0.7-1.3-0.5l0,0l-8.9,4.4l-5,2.4c-0.5,0.3-1.1,0.3-1.7,0.1c-0.6-0.2-1-0.6-1.3-1.1
			c-0.3-0.5-0.3-1.1-0.1-1.7c0.2-0.6,0.6-1,1.1-1.3l7.3-3.6c0.5-0.2,0.7-0.8,0.5-1.3c-0.2-0.5-0.8-0.7-1.3-0.5l0,0l-7.3,3.6
			c-1,0.5-1.8,1.4-2.2,2.4c-0.7,2,0.2,4.1,2,5.1c-1.7,1.6-1.7,4.3-0.1,6c0.8,0.8,1.9,1.3,3,1.3c0.2,0,0.4,0,0.6,0
			c-0.1,0.9,0,1.8,0.4,2.6c0.7,1.5,2.2,2.4,3.8,2.4c0.6,0,1.3-0.1,1.9-0.4l1.8-0.9c-0.1,0.8,0.1,1.6,0.4,2.3c0.5,1,1.4,1.8,2.4,2.2
			c0.4,0.2,0.9,0.2,1.4,0.2c0.6,0,1.3-0.2,1.9-0.4L39,43.3c4.2-2.1,8.2-4.8,11.6-8l4.4-4l9.9-4.9C65.4,26.2,65.6,25.6,65.4,25.1z
			 M54.9,29.2L43.7,6.4l8.3-4l11.1,22.8L54.9,29.2z"/>
	</g>
</g>
</svg>
