<?xml version="1.0" encoding="utf-8"?>
<!-- Generator: Adobe Illustrator 23.0.2, SVG Export Plug-In . SVG Version: 6.00 Build 0)  -->
<svg version="1.1" id="Layer_1" xmlns="http://www.w3.org/2000/svg" xmlns:xlink="http://www.w3.org/1999/xlink" x="0px" y="0px"
	 viewBox="0 0 20.5 19.6" style="enable-background:new 0 0 20.5 19.6;" xml:space="preserve">
<style type="text/css">
	.st0{fill:#DADDE2;}
</style>
<g id="path" transform="translate(0.527 0.474)">
	<path class="st0" d="M19.3,6.5h-6.9L10.4,0c-0.1-0.3-0.5-0.5-0.8-0.4C9.4-0.4,9.2-0.2,9.1,0L7,6.5H0.1c-0.4,0-0.7,0.3-0.7,0.6
		c0,0.2,0.1,0.4,0.3,0.5l5.6,4l-2.1,6.5c-0.1,0.3,0.1,0.7,0.4,0.8c0.2,0.1,0.4,0,0.6-0.1l5.6-4l5.6,4c0.3,0.2,0.7,0.2,0.9-0.1
		c0.1-0.2,0.2-0.4,0.1-0.6l-2.1-6.5l5.6-4c0.3-0.2,0.4-0.6,0.2-0.9C19.8,6.6,19.5,6.5,19.3,6.5z"/>
	<path class="st0" d="M9.8-0.5C9.5-0.5,9.2-0.3,9.1,0L7,6.5H0.1c-0.6,0-0.9,0.8-0.4,1.2l5.6,4l-2.1,6.5c-0.1,0.4,0.2,0.8,0.6,0.8
		c0.1,0,0.2,0,0.4-0.1l5.6-4l5.6,4c0.1,0.1,0.3,0.1,0.4,0.1c0.4,0,0.7-0.4,0.6-0.8l-2.1-6.5l5.6-4c0.5-0.4,0.3-1.2-0.4-1.2h-6.9
		L10.4,0C10.3-0.3,10-0.5,9.8-0.5"/>
</g>
</svg>
