<?xml version="1.0" encoding="utf-8"?>
<!-- Generator: Adobe Illustrator 23.0.2, SVG Export Plug-In . SVG Version: 6.00 Build 0)  -->
<svg version="1.1" id="Layer_1" xmlns="http://www.w3.org/2000/svg" xmlns:xlink="http://www.w3.org/1999/xlink" x="0px" y="0px"
	 viewBox="0 0 23.9 22.8" style="enable-background:new 0 0 23.9 22.8;" xml:space="preserve">
<style type="text/css">
	.st0{fill:#36CCB5;}
</style>
<g id="path" transform="translate(2.025 1.975)">
	<path class="st0" d="M21.1,6.2h-8l-2.4-7.6c-0.1-0.4-0.6-0.6-1-0.5C9.5-1.9,9.3-1.7,9.2-1.5L6.7,6.2h-8C-1.7,6.1-2,6.5-2,6.9
		c0,0.3,0.1,0.5,0.3,0.6l6.5,4.7l-2.5,7.6c-0.1,0.4,0.1,0.8,0.5,0.9c0.2,0.1,0.5,0,0.7-0.1L9.9,16l6.5,4.7c0.3,0.2,0.8,0.2,1-0.1
		c0.2-0.2,0.2-0.5,0.1-0.7L15,12.2l6.5-4.7c0.3-0.2,0.4-0.7,0.2-1C21.6,6.3,21.3,6.1,21.1,6.2z"/>
	<path class="st0" d="M10-2C9.7-2,9.4-1.8,9.2-1.5L6.7,6.2h-8c-0.8,0-1.1,0.9-0.5,1.4l6.5,4.7l-2.5,7.6c-0.2,0.5,0.3,1,0.7,1
		c0.1,0,0.3,0,0.4-0.2L9.9,16l6.5,4.7c0.1,0.1,0.3,0.2,0.4,0.2c0.5,0,0.9-0.5,0.7-1L15,12.2l6.5-4.7c0.6-0.5,0.3-1.4-0.5-1.4h-8
		l-2.4-7.6C10.6-1.8,10.3-2,10-2"/>
</g>
</svg>
