<?xml version="1.0" encoding="utf-8"?>
<!-- Generator: Adobe Illustrator 23.0.2, SVG Export Plug-In . SVG Version: 6.00 Build 0)  -->
<svg version="1.1" id="Layer_1" xmlns="http://www.w3.org/2000/svg" xmlns:xlink="http://www.w3.org/1999/xlink" x="0px" y="0px"
	 viewBox="0 0 58.9 54" style="enable-background:new 0 0 58.9 54;" xml:space="preserve">
<style type="text/css">
	.st0{fill:#FFFFFF;}
</style>
<path id="users" class="st0" d="M54.5,43.2l-9.6-4.2c-0.3-0.2-0.5-0.4-0.7-0.8h6.4c1.7,0.1,3.3-0.1,4.9-0.7c1.5-0.6,2.2-2.4,1.5-3.8
	c-0.1-0.2-0.2-0.4-0.3-0.5c-1.8-2.6-6.1-9.4-6.2-16.3c0-0.1-0.4-11.9-12-12c-1.6,0-3.2,0.3-4.7,0.8c-0.3-0.9-0.8-1.7-1.5-2.4
	C30.3,1.2,27,0,22.6,0s-7.7,1.2-9.7,3.5c-1.5,1.8-2.2,4.1-2.1,6.4v5.2c-0.6,0.7-1,1.6-1,2.6v3.9c0,1.2,0.5,2.3,1.5,3.1
	c0.7,2.6,1.8,5,3.4,7.1V35c0,0.9-0.5,1.8-1.4,2.3L4.6,42C1.8,43.6,0,46.6,0,49.8V54h58.9v-3.6C58.9,47.3,57.2,44.6,54.5,43.2z
	 M43.2,52H2v-2.2c0-2.5,1.4-4.8,3.6-6l8.8-4.8c1.5-0.8,2.4-2.3,2.4-4V31l-0.2-0.3c-1.6-2.1-2.7-4.4-3.3-6.9L13,23.5l-0.3-0.2
	c-0.6-0.4-0.9-1-0.9-1.6v-3.9c0-0.6,0.2-1.1,0.7-1.4l0.3-0.3V9.8l0-0.1c-0.1-1.8,0.4-3.6,1.6-4.9C16,2.9,18.7,2,22.6,2
	s6.6,0.9,8.2,2.8c0.7,0.8,1.2,1.8,1.4,2.8c0,0.1,0,0.1,0,0.2s0,0.1,0,0.2s0,0.1,0,0.2c0,0.1,0,0.1,0,0.2c0,0.1,0,0.2,0,0.3
	c0,0,0,0,0,0c0,0.1,0,0.2,0,0.3c0,0,0,0,0,0.1c0,0.1,0,0.2,0,0.2v0c0,0.2,0,0.4,0,0.4l0,6.2l0.3,0.3c0.4,0.4,0.7,0.9,0.7,1.4v3.9
	c0,0.9-0.6,1.6-1.4,1.9l-0.5,0.1l-0.2,0.5c-0.6,2-1.6,3.9-2.8,5.6c-0.3,0.4-0.5,0.7-0.8,1.1L27.5,31v4c0,0.2,0,0.5,0.1,0.7
	c0,0.1,0,0.1,0,0.2c0,0.2,0.1,0.4,0.2,0.6c0,0,0,0.1,0,0.1c0.1,0.2,0.2,0.4,0.3,0.6l0,0.1c0.1,0.3,0.3,0.5,0.5,0.7l0.2,0.3h0
	c0.3,0.3,0.7,0.6,1.2,0.8l9.4,4.7c2.3,1.2,3.8,3.5,3.8,6.2L43.2,52z M56.9,52H45.1v-2c0-3.4-1.9-6.4-4.9-7.9l-6.7-3.4
	c0.4-0.9,0-1.9-0.9-2.2c-0.2-0.1-0.4-0.1-0.7-0.1h-2.2c0-0.1-0.1-0.2-0.1-0.3c-0.2-0.3-0.2-0.7-0.2-1v-3.3c0.2-0.3,0.5-0.6,0.7-0.9
	c1.2-1.7,2.2-3.7,2.9-5.7c1.4-0.6,2.3-2,2.3-3.5v-3.9c0-0.9-0.4-1.9-1-2.6V9.9c0.1-0.7,0-1.4-0.1-2.1C35.6,7.3,37,7,38.5,7
	c9.7,0.1,10,9.6,10,10c0.1,7.4,4.7,14.6,6.6,17.4c0.2,0.2,0.2,0.5,0.1,0.8c-0.1,0.3-0.3,0.5-0.5,0.6c-1.3,0.4-2.6,0.6-4,0.5h-6.8
	c-1,0-1.8,0.8-1.8,1.8c0,0.3,0.1,0.6,0.2,0.8c0.4,0.8,1,1.5,1.7,1.9l9.6,4.2c2,1,3.3,3.1,3.3,5.3L56.9,52z"/>
</svg>
