<svg xmlns="http://www.w3.org/2000/svg" viewBox="0 0 85.68 79.573">
  <defs>
    <style>
      .cls-1 {
        fill: #d8d8d8;
      }
    </style>
  </defs>
  <g id="barman" transform="translate(0 0)">
    <g id="Group_1701" data-name="Group 1701" transform="translate(58.14 49.056)">
      <g id="Group_1700" data-name="Group 1700">
        <path id="Path_1514" data-name="Path 1514" class="cls-1" d="M347.428,311.388v26.726h0a3.792,3.792,0,1,0,7.584,0V311.388Z" transform="translate(-347.428 -311.388)"/>
      </g>
    </g>
    <g id="Group_1703" data-name="Group 1703" transform="translate(67.362 49.056)">
      <g id="Group_1702" data-name="Group 1702">
        <path id="Path_1515" data-name="Path 1515" class="cls-1" d="M402.534,311.388v26.726a3.792,3.792,0,1,0,7.584,0V311.388Z" transform="translate(-402.534 -311.388)"/>
      </g>
    </g>
    <g id="Group_1705" data-name="Group 1705" transform="translate(58.158 15.145)">
      <g id="Group_1704" data-name="Group 1704">
        <path id="Path_1516" data-name="Path 1516" class="cls-1" d="M361.985,108.75h-2.841l-3.239,8.328-3.239-8.328h-2.841c.078,2.895-.4,7.7-2.289,9.741v11.1h16.738v-11.1C362.38,116.452,361.908,111.644,361.985,108.75Zm-6.007,17.238a.934.934,0,1,1,.934-.934A.934.934,0,0,1,355.978,125.988Zm0-5.065a.934.934,0,1,1,.934-.934A.934.934,0,0,1,355.978,120.923Z" transform="translate(-347.536 -108.75)"/>
      </g>
    </g>
    <g id="Group_1707" data-name="Group 1707" transform="translate(75.4 15.196)">
      <g id="Group_1706" data-name="Group 1706">
        <path id="Path_1517" data-name="Path 1517" class="cls-1" d="M450.576,109.051v.025a19.071,19.071,0,0,0,.792,6.262l-.031,14.5h6.32l.032-13.331v-.023A7.5,7.5,0,0,0,450.576,109.051Z" transform="translate(-450.568 -109.051)"/>
      </g>
    </g>
    <g id="Group_1710" data-name="Group 1710" transform="translate(50.494 15.195)">
      <g id="Group_1709" data-name="Group 1709">
        <g id="Group_1708" data-name="Group 1708">
          <path id="Path_1518" data-name="Path 1518" class="cls-1" d="M339.7,233.262h0Z" transform="translate(-333.344 -212.475)"/>
          <path id="Path_1519" data-name="Path 1519" class="cls-1" d="M308.89,109.045a7.5,7.5,0,0,0-7.153,7.433v.023l.032,13.331h6.32l-.03-14.388A18.916,18.916,0,0,0,308.89,109.045Z" transform="translate(-301.737 -109.045)"/>
        </g>
      </g>
    </g>
    <g id="Group_1712" data-name="Group 1712" transform="translate(59.958 0)">
      <g id="Group_1711" data-name="Group 1711">
        <path id="Path_1520" data-name="Path 1520" class="cls-1" d="M364.844,18.246a6.549,6.549,0,1,0,6.549,6.549A6.549,6.549,0,0,0,364.844,18.246Z" transform="translate(-358.294 -18.246)"/>
      </g>
    </g>
    <g id="Group_1714" data-name="Group 1714" transform="translate(0 16.273)">
      <g id="Group_1713" data-name="Group 1713">
        <path id="Path_1521" data-name="Path 1521" class="cls-1" d="M82.879,138.932h-37.1a.713.713,0,0,0,.264-.477c.1-.939.726-6.563.863-7.806H40.229l.863,7.806a.713.713,0,0,0,.264.477H30.928a1.163,1.163,0,0,0,.577-1c0-1.293.015-10.656.017-12.086a3.729,3.729,0,0,0-2.01-3.314l.009-5.98a1.059,1.059,0,0,0-1.057-1.06l-1.316,0a1.059,1.059,0,0,0-1.06,1.057l-.009,5.98a3.729,3.729,0,0,0-2.02,3.309c0,1.47-.016,10.8-.017,12.086a1.164,1.164,0,0,0,.589,1.013H20.609a1.163,1.163,0,0,0,.577-1c0-1.293.015-10.656.017-12.086a3.729,3.729,0,0,0-2.011-3.314l.009-5.98a1.059,1.059,0,0,0-1.057-1.06l-1.316,0a1.059,1.059,0,0,0-1.06,1.057l-.009,5.98a3.729,3.729,0,0,0-2.02,3.309c0,1.47-.016,10.8-.017,12.086a1.164,1.164,0,0,0,.589,1.013H10.29a1.163,1.163,0,0,0,.577-1c0-1.293.015-10.656.017-12.086a3.729,3.729,0,0,0-2.01-3.314l.009-5.98a1.059,1.059,0,0,0-1.057-1.06l-1.316,0a1.059,1.059,0,0,0-1.06,1.057l-.009,5.98a3.729,3.729,0,0,0-2.02,3.309c0,1.47-.016,10.8-.017,12.086a1.164,1.164,0,0,0,.589,1.013H2.8a2.8,2.8,0,0,0,0,5.6H82.879a2.8,2.8,0,1,0,0-5.6Z" transform="translate(0 -115.488)"/>
      </g>
    </g>
  </g>
</svg>
