<svg xmlns="http://www.w3.org/2000/svg" viewBox="0 0 73.888 81.225">
  <defs>
    <style>
      .cls-1 {
        fill: #d8d8d8;
      }
    </style>
  </defs>
  <g id="black-shoes" transform="translate(0)">
    <path id="Path_1510" data-name="Path 1510" class="cls-1" d="M65.72,38.078c-16.045-4.77-22.934-8.854-22.934-8.854s1.791-1.573,2.574-2.269.382-4.241-1.129-5.451-8.181-.984-9.089-2.2S35,15.3,34.84,11.059,28.939-.294,23.791.009s-7.717,8.4-7.717,8.4l-1.9,5.975S9.64,11.364,5.926,12.346,1.49,18.1,1.315,22.111c-.382,8.552,5.3,15.514,5.3,15.514S6.082,45.2,4.947,51.164s-2.976,7.864-2.976,14.45S3.434,81.447,12.744,81.221,30.905,68.352,30.6,62.069s-.3-14.079,0-19.3c3.553.987,11.426,11.052,15.14,11.432s15.74.291,20.583.379,9.007-4.538,8.854-8.1S70.7,39.56,65.72,38.078ZM6.082,13.483c.453-.758,2.416-.868,3.785,0s3.1,1.969,3.1,1.969l-1.061,4.235S5.629,14.236,6.082,13.483Zm21.8,34.665c-.608,4.388-6.433,8.928-12.111,8.928S6.91,55.792,6.84,52.007s.679-9.989,1.666-12.713A21.151,21.151,0,0,1,11.3,34.225a25.364,25.364,0,0,0,7.949,1.434,45.062,45.062,0,0,0,9.536-1.434S28.484,43.755,27.878,48.148ZM12.359,27.639c.3-5.149,5.151-17.03,6.209-19.91s2.724-6.054,5.219-6.054,4.543,3.48,5.225,7.8.682,10.747,1.211,16.727C22.5,30.357,12.056,32.779,12.359,27.639Zm23.389-4.472s6.959-.074,7.188.529-4.178,2.625-4.7,2.2-2.489-2.045-2.489-2.045ZM53.084,40.612a15.976,15.976,0,0,1-10.526.342,35.531,35.531,0,0,1-9.31-4.843V33.687L41.726,29.9s4.622,3.33,15.143,6.586C57.392,36.867,55.2,39.738,53.084,40.612Z" transform="translate(-1.296 0)"/>
  </g>
</svg>
