<svg xmlns="http://www.w3.org/2000/svg" viewBox="0 0 70.568 65.845">
  <defs>
    <style>
      .cls-1 {
        fill: #d8d8d8;
      }
    </style>
  </defs>
  <g id="chinese-food-bowl-from-side-view-and-chopsticks" transform="translate(0)">
    <path id="Path_1503" data-name="Path 1503" class="cls-1" d="M44.093,41.58,37,34.266,53.058,18.689l5.277-4.324-3.023-3.025-4.585,5.307L35.32,32.533l-15.626-16.1-4.32-5.274L12.351,14.18l5.307,4.584,15.981,15.5-7.1,7.316H0S2.615,57.54,6.67,62.332s17.659,12.6,17.659,12.6V77H46.238V74.928s13.609-7.806,17.661-12.6S70.568,41.58,70.568,41.58ZM20.686,67.6a48.69,48.69,0,0,1-4.413-2.945c-.776-.576-1.587-1.215-2.378-1.894-.819-.674-1.5-1.382-2.267-2.079a14,14,0,0,1-2.081-2.706,15.972,15.972,0,0,1-1.29-2.915,21.061,21.061,0,0,1-1.032-5.37A19.156,19.156,0,0,1,7.5,44.456S8.038,46.5,8.94,49.368a44.14,44.14,0,0,0,1.8,4.7,24.114,24.114,0,0,0,1.3,2.384,11.894,11.894,0,0,0,1.694,2.066c.722.709,1.436,1.5,2.156,2.121.707.679,1.408,1.343,2.082,1.988,1.374,1.3,2.67,2.524,3.759,3.609,2.2,2.14,3.582,3.725,3.582,3.725A34.459,34.459,0,0,1,20.686,67.6Zm8.776-26.02,5.86-5.686,5.859,5.686Z" transform="translate(0 -11.154)"/>
  </g>
</svg>
