<svg xmlns="http://www.w3.org/2000/svg" viewBox="0 0 75.447 77.386">
  <defs>
    <style>
      .cls-1 {
        fill: #d8d8d8;
      }
    </style>
  </defs>
  <g id="coordinating-people" transform="translate(0)">
    <path id="Path_1493" data-name="Path 1493" class="cls-1" d="M198.093,14.182A7.091,7.091,0,1,0,191,7.091,7.1,7.1,0,0,0,198.093,14.182Z" transform="translate(-161.031 0)"/>
    <path id="Path_1494" data-name="Path 1494" class="cls-1" d="M146.113,111.637a2.967,2.967,0,0,0,1.162.331c.072.005.144.008.216.008a2.974,2.974,0,0,0,2.646-1.6l1.936-3.711v5.727a1.472,1.472,0,0,0,1.471,1.471h11.59a1.473,1.473,0,0,0,1.471-1.471v-6.07l2.115,4.054a2.974,2.974,0,0,0,2.646,1.6q.108,0,.216-.008a2.983,2.983,0,0,0,2.427-4.355l-6.7-12.842a3.028,3.028,0,0,0-2.943-1.6H154.124a2.82,2.82,0,0,0-2.575,1.6l-6.7,12.842A2.985,2.985,0,0,0,146.113,111.637Z" transform="translate(-122.071 -78.076)"/>
    <path id="Path_1495" data-name="Path 1495" class="cls-1" d="M46.71,323.8a5.389,5.389,0,1,0-5.388-5.388A5.394,5.394,0,0,0,46.71,323.8Z" transform="translate(-35.598 -262.315)"/>
    <path id="Path_1496" data-name="Path 1496" class="cls-1" d="M23.311,385.039a2.333,2.333,0,0,0-2.236-1.218H13.347a2.138,2.138,0,0,0-2.013,1.218L6.243,394.8a2.267,2.267,0,0,0,1.844,3.309q.082.006.164.006a2.26,2.26,0,0,0,2.011-1.219l1.471-2.82v3.84a1.119,1.119,0,0,0,1.118,1.117h8.807a1.119,1.119,0,0,0,1.118-1.117v-4.1l1.607,3.081a2.26,2.26,0,0,0,2.011,1.219c.055,0,.109,0,.164-.006A2.267,2.267,0,0,0,28.4,394.8Z" transform="translate(-5.985 -321.646)"/>
    <path id="Path_1497" data-name="Path 1497" class="cls-1" d="M202.564,318.411a5.388,5.388,0,1,0,5.388-5.389A5.394,5.394,0,0,0,202.564,318.411Z" transform="translate(-170.72 -262.315)"/>
    <path id="Path_1498" data-name="Path 1498" class="cls-1" d="M184.552,385.038a2.319,2.319,0,0,0-2.236-1.218h-7.73a2.3,2.3,0,0,0-2.011,1.218l-5.091,9.759a2.267,2.267,0,0,0,1.844,3.309c.055,0,.11.006.164.006a2.261,2.261,0,0,0,2.011-1.219l1.471-2.82v3.84a1.119,1.119,0,0,0,1.118,1.118H182.9a1.119,1.119,0,0,0,1.118-1.118v-4.1l1.607,3.081a2.261,2.261,0,0,0,2.011,1.219c.055,0,.109,0,.164-.006a2.267,2.267,0,0,0,1.844-3.309Z" transform="translate(-141.107 -321.645)"/>
    <path id="Path_1499" data-name="Path 1499" class="cls-1" d="M367.1,318.411a5.388,5.388,0,1,0,5.388-5.389A5.394,5.394,0,0,0,367.1,318.411Z" transform="translate(-308.601 -262.315)"/>
    <path id="Path_1500" data-name="Path 1500" class="cls-1" d="M354.176,394.8l-5.091-9.758a2.217,2.217,0,0,0-2.236-1.218h-7.728a2.106,2.106,0,0,0-2.013,1.218l-5.091,9.758a2.267,2.267,0,0,0,1.844,3.309c.055,0,.109.006.164.006a2.261,2.261,0,0,0,2.011-1.219l1.471-2.82v3.84a1.119,1.119,0,0,0,1.118,1.117h8.807a1.119,1.119,0,0,0,1.118-1.117v-4.1l1.607,3.081a2.26,2.26,0,0,0,2.01,1.219c.055,0,.109,0,.164-.006a2.268,2.268,0,0,0,1.844-3.309Z" transform="translate(-278.987 -321.646)"/>
    <path id="Path_1501" data-name="Path 1501" class="cls-1" d="M66.454,240.738a1.2,1.2,0,0,0,1.2-1.2v-4.11H91.9v4.11a1.2,1.2,0,1,0,2.408,0v-4.11h24.245v4.11a1.2,1.2,0,1,0,2.408,0v-4.779a1.741,1.741,0,0,0-1.739-1.739H94.31V230.46a1.2,1.2,0,1,0-2.408,0v2.556H66.989a1.741,1.741,0,0,0-1.739,1.739v4.779A1.2,1.2,0,0,0,66.454,240.738Z" transform="translate(-55.65 -192.119)"/>
  </g>
</svg>
