<svg xmlns="http://www.w3.org/2000/svg" viewBox="0 0 67.018 66.46">
  <defs>
    <style>
      .cls-1 {
        fill: #d8d8d8;
      }
    </style>
  </defs>
  <g id="dj-playing-records" transform="translate(0 0)">
    <path id="Path_1556" data-name="Path 1556" class="cls-1" d="M38.376,106.145a4.949,4.949,0,0,1-2.867-.027,6.64,6.64,0,1,1-3.069-6.746,4.994,4.994,0,0,1,3.048-2.77l1.134-.356-.18-.063-2.373-.833-7.548-2.644a1.639,1.639,0,0,1-1.4.827,7.582,7.582,0,0,0-7.573,7.574,1.662,1.662,0,1,1-3.323,0,10.882,10.882,0,0,1,7.166-10.2l-.973-.341a4.395,4.395,0,0,1-1.7-1.107,14.563,14.563,0,0,0-7.237,12.568,1.662,1.662,0,1,1-3.323,0,17.905,17.905,0,0,1,9.312-15.694,4.321,4.321,0,0,1,1.753-3.492,4.42,4.42,0,0,1-1.479-4.583A29.012,29.012,0,1,0,58.019,105a29.4,29.4,0,0,0-.2-3.327ZM32.9,116.466a7.582,7.582,0,0,0,7.573-7.574,1.662,1.662,0,0,1,3.323,0,10.909,10.909,0,0,1-10.9,10.9,1.662,1.662,0,1,1,0-3.323Zm-.924,9.394a1.662,1.662,0,1,1,0-3.323,14.585,14.585,0,0,0,14.567-14.569,1.662,1.662,0,1,1,3.323,0A17.911,17.911,0,0,1,31.978,125.86Z" transform="translate(0 -67.549)"/>
    <path id="Path_1557" data-name="Path 1557" class="cls-1" d="M185.786,16.555l-11.861-8.1s-.006,0-.01-.006L155.794,2.11a2.215,2.215,0,1,0-1.463,4.181l8.712,3.049a1.108,1.108,0,0,1-.366,2.155,1.093,1.093,0,0,1-.367-.063L147.325,6.188a2.215,2.215,0,1,0-1.464,4.181l14.985,5.247a1.108,1.108,0,0,1-.366,2.154,1.117,1.117,0,0,1-.366-.062l-17.078-5.979a2.215,2.215,0,0,0-1.462,4.183l17.076,5.978a1.107,1.107,0,1,1-.731,2.091l-14.986-5.246a2.215,2.215,0,1,0-1.464,4.182L157.5,28.527v0l6.486,2.271-7.51,2.353a2.77,2.77,0,0,0,1.657,5.287l22.874-5.264a3.566,3.566,0,0,0,2.565-2.3l3.571-10.2A3.564,3.564,0,0,0,185.786,16.555Z" transform="translate(-120.325 -1.985)"/>
  </g>
</svg>
