<svg xmlns="http://www.w3.org/2000/svg" viewBox="0 0 42.574 69.275">
  <defs>
    <style>
      .cls-1 {
        fill: #d8d8d8;
      }
    </style>
  </defs>
  <g id="female-model" transform="translate(0)">
    <path id="Path_1502" data-name="Path 1502" class="cls-1" d="M39,44.916c-.524-1.6-1.042-4.607-1.534-6.079-.507-1.528-.994-2.956-1.428-4.227-1.175-3.455-1.99-5.757-1.99-5.757a2.5,2.5,0,0,0,1.538-1.06,3.363,3.363,0,0,0,.276-2.168l1.3.135s.52.191.672.089a1.332,1.332,0,0,0,.277-.279s.353.2.48.1a2.028,2.028,0,0,0,.247-.254s.331.15.48,0-.075-.5-.075-.5L49,27.333s-.212-14.21-9.588-16.462a9.809,9.809,0,0,0-9.15,2.312,17.309,17.309,0,0,0-2.551-1.994,8.748,8.748,0,0,0-2.3-.759l.227-.956s.985.252.961-.1-.2-2.021-.2-2.021.43-.4.391-.7.141-3.385-.11-3.734A5.556,5.556,0,0,0,24.1.869a5.818,5.818,0,0,0-2.925.152S20.768.086,20.34.011a1.826,1.826,0,0,0-1.008.279A1.585,1.585,0,0,0,17.945.214a1.766,1.766,0,0,0-1.062.879,2.513,2.513,0,0,0-1.187.99,1.928,1.928,0,0,0-.023,1.262A9.823,9.823,0,0,0,12.951,7.3c-.751,2.31.341,5.052.651,6s-.655,3.873.15,4.821,1.794.069,2.526.867,4.516,5.9,4.618,7.564c.025.387-.023,1.593-1.212,4.776-.331.884-1.414,2.846-1.8,3.867-.832,2.189-.977,4.289-1.965,6.828-1.2,3.081-3.256,6.632-4.424,9.645C8.725,58.785,6.423,64.806,6.421,65.5c0,.68,1.52,1.349,3.547,1.9,1.43.391,1.952,1.037,3.522,1.266a29.959,29.959,0,0,0,5.79,0c5.046-.472,4.7.653,9.148.607a78.088,78.088,0,0,0,10.362-1.079c2.356-.4,3.414-1.243,5.653-2.422.84-.443-.416-5.748-2.308-12.2C41.191,50.348,40.085,48.261,39,44.916ZM28.856,20.957,26.45,20.5s3.333-10.3,11.84-9.152C47.6,12.6,48.118,26.485,48.118,26.485l-8.01-1.95-1.06-.769a3.142,3.142,0,1,0-5.468-2.11,3.19,3.19,0,0,0,.048.491l-2.01-.4Z" transform="translate(-6.421 0)"/>
  </g>
</svg>
