<svg xmlns="http://www.w3.org/2000/svg" viewBox="0 0 72.662 63.579">
  <defs>
    <style>
      .cls-1 {
        fill: #d8d8d8;
      }
    </style>
  </defs>
  <g id="github" transform="translate(0)">
    <path id="Path_1538" data-name="Path 1538" class="cls-1" d="M36.331,87.821a5.981,5.981,0,0,1-4.126-2.111A1.419,1.419,0,0,1,34.212,83.7a3.481,3.481,0,0,0,2.119,1.288A3.483,3.483,0,0,0,38.45,83.7a1.419,1.419,0,1,1,2.007,2.007A5.983,5.983,0,0,1,36.331,87.821ZM0,66.079a46.894,46.894,0,0,0,.908,9.628A29.352,29.352,0,0,0,3.463,83.2a20.831,20.831,0,0,0,4.163,5.559,24.35,24.35,0,0,0,5.469,3.935,30.527,30.527,0,0,0,6.755,2.5,52.556,52.556,0,0,0,7.739,1.337q3.936.382,8.666.382t8.685-.382A52.529,52.529,0,0,0,52.7,95.192a30.933,30.933,0,0,0,6.774-2.5,24.566,24.566,0,0,0,5.506-3.935A20.627,20.627,0,0,0,69.161,83.2a29.818,29.818,0,0,0,2.574-7.488,45.971,45.971,0,0,0,.927-9.628,24.337,24.337,0,0,0-5.9-16.39,14.6,14.6,0,0,0,.587-2.1q.245-1.185.473-3.343a20.663,20.663,0,0,0-.17-4.986,27.434,27.434,0,0,0-1.495-5.769l-.568-.115a6.037,6.037,0,0,0-1.854.077,23.536,23.536,0,0,0-3.009.688,23.986,23.986,0,0,0-4.447,1.967,47.6,47.6,0,0,0-5.752,3.725,48.32,48.32,0,0,0-28.421,0,45.025,45.025,0,0,0-5.771-3.706,29.738,29.738,0,0,0-4.39-1.987,15.305,15.305,0,0,0-3.046-.688,9.542,9.542,0,0,0-1.8-.1,2.719,2.719,0,0,0-.587.134A28.293,28.293,0,0,0,5,39.259a20,20,0,0,0-.189,4.967A33.3,33.3,0,0,0,5.3,47.587a14.2,14.2,0,0,0,.606,2.1A24.245,24.245,0,0,0,0,66.079Zm9.688,8.083a16.31,16.31,0,0,1,4.541-11.2,9.061,9.061,0,0,1,3.16-2.321,11.436,11.436,0,0,1,4.087-.894,37.122,37.122,0,0,1,4.371.043q2.082.149,5.147.4t5.3.256q2.233,0,5.3-.256t5.147-.4a37.125,37.125,0,0,1,4.371-.043,11.6,11.6,0,0,1,4.107.894,9.01,9.01,0,0,1,3.179,2.321,16.311,16.311,0,0,1,4.541,11.2,25.033,25.033,0,0,1-.757,6.453,18.436,18.436,0,0,1-1.911,4.749A9.855,9.855,0,0,1,57.032,88.6,21.659,21.659,0,0,1,53,90.644a23.573,23.573,0,0,1-5.033,1.129q-3.085.4-5.526.49t-6.15.085q-3.709,0-6.131-.085t-5.506-.49a23.575,23.575,0,0,1-5.033-1.129,21.654,21.654,0,0,1-4.03-2.044,9.849,9.849,0,0,1-3.236-3.237,18.438,18.438,0,0,1-1.911-4.749A25.057,25.057,0,0,1,9.688,74.162Zm8.477-2.228c0,3.762,2.033,6.812,4.541,6.812s4.541-3.05,4.541-6.812-2.033-6.812-4.541-6.812S18.165,68.172,18.165,71.934Zm27.248,0c0,3.762,2.033,6.812,4.541,6.812S54.5,75.7,54.5,71.934s-2.033-6.812-4.541-6.812S45.414,68.172,45.414,71.934Z" transform="translate(0 -33.332)"/>
  </g>
</svg>
