<svg xmlns="http://www.w3.org/2000/svg" viewBox="0 0 87.929 63.321">
  <defs>
    <style>
      .cls-1 {
        fill: #d8d8d8;
      }
    </style>
  </defs>
  <g id="Group_2254" data-name="Group 2254" transform="translate(0)">
    <path id="Path_1460" data-name="Path 1460" class="cls-1" d="M153.891,329.354l-.775-.774-.09-.09a28.043,28.043,0,0,1-31.616-2.09c-1.333.919-2.7,1.946-4.035,3.045a4.584,4.584,0,0,0-1.675,3.549v6.5h46.208v-2.144l-6.791-6.792Z" transform="translate(-94.857 -279.904)"/>
    <path id="Path_1461" data-name="Path 1461" class="cls-1" d="M201.411,122.3h-2.054a8.565,8.565,0,0,0-8.557,8.557v9.494a4.276,4.276,0,0,0,1.91,3.567v8.107a16.761,16.761,0,0,0,15.33-.036v-8.053a4.276,4.276,0,0,0,1.91-3.567v-9.494A8.53,8.53,0,0,0,201.411,122.3Z" transform="translate(-156.428 -112.572)"/>
    <path id="Path_1462" data-name="Path 1462" class="cls-1" d="M394.953,155.7a63.807,63.807,0,0,0-11.331-7.278.34.34,0,0,1-.2-.324v-7.674a3.585,3.585,0,0,0,1.6-2.99V129.47a7.165,7.165,0,0,0-7.17-7.17H376.2a28.077,28.077,0,0,1,.27,29.04l.09.09.36.36.414.414,1.225,1.225L389.3,164.166h7.062v-5.458A3.924,3.924,0,0,0,394.953,155.7Z" transform="translate(-308.429 -112.572)"/>
    <path id="Path_1463" data-name="Path 1463" class="cls-1" d="M170.272,125.839l-14.177-14.178-1.225-1.225-.414-.414h0l-.36-.36-.955.955-2.054-2.054a24.459,24.459,0,1,0-2.882,2.882l2.054,2.054-.955.955h0l.775.775,1.225,1.225,14.178,14.178a3.392,3.392,0,0,0,4.792,0,3.4,3.4,0,0,0,0-4.792Zm-23.455-18.645a20.375,20.375,0,1,1,0-28.823A20.323,20.323,0,0,1,146.816,107.194Z" transform="translate(-88.503 -68.3)"/>
    <path id="Path_1464" data-name="Path 1464" class="cls-1" d="M20.068,122.3H18.5a7.165,7.165,0,0,0-7.17,7.17v7.962a3.584,3.584,0,0,0,1.6,2.99V148.1a.359.359,0,0,1-.2.324A62.706,62.706,0,0,0,1.405,155.7,3.915,3.915,0,0,0,0,158.69v5.458H17.51a8.074,8.074,0,0,1,2.81-4.738c1.189-.973,2.4-1.892,3.585-2.738A28.047,28.047,0,0,1,20.068,122.3Z" transform="translate(0 -112.572)"/>
  </g>
</svg>
