<svg id="hand-writing-with-ballpen" xmlns="http://www.w3.org/2000/svg" viewBox="0 0 71.152 72.923">
  <defs>
    <style>
      .cls-1 {
        fill: #d8d8d8;
      }
    </style>
  </defs>
  <path id="Path_1597" data-name="Path 1597" class="cls-1" d="M73.2,164.1s-.3-5.422-10.29-8.271-11.558-5.211-11.558-5.211c-.661-3.239,1.948-4,3.847-4.133L46.129,128.21q-.574.146-1.2.321l2.856,5.6a1.213,1.213,0,0,1-.7,1.566l-.2.1a1.584,1.584,0,0,1-.713.178,1.038,1.038,0,0,1-.964-.532l-3.112-6.1c-10.625,3.021-12.55,3.043-20.645,4.852a49.966,49.966,0,0,1-15.309,1.116s-3.751,19.769,0,19.669a25.285,25.285,0,0,1,8.263,1.673c10.849,5.323,29.2,4,26.157,4.866s-4.005,1.571-3.7,4.764,7.807,1.369,7.807,1.369-.3,1.216,1.013,3.8S56.327,167.9,56.327,167.9s-1.318,4.106,2.686,4.358,3.8-3.954,4.714-4a21.709,21.709,0,0,1,3.092.3C75.233,169.929,73.2,164.1,73.2,164.1Z" transform="translate(-4.475 -102.843)"/>
  <path id="Path_1598" data-name="Path 1598" class="cls-1" d="M271.169,158.854c.812-3.954-.1-5.981-2.129-12.874s-4.765-8.314-11.659-13.788c-4.591-3.646-5.14-6.839-8.7-7.489l11.161,22.818a9.889,9.889,0,0,1,1.318,2.693l1.438,2.939a11.946,11.946,0,0,1,3.711,2.407c8.415,8.414,1.091,10.518,1.091,10.518C273.2,166.711,271.169,158.854,271.169,158.854Z" transform="translate(-200.36 -100.029)"/>
  <path id="Path_1599" data-name="Path 1599" class="cls-1" d="M225.849,128.834l3.3,6.646,4.888,1.656-3.336-6.82-10.058-20.562-1.727-3.533-3.406,1.787,1.126,2.269Z" transform="translate(-173.754 -85.205)"/>
  <path id="Path_1600" data-name="Path 1600" class="cls-1" d="M173.215,22.146l3.411-1.789.545-.286.543-.286.112-.059c-.4-.76-.844-1.56-1.3-2.38q-.369-.655-.757-1.327C172.177,9.811,167.457,2.741,164.731,0l-1.54.808c.65,3.494,3.349,10.455,6.165,16.591l-.327.172-.325.17-.41.215,1,1.964.344-.18.326-.171.326-.172c.57,1.2,1.138,2.345,1.685,3.4l.149-.078.545-.286Z" transform="translate(-131.788)"/>
  <path id="Path_1601" data-name="Path 1601" class="cls-1" d="M175.108,81.619a.453.453,0,0,0-.424-.2.961.961,0,0,0-.437.111l-.2.1a.864.864,0,0,0-.442.472.353.353,0,0,0,.01.274l4.723,9.258,3.059,6c.107.214.518.262.859.088l.2-.1c.348-.179.547-.521.431-.747l-2.909-5.7Z" transform="translate(-140.124 -65.31)"/>
  <path id="Path_1602" data-name="Path 1602" class="cls-1" d="M324.336,341.648c.634-1.079-.409-4.491-.409-4.491a19.778,19.778,0,0,1-4.638.057c2,3.8,3.264,4.765,3.969,4.921l.01.019c.134.3.9,1.34,1.2,1.2s.012-1.4-.125-1.7Z" transform="translate(-257.001 -270.448)"/>
</svg>
