<svg xmlns="http://www.w3.org/2000/svg" viewBox="0 0 78.915 80.018">
  <defs>
    <style>
      .cls-1 {
        fill: #d8d8d8;
      }
    </style>
  </defs>
  <g id="juggler-hands" transform="translate(0)">
    <g id="Layer_5_25_" transform="translate(0 0)">
      <g id="Group_1728" data-name="Group 1728" transform="translate(0 0)">
        <g id="Group_1723" data-name="Group 1723" transform="translate(46.846 33.082)">
          <path id="Path_1548" data-name="Path 1548" class="cls-1" d="M271.285,153.692c-.18,3.093.369,7.991-1.644,10.675-1.728,2.3-6.061,8.17-7.8,6.662-.423-.367,2.318-4.995,3.334-8.26.779-2.5-1.418-3.463-2.417-2.464s-6,7.326-7.912,10.172a59.258,59.258,0,0,0-3.274,6.839c-.261.616-.492.961.021,1.333,2.384,1.73,7.269,5.255,9.815,7.1.054.039.858.437.719-.521-.152-1.048-.194-2.41.564-3.168,1.189-1.189,11.774-11.23,12.9-12.9s-.091-12.735-.516-14.8C274.414,151.167,271.416,151.442,271.285,153.692Z" transform="translate(-243.987 -151.983)"/>
          <path id="Path_1549" data-name="Path 1549" class="cls-1" d="M217.964,294.483a1.337,1.337,0,0,0,.118,1.614l8.434,8.911a.81.81,0,0,0,1.309-.1l5.619-8.2a1.1,1.1,0,0,0-.248-1.485l-9.52-7.069a1.014,1.014,0,0,0-1.439.232Z" transform="translate(-217.747 -258.358)"/>
        </g>
        <g id="Group_1724" data-name="Group 1724" transform="translate(0 33.082)">
          <path id="Path_1550" data-name="Path 1550" class="cls-1" d="M3.517,154.367c-.425,2.064-1.645,13.123-.516,14.8s11.707,11.708,12.9,12.9c.758.758.716,2.12.564,3.168-.139.958.665.56.719.521,2.547-1.849,7.43-5.374,9.815-7.1.513-.372.282-.717.021-1.333a59.26,59.26,0,0,0-3.274-6.839c-1.914-2.846-6.919-9.179-7.912-10.173s-3.2-.04-2.417,2.464c1.016,3.265,3.757,7.893,3.334,8.26-1.738,1.508-6.07-4.358-7.8-6.662-2.013-2.683-1.465-7.581-1.645-10.675C7.174,151.442,4.176,151.167,3.517,154.367Z" transform="translate(-2.535 -151.983)"/>
          <path id="Path_1551" data-name="Path 1551" class="cls-1" d="M88.289,288.39a1.014,1.014,0,0,0-1.439-.233l-9.52,7.069a1.1,1.1,0,0,0-.248,1.485l5.619,8.2a.81.81,0,0,0,1.309.1l8.434-8.911a1.338,1.338,0,0,0,.118-1.614Z" transform="translate(-60.709 -258.358)"/>
        </g>
        <g id="Group_1725" data-name="Group 1725" transform="translate(7.96 18.297)">
          <path id="Path_1552" data-name="Path 1552" class="cls-1" d="M47.985,101.823a8.882,8.882,0,1,1,8.882-8.882A8.892,8.892,0,0,1,47.985,101.823Zm0-14.079a5.2,5.2,0,1,0,5.2,5.2A5.2,5.2,0,0,0,47.985,87.745Z" transform="translate(-39.103 -84.059)"/>
        </g>
        <g id="Group_1726" data-name="Group 1726" transform="translate(52.097 18.297)">
          <path id="Path_1553" data-name="Path 1553" class="cls-1" d="M250.755,101.823a8.882,8.882,0,1,1,8.882-8.882A8.892,8.892,0,0,1,250.755,101.823Zm0-14.079a5.2,5.2,0,1,0,5.2,5.2A5.2,5.2,0,0,0,250.755,87.745Z" transform="translate(-241.873 -84.059)"/>
        </g>
        <g id="Group_1727" data-name="Group 1727" transform="translate(30.555)">
          <ellipse id="Ellipse_403" data-name="Ellipse 403" class="cls-1" cx="8.356" cy="8.356" rx="8.356" ry="8.356"/>
        </g>
      </g>
    </g>
  </g>
</svg>
