<svg xmlns="http://www.w3.org/2000/svg" viewBox="0 0 73.489 74.594">
  <defs>
    <style>
      .cls-1 {
        fill: #d8d8d8;
      }
    </style>
  </defs>
  <g id="liquid-soap" transform="translate(0 0)">
    <g id="Group_1720" data-name="Group 1720" transform="translate(0 3.814)">
      <g id="Group_1719" data-name="Group 1719">
        <path id="Path_1532" data-name="Path 1532" class="cls-1" d="M240.565,178.824a14.746,14.746,0,1,0,0-29.491l-4.424.885.59,1.475a18.875,18.875,0,0,1-2.064,12.681A17.4,17.4,0,0,1,240.565,178.824Z" transform="translate(-202.226 -128.689)"/>
        <path id="Path_1533" data-name="Path 1533" class="cls-1" d="M203.8,21.333A32.148,32.148,0,0,0,192,23.692v7.373a16.809,16.809,0,0,1,6.193,6.193,17.695,17.695,0,1,1,5.6,34.21V86.214a32.441,32.441,0,1,0,0-64.881Z" transform="translate(-165.458 -18.384)"/>
        <path id="Path_1534" data-name="Path 1534" class="cls-1" d="M0,472.283a2.949,2.949,0,0,0,2.949,2.949H32.441a2.949,2.949,0,0,0,2.949-2.949v-2.949H0Z" transform="translate(0 -404.453)"/>
        <path id="Path_1535" data-name="Path 1535" class="cls-1" d="M28.312,130.328a17.4,17.4,0,0,0,2.949-12.976,13.271,13.271,0,0,0-6.488-8.553H10.617a13.271,13.271,0,0,0-6.783,8.553,17.4,17.4,0,0,0,2.949,12.976C3.539,132.1,0,136.226,0,143.894v11.8H35.39v-11.8C35.39,136.226,31.851,132.1,28.312,130.328Z" transform="translate(0 -93.758)"/>
        <path id="Path_1536" data-name="Path 1536" class="cls-1" d="M97.13,5.9H94.18V0h-5.9V5.9H85.333v5.9h11.8Z" transform="translate(-73.536)"/>
      </g>
    </g>
    <path id="Path_1537" data-name="Path 1537" class="cls-1" d="M342.474,6.926a3.294,3.294,0,0,1,3.47,3.463v.021h0v.011a1.155,1.155,0,0,0,2.309-.028,3.293,3.293,0,0,1,3.463-3.469h.034a1.155,1.155,0,0,0-.027-2.309,3.294,3.294,0,0,1-3.47-3.463V1.133h0V1.12a1.155,1.155,0,0,0-2.309.028,3.293,3.293,0,0,1-3.463,3.469h-.034a1.155,1.155,0,0,0,.027,2.309Z" transform="translate(-279.381 0)"/>
  </g>
</svg>
