<svg xmlns="http://www.w3.org/2000/svg" viewBox="0 0 53.941 64.199">
  <defs>
    <style>
      .cls-1 {
        fill: #d8d8d8;
      }
    </style>
  </defs>
  <path id="microphone" class="cls-1" d="M61.609,23.357,49.291,11.039c.016-.292.046-.583.083-.873q.029-.22.066-.439l.006-.038q.036-.209.08-.417l.012-.054q.044-.2.1-.408l.014-.053c.035-.137.073-.274.113-.41l.01-.032a11.627,11.627,0,0,1,.639-1.656c.014-.03.027-.06.041-.089.047-.1.1-.191.146-.286.029-.056.058-.112.088-.168.046-.084.093-.167.141-.25.038-.066.075-.131.115-.2s.093-.152.141-.228.09-.141.137-.211.094-.14.142-.209.106-.149.16-.223.093-.128.142-.191c.06-.079.123-.157.185-.235.046-.057.091-.114.138-.17.073-.087.149-.173.225-.259.04-.045.079-.091.12-.136q.178-.195.366-.384a11.74,11.74,0,0,1,1.834-1.5A11.611,11.611,0,0,1,57.632.48a11.742,11.742,0,0,1,6.656,0,11.611,11.611,0,0,1,3.1,1.444,11.7,11.7,0,0,1,1.834,18.029q-.188.188-.384.366c-.045.041-.091.08-.136.12-.086.076-.171.152-.259.225-.056.047-.114.092-.17.138-.078.063-.156.125-.235.185-.063.048-.127.1-.191.142s-.148.107-.222.159-.139.1-.21.142-.14.092-.211.136-.152.1-.229.142-.129.076-.194.113c-.084.048-.168.1-.252.142-.055.03-.11.058-.165.086-.1.05-.192.1-.289.147l-.085.04a11.63,11.63,0,0,1-1.663.642l-.028.009c-.137.041-.275.078-.413.114l-.05.013q-.2.052-.411.1l-.051.011q-.209.044-.42.08l-.037.006c-.146.025-.293.047-.44.066h0C62.191,23.311,61.9,23.341,61.609,23.357Zm8.736,18.19a10.948,10.948,0,0,0-15.482,0l-16.93,16.93a7.392,7.392,0,0,1-10.455,0l-.13-.13a7.4,7.4,0,0,1,0-10.454l4.5-4.5,1.276,1.276a1.778,1.778,0,0,0,2.364.134l23.7-18.85c-.031-.029-.064-.055-.093-.084L46.776,13.553c-.036-.036-.067-.076-.1-.113L27.688,36.992a1.778,1.778,0,0,0,.127,2.373l1.515,1.515-4.5,4.5a10.961,10.961,0,0,0,0,15.484l.13.13a10.948,10.948,0,0,0,15.483,0l16.93-16.93a7.391,7.391,0,0,1,10.453,0l4.709,4.709a1.778,1.778,0,1,0,2.514-2.515Z" transform="translate(-21.633 0.002)"/>
</svg>
