<svg xmlns="http://www.w3.org/2000/svg" viewBox="0 0 75.399 61.576">
  <defs>
    <style>
      .cls-1 {
        fill: #d8d8d8;
      }
    </style>
  </defs>
  <g id="photo-camera_1_" data-name="photo-camera (1)" transform="translate(0 0)">
    <path id="Path_1458" data-name="Path 1458" class="cls-1" d="M33.08,20.5A15.08,15.08,0,1,0,48.16,35.58,15.1,15.1,0,0,0,33.08,20.5Z" transform="translate(4.62 -1.65)"/>
    <path id="Path_1459" data-name="Path 1459" class="cls-1" d="M69.369,18.067H58.657L53.63,5.5H21.769L16.742,18.067H15.08V11.783H7.54v6.283H6.031A6.036,6.036,0,0,0,0,24.1V61a6.08,6.08,0,0,0,6.073,6.073H69.326A6.08,6.08,0,0,0,75.4,61V24.1A6.036,6.036,0,0,0,69.369,18.067Zm-56.8,0H10.053V14.3h2.513ZM37.7,62.049a22.62,22.62,0,1,1,22.62-22.62A22.646,22.646,0,0,1,37.7,62.049Zm27.646-28.9a5.027,5.027,0,1,1,5.027-5.027A5.032,5.032,0,0,1,65.346,33.146Z" transform="translate(0 -5.5)"/>
  </g>
</svg>
