<svg xmlns="http://www.w3.org/2000/svg" viewBox="0 0 59.304 87.688">
  <defs>
    <style>
      .cls-1 {
        fill: #d8d8d8;
      }
    </style>
  </defs>
  <g id="serving-drinks" transform="translate(0 0)">
    <path id="Path_1522" data-name="Path 1522" class="cls-1" d="M73.6,36.278h-.988a.842.842,0,0,0,.048-.236.884.884,0,0,0-.883-.883H69.991V30.2a3.967,3.967,0,0,0,3.083-3.859V24.315a1.284,1.284,0,0,0-1.349-1.263H66.614a1.335,1.335,0,0,0-1.473,1.263v2.027A3.968,3.968,0,0,0,68.224,30.2v4.957H66.436a.884.884,0,0,0-.883.883.841.841,0,0,0,.048.236H64.132a.842.842,0,0,0,.048-.236.884.884,0,0,0-.883-.883H61.507V30.2a3.967,3.967,0,0,0,3.083-3.859V24.315a1.283,1.283,0,0,0-1.348-1.263H58.131a1.334,1.334,0,0,0-1.473,1.263v2.027A3.968,3.968,0,0,0,59.741,30.2v4.957H57.953a.884.884,0,0,0-.883.883.842.842,0,0,0,.048.236H55.869a1.762,1.762,0,0,0-1.511.864,2.945,2.945,0,0,1-1.9-1.063l-6.2-9.029a2.6,2.6,0,0,0-.24-.277l-.036-.042c-.057-.059-.112-.12-.173-.172a2.613,2.613,0,0,0-1.1-.655l-6.268-1.836a2.662,2.662,0,0,0-2.3.433,3.7,3.7,0,0,0-.8.574L17.146,42.74a3.525,3.525,0,0,0-1.079,2.5,3.414,3.414,0,0,0,3.43,3.473,3.524,3.524,0,0,0,2.494-1.028l9.539-9.437L27.153,53.2a3,3,0,0,0,1.515,3.456V85.96a4.422,4.422,0,0,0,4.417,4.417h1.03a4.422,4.422,0,0,0,4.417-4.417V56.521c0-.021-.006-.042-.006-.063l6.091-20.8,5.25,6.544a4.647,4.647,0,0,0,3.364,1.571h0c.09,0,.178,0,.264-.011l7.991-.661a2.853,2.853,0,0,0,2.572-2.792v-.5H73.6a1.767,1.767,0,1,0,0-3.533Z" transform="translate(-16.067 -2.689)"/>
    <path id="Path_1523" data-name="Path 1523" class="cls-1" d="M45.062,19.148a9.771,9.771,0,1,0-5.827-4.687A9.775,9.775,0,0,0,45.062,19.148Z" transform="translate(-18.629 0)"/>
  </g>
</svg>
