<svg xmlns="http://www.w3.org/2000/svg" viewBox="0 0 70.885 71.322">
  <defs>
    <style>
      .cls-1 {
        fill: #d8d8d8;
      }
    </style>
  </defs>
  <g id="settings" transform="translate(0 0)">
    <g id="Group_1699" data-name="Group 1699" transform="translate(0 0)">
      <path id="Path_1511" data-name="Path 1511" class="cls-1" d="M18.548,30.035a6.385,6.385,0,0,1,5.365,1.818L27.46,35.4l3.355-3.34-4.848-4.833A1.933,1.933,0,0,1,28.7,24.493L33.55,29.34,36.9,26l-3.562-3.562a6.4,6.4,0,0,1-1.818-5.365A15.09,15.09,0,0,0,14.336.166a.9.9,0,0,0-.5,1.522L18.4,6.255a5.54,5.54,0,0,1,0,7.848l-2.808,2.808a5.54,5.54,0,0,1-7.848,0L3.163,12.344a.9.9,0,0,0-1.522.5A15.09,15.09,0,0,0,18.548,30.035Z" transform="translate(-1.475 0)"/>
      <path id="Path_1512" data-name="Path 1512" class="cls-1" d="M254.737,243.918l-3.355,3.34L271.3,267.181a1.933,1.933,0,0,1-2.734,2.734l-19.923-19.923-3.355,3.34,20.529,20.529a6.668,6.668,0,0,0,9.429-9.429Z" transform="translate(-209.258 -207.868)"/>
      <path id="Path_1513" data-name="Path 1513" class="cls-1" d="M55.82,26.428h8.853L73.526,8.737,69.107,4.318,51.4,13.156v8.853L27.34,46l-4.33-4.316L5.57,59.121A9.3,9.3,0,0,0,18.724,72.274l17.44-17.44-4.419-4.419Z" transform="translate(-2.641 -3.68)"/>
    </g>
  </g>
</svg>
