<svg xmlns="http://www.w3.org/2000/svg" viewBox="0 0 71.85 72.238">
  <defs>
    <style>
      .cls-1 {
        fill: #d8d8d8;
      }
    </style>
  </defs>
  <g id="speech" transform="translate(0)">
    <g id="Group_1730" data-name="Group 1730" transform="translate(22.805 0)">
      <g id="Group_1729" data-name="Group 1729" transform="translate(0 0)">
        <path id="Path_1558" data-name="Path 1558" class="cls-1" d="M182.648,12.98a8.139,8.139,0,1,0-13.069.01,11.429,11.429,0,0,0-6.568,7.953h26.226A11.429,11.429,0,0,0,182.648,12.98Z" transform="translate(-163.011 0)"/>
      </g>
    </g>
    <g id="Group_1732" data-name="Group 1732" transform="translate(16.128 25.18)">
      <g id="Group_1731" data-name="Group 1731">
        <path id="Path_1559" data-name="Path 1559" class="cls-1" d="M115.684,178.464v8.846h7.767v17.813a12.376,12.376,0,0,1,24.006-.047V187.31h7.835v-8.846Z" transform="translate(-115.684 -178.464)"/>
      </g>
    </g>
    <g id="Group_1734" data-name="Group 1734" transform="translate(0 46.691)">
      <g id="Group_1733" data-name="Group 1733">
        <path id="Path_1560" data-name="Path 1560" class="cls-1" d="M66.36,343.912a8.139,8.139,0,1,0-13.069.01,11.346,11.346,0,0,0-1.638.883,11.478,11.478,0,0,0-3.086,2.95,11.473,11.473,0,0,0-3.016-2.9l-.51-.337v.02a11.4,11.4,0,0,0-1.223-.623,8.147,8.147,0,0,0,.949-1.651l0-.009a8.058,8.058,0,0,0,.648-3.182,8.139,8.139,0,0,0-16.278,0,8.057,8.057,0,0,0,.653,3.192l0,.011a8.152,8.152,0,0,0,.95,1.647,11.378,11.378,0,0,0-1.241.636v-.019l-.489.325a11.468,11.468,0,0,0-2.99,2.882,11.47,11.47,0,0,0-4.738-3.834,8.139,8.139,0,1,0-13.069.01A11.4,11.4,0,0,0,1.375,354.36v2.118h71.85v-2.118h0A11.4,11.4,0,0,0,66.36,343.912Z" transform="translate(-1.375 -330.932)"/>
      </g>
    </g>
  </g>
</svg>
