<svg xmlns="http://www.w3.org/2000/svg" viewBox="0 0 85.336 73.961">
  <defs>
    <style>
      .cls-1 {
        fill: #d8d8d8;
      }
    </style>
  </defs>
  <g id="theatre-masks" transform="translate(0)">
    <path id="Path_1554" data-name="Path 1554" class="cls-1" d="M245.783,160.338a2.164,2.164,0,0,0-2.817-1.51c-5.028,1.766-12.785,2.9-21.51,2.9-2.121,0-4.166-.081-6.148-.208a46.515,46.515,0,0,1-4.754,12.627c.1,0,.2-.021.3-.021,2.711,0,4.909-.226,4.909,1.6s-2.2,5.014-4.909,5.014a5.943,5.943,0,0,1-3.867-1.292,28.749,28.749,0,0,1-9.361,7.771c3.931,13.23,13.12,22.511,23.829,22.511,14.286,0,25.868-16.516,25.868-36.89A50.865,50.865,0,0,0,245.783,160.338Zm-14.018,38.624a.578.578,0,0,1-.933.31c-2.015-1.693-5.443-2.818-9.375-2.818s-7.36,1.125-9.375,2.818a.578.578,0,0,1-.933-.31,9.582,9.582,0,0,1-.27-2.2,10.578,10.578,0,0,1,21.156,0A9.622,9.622,0,0,1,231.764,198.962Zm.292-18.219c-2.711,0-4.908-3.188-4.908-5.014s2.2-1.6,4.908-1.6,4.909,1.481,4.909,3.307S234.767,180.744,232.056,180.744Z" transform="translate(-161.987 -135.773)"/>
    <path id="Path_1555" data-name="Path 1555" class="cls-1" d="M51.735,45.674a50.855,50.855,0,0,0-1.54-12.5,2.166,2.166,0,0,0-2.817-1.51c-5.028,1.766-12.785,2.9-21.51,2.9S9.385,33.427,4.357,31.66a2.133,2.133,0,0,0-.715-.122,2.167,2.167,0,0,0-2.1,1.632A50.856,50.856,0,0,0,0,45.674c0,20.374,11.581,36.89,25.868,36.89S51.735,66.049,51.735,45.674ZM10.359,50.259c0-1.827,2.2-3.307,4.909-3.307s4.909,3.187,4.909,5.014-2.2,1.6-4.909,1.6S10.359,52.086,10.359,50.259ZM25.868,75.591A10.578,10.578,0,0,1,15.29,65.013a9.6,9.6,0,0,1,.269-2.2.578.578,0,0,1,.933-.31c2.015,1.693,5.443,2.818,9.375,2.818s7.36-1.125,9.375-2.818a.578.578,0,0,1,.933.31,9.6,9.6,0,0,1,.269,2.2A10.578,10.578,0,0,1,25.868,75.591Zm5.692-23.624c0-1.827,2.2-5.014,4.909-5.014s4.909,1.48,4.909,3.307-2.2,3.307-4.909,3.307S31.559,53.793,31.559,51.966Z" transform="translate(0 -31.538)"/>
  </g>
</svg>
