<svg xmlns="http://www.w3.org/2000/svg" viewBox="0 0 65.159 67.262">
  <defs>
    <style>
      .cls-1 {
        fill: #d8d8d8;
      }
    </style>
  </defs>
  <path id="user" class="cls-1" d="M65.159,33.631C65.159,15.088,50.543,0,32.579,0S0,15.088,0,33.631A34.043,34.043,0,0,0,10.575,58.406l-.031.028,1.057.92c.069.06.143.109.212.168.562.481,1.143.937,1.736,1.378.192.143.384.286.579.426q.949.675,1.945,1.282c.145.088.29.174.436.259.726.427,1.468.829,2.227,1.2.056.027.113.051.168.078a31.566,31.566,0,0,0,7.879,2.574l.218.04c.858.153,1.725.275,2.6.357.107.01.213.016.321.026.874.075,1.758.122,2.654.122s1.763-.048,2.632-.12c.11-.01.22-.016.331-.026q1.306-.123,2.58-.351l.222-.042a31.559,31.559,0,0,0,7.768-2.513c.09-.043.181-.083.271-.127q1.1-.532,2.145-1.145.261-.152.52-.309c.637-.388,1.264-.792,1.873-1.223.219-.154.434-.317.65-.478.52-.386,1.031-.785,1.527-1.2.11-.092.229-.171.336-.265l1.084-.934-.032-.028A34.036,34.036,0,0,0,65.159,33.631Zm-62.789,0c0-17.2,13.552-31.185,30.21-31.185s30.21,13.989,30.21,31.185A31.549,31.549,0,0,1,52.614,56.944a8.826,8.826,0,0,0-1.058-.657L41.525,51.111a2.721,2.721,0,0,1-1.46-2.437V45.057c.232-.3.477-.631.731-1a25.23,25.23,0,0,0,3.1-6.265,4.451,4.451,0,0,0,2.47-4.022V29.435a4.534,4.534,0,0,0-1.051-2.9V20.83a10.092,10.092,0,0,0-2.231-7.171c-2.183-2.573-5.717-3.876-10.5-3.876s-8.321,1.3-10.5,3.874a10.094,10.094,0,0,0-2.231,7.171v5.707a4.541,4.541,0,0,0-1.051,2.9v4.335a4.506,4.506,0,0,0,1.588,3.45,23.273,23.273,0,0,0,3.664,7.813v3.539a2.743,2.743,0,0,1-1.377,2.395L13.3,56.241a8.532,8.532,0,0,0-.891.582A31.559,31.559,0,0,1,2.369,33.631Z" transform="translate(0 0)"/>
</svg>
