<svg xmlns="http://www.w3.org/2000/svg" width="78.795" height="36.063" viewBox="0 0 78.795 36.063">
  <g id="car" transform="translate(0 0)">
    <g id="Group_1535" data-name="Group 1535" transform="translate(10.506 22.931)">
      <g id="Group_1534" data-name="Group 1534" transform="translate(0 0)">
        <path id="Path_1414" data-name="Path 1414" d="M74.832,287.834A6.566,6.566,0,1,0,81.4,294.4,6.574,6.574,0,0,0,74.832,287.834Zm0,10.506a3.94,3.94,0,1,1,3.94-3.94A3.945,3.945,0,0,1,74.832,298.34Z" transform="translate(-68.266 -287.834)" fill="#36ccb5"/>
      </g>
    </g>
    <g id="Group_1537" data-name="Group 1537" transform="translate(0 0)">
      <g id="Group_1536" data-name="Group 1536" transform="translate(0 0)">
        <path id="Path_1415" data-name="Path 1415" d="M77.482,161.764v-7.88a1.313,1.313,0,0,0-.9-1.246l-7.409-2.47c-2.791-4.726-6.627-9.224-15.1-10.71l-.047-.008c-15.655-2.164-27.409,1.367-34.955,10.5-5.617.081-11.351,1.255-14.723,3.415a6.429,6.429,0,0,0-2.88,5.139l-.152,3.261A1.314,1.314,0,0,0,0,163.077v5.253a1.314,1.314,0,0,0,1.313,1.313H6.566a1.322,1.322,0,0,0,1.313-1.328c0-.007,0-.013,0-.021a9.192,9.192,0,0,1,18.384.035,1.2,1.2,0,0,0,1.313,1.313H51.217a1.322,1.322,0,0,0,1.313-1.328c0-.007,0-.013,0-.021a9.192,9.192,0,0,1,18.384.035,1.2,1.2,0,0,0,1.313,1.313h5.253A1.314,1.314,0,0,0,78.8,168.33v-5.253A1.313,1.313,0,0,0,77.482,161.764ZM42.024,149.288a.657.657,0,0,1-.657.657H24.241a.661.661,0,0,1-.435-1.154c4.557-4.154,10.352-6.53,17.494-7.161a.669.669,0,0,1,.724.662Zm15.777.006a.657.657,0,0,1-.657.65H45.307a.657.657,0,0,1-.657-.657v-7.17a.658.658,0,0,1,.653-.663,60.39,60.39,0,0,1,8.335.595,22.128,22.128,0,0,1,3.79,1,.658.658,0,0,1,.426.628Zm6.854.65H61.085a.657.657,0,0,1-.657-.663l.034-3.559a.662.662,0,0,1,1.061-.516,17.365,17.365,0,0,1,3.652,3.676A.66.66,0,0,1,64.656,149.945Z" transform="translate(0 -138.833)" fill="#36ccb5"/>
      </g>
    </g>
    <g id="Group_1539" data-name="Group 1539" transform="translate(55.157 22.931)">
      <g id="Group_1538" data-name="Group 1538" transform="translate(0 0)">
        <path id="Path_1416" data-name="Path 1416" d="M364.966,287.834a6.566,6.566,0,1,0,6.566,6.566A6.574,6.574,0,0,0,364.966,287.834Zm0,10.506a3.94,3.94,0,1,1,3.94-3.94A3.945,3.945,0,0,1,364.966,298.34Z" transform="translate(-358.4 -287.834)" fill="#36ccb5"/>
      </g>
    </g>
  </g>
</svg>
