<svg xmlns="http://www.w3.org/2000/svg" width="87.958" height="87.957" viewBox="0 0 87.958 87.957">
  <g id="Group_2514" data-name="Group 2514" transform="translate(-1383.476 -315.476)" opacity="0.728">
    <g id="Group_2516" data-name="Group 2516" transform="translate(1383.476 315.476)">
      <g id="car" transform="translate(13.401 26.766)" opacity="0.4">
        <g id="Group_1535" data-name="Group 1535" transform="translate(8.009 17.481)">
          <g id="Group_1534" data-name="Group 1534" transform="translate(0 0)">
            <path id="Path_1414" data-name="Path 1414" d="M73.272,287.834a5.006,5.006,0,1,0,5.006,5.006A5.012,5.012,0,0,0,73.272,287.834Zm0,8.009a3,3,0,1,1,3-3A3.007,3.007,0,0,1,73.272,295.843Z" transform="translate(-68.266 -287.834)" fill="#707070"/>
          </g>
        </g>
        <g id="Group_1537" data-name="Group 1537" transform="translate(0 0)">
          <g id="Group_1536" data-name="Group 1536" transform="translate(0 0)">
            <path id="Path_1415" data-name="Path 1415" d="M59.068,156.314v-6.007a1,1,0,0,0-.685-.95l-5.649-1.883c-2.127-3.6-5.052-7.032-11.514-8.164l-.036-.006c-11.935-1.65-20.9,1.042-26.648,8-4.282.062-8.653.957-11.224,2.6a4.9,4.9,0,0,0-2.2,3.918L1,156.314a1,1,0,0,0-1,1v4a1,1,0,0,0,1,1h4a1.008,1.008,0,0,0,1-1.012c0-.005,0-.01,0-.016a7.008,7.008,0,0,1,14.015.027.911.911,0,0,0,1,1H39.045a1.008,1.008,0,0,0,1-1.012c0-.005,0-.01,0-.016a7.008,7.008,0,0,1,14.015.027.911.911,0,0,0,1,1h4a1,1,0,0,0,1-1v-4A1,1,0,0,0,59.068,156.314ZM32.037,146.8a.5.5,0,0,1-.5.5H18.48a.5.5,0,0,1-.331-.88,21.991,21.991,0,0,1,13.336-5.459.51.51,0,0,1,.552.5Zm12.028,0a.5.5,0,0,1-.5.5H34.54a.5.5,0,0,1-.5-.5v-5.466a.5.5,0,0,1,.5-.506,46.04,46.04,0,0,1,6.354.454,16.868,16.868,0,0,1,2.889.764.5.5,0,0,1,.324.479Zm5.225.5H46.568a.5.5,0,0,1-.5-.506l.026-2.713a.5.5,0,0,1,.809-.393,13.238,13.238,0,0,1,2.784,2.8A.5.5,0,0,1,49.29,147.3Z" transform="translate(0 -138.833)" fill="#707070"/>
          </g>
        </g>
        <g id="Group_1539" data-name="Group 1539" transform="translate(42.048 17.481)">
          <g id="Group_1538" data-name="Group 1538" transform="translate(0 0)">
            <path id="Path_1416" data-name="Path 1416" d="M363.406,287.834a5.006,5.006,0,1,0,5.006,5.006A5.011,5.011,0,0,0,363.406,287.834Zm0,8.009a3,3,0,1,1,3-3A3.007,3.007,0,0,1,363.406,295.843Z" transform="translate(-358.4 -287.834)" fill="#707070"/>
          </g>
        </g>
      </g>
      <g id="stop" transform="translate(0)">
        <path id="Path_1608" data-name="Path 1608" d="M43.979,0A43.979,43.979,0,1,0,87.957,43.979,44.028,44.028,0,0,0,43.979,0ZM8.055,43.979A35.894,35.894,0,0,1,67.364,16.744l-50.62,50.62A35.756,35.756,0,0,1,8.055,43.979ZM43.979,79.9A35.733,35.733,0,0,1,22.64,72.857L72.856,22.641A35.9,35.9,0,0,1,43.979,79.9Z" transform="translate(0 0)" fill="#d3d3d3"/>
      </g>
    </g>
  </g>
</svg>
