<svg xmlns="http://www.w3.org/2000/svg" width="87.958" height="87.957" viewBox="0 0 87.958 87.957">
  <g id="Group_4317" data-name="Group 4317" transform="translate(-1672.233 -340)">
    <path id="Path_1948" data-name="Path 1948" d="M0,118.556v-1.763a3.218,3.218,0,0,1,.955-2.288l9.481-9.38a3.218,3.218,0,0,1,2.263-.93h4.783V102.4A2.414,2.414,0,0,1,19.9,99.987H47.522a2.414,2.414,0,0,1,2.414,2.414v16.155Zm14.642-11.2a.378.378,0,0,0-.378-.378H12.518a.408.408,0,0,0-.265.1L4.827,114.17a.377.377,0,0,0,.257.652h9.179a.378.378,0,0,0,.378-.378v-7.088ZM0,119.889v5.343a2.413,2.413,0,0,0,2.413,2.413H5a6.622,6.622,0,0,1,13.105,0H31.191a6.618,6.618,0,0,1,13.1,0h3.234a2.413,2.413,0,0,0,2.414-2.413v-5.343H0Zm11.549,3.705A5.006,5.006,0,1,1,6.543,128.6,5.006,5.006,0,0,1,11.549,123.594Zm0,7.509a2.5,2.5,0,1,0-2.5-2.5A2.5,2.5,0,0,0,11.549,131.1Zm26.191-7.509a5.006,5.006,0,1,1-5.006,5.006A5.006,5.006,0,0,1,37.74,123.594Zm0,7.509a2.5,2.5,0,1,0-2.5-2.5A2.5,2.5,0,0,0,37.74,131.1Z" transform="translate(1691.598 267.534)" fill="#d6d6d6"/>
    <g id="stop" transform="translate(1672.233 340)">
      <path id="Path_1608" data-name="Path 1608" d="M43.979,0A43.979,43.979,0,1,0,87.957,43.979,44.028,44.028,0,0,0,43.979,0ZM8.055,43.979A35.894,35.894,0,0,1,67.364,16.744l-50.62,50.62A35.756,35.756,0,0,1,8.055,43.979ZM43.979,79.9A35.733,35.733,0,0,1,22.64,72.857L72.856,22.641A35.9,35.9,0,0,1,43.979,79.9Z" transform="translate(0 0)" fill="#dedede"/>
    </g>
  </g>
</svg>
