<?xml version="1.0" encoding="utf-8"?>
<!-- Generator: Adobe Illustrator 23.0.2, SVG Export Plug-In . SVG Version: 6.00 Build 0)  -->
<svg version="1.1" id="Livello_1" xmlns="http://www.w3.org/2000/svg" xmlns:xlink="http://www.w3.org/1999/xlink" x="0px" y="0px"
	 viewBox="0 0 64.3 43.3" style="enable-background:new 0 0 64.3 43.3;" xml:space="preserve">
<style type="text/css">
	.st0{fill:#36CCB5;}
</style>
<g id="delivery-truck" transform="translate(0 0)">
	<path id="Path_1417" class="st0" d="M0,23.9v-2.3c0-1.1,0.4-2.2,1.2-2.9L13.4,6.6c0.8-0.8,1.8-1.2,2.9-1.2h6.2V3.1
		c0-1.7,1.4-3.1,3.1-3.1h35.6c1.7,0,3.1,1.4,3.1,3.1c0,0,0,0,0,0v20.8L0,23.9z M18.8,9.5c0-0.3-0.2-0.5-0.5-0.5c0,0,0,0,0,0h-2.2
		C16,9,15.9,9,15.8,9.1l-9.6,9.1c-0.2,0.2-0.2,0.5,0,0.7c0.1,0.1,0.2,0.2,0.3,0.2h11.8c0.3,0,0.5-0.2,0.5-0.5c0,0,0,0,0,0L18.8,9.5
		L18.8,9.5z M0,25.6v6.9c0,1.7,1.4,3.1,3.1,3.1c0,0,0,0,0,0h3.3c0.7-4.7,5-7.9,9.7-7.2c3.7,0.5,6.7,3.5,7.2,7.2h16.8
		c0.7-4.7,5-7.9,9.7-7.2c3.7,0.5,6.7,3.5,7.2,7.2h4.2c1.7,0,3.1-1.4,3.1-3.1c0,0,0,0,0,0v-6.9H0z M14.9,30.4c3.6,0,6.4,2.9,6.4,6.4
		s-2.9,6.4-6.4,6.4s-6.4-2.9-6.4-6.4l0,0C8.4,33.3,11.3,30.4,14.9,30.4C14.9,30.4,14.9,30.4,14.9,30.4L14.9,30.4z M14.9,40
		c1.8,0,3.2-1.4,3.2-3.2c0-1.8-1.4-3.2-3.2-3.2s-3.2,1.4-3.2,3.2l0,0C11.6,38.6,13.1,40,14.9,40L14.9,40z M48.6,30.4
		c3.6,0,6.4,2.9,6.4,6.4s-2.9,6.4-6.4,6.4s-6.4-2.9-6.4-6.4l0,0C42.1,33.3,45,30.4,48.6,30.4C48.6,30.4,48.6,30.4,48.6,30.4
		L48.6,30.4z M48.6,40c1.8,0,3.2-1.4,3.2-3.2c0-1.8-1.4-3.2-3.2-3.2c-1.8,0-3.2,1.4-3.2,3.2l0,0C45.3,38.6,46.8,40,48.6,40L48.6,40z
		"/>
</g>
</svg>
